SplineFontDB: 3.0
FontName: agave
FullName: agave
FamilyName: agave
Weight: Regular
Copyright: Copyright 2013 type agaric
Version: 009
ItalicAngle: 0
UnderlinePosition: -384
UnderlineWidth: 128
Ascent: 1536
Descent: 512
sfntRevision: 0x00090000
LayerCount: 2
Layer: 0 0 "Back"  1
Layer: 1 0 "Fore"  0
NeedsXUIDChange: 1
XUID: [1021 439 1587787360 15607671]
FSType: 0
OS2Version: 0
OS2_WeightWidthSlopeOnly: 0
OS2_UseTypoMetrics: 1
CreationTime: 1368797729
ModificationTime: 1371254116
PfmFamily: 49
TTFWeight: 400
TTFWidth: 5
LineGap: 0
VLineGap: 0
Panose: 2 11 5 9 2 4 4 3 2 4
OS2TypoAscent: 64
OS2TypoAOffset: 1
OS2TypoDescent: 0
OS2TypoDOffset: 1
OS2TypoLinegap: 0
OS2WinAscent: 64
OS2WinAOffset: 1
OS2WinDescent: 0
OS2WinDOffset: 1
HheadAscent: 64
HheadAOffset: 1
HheadDescent: 0
HheadDOffset: 1
OS2SubXSize: 1331
OS2SubYSize: 1433
OS2SubXOff: 0
OS2SubYOff: 286
OS2SupXSize: 1331
OS2SupYSize: 1433
OS2SupXOff: 0
OS2SupYOff: 983
OS2StrikeYSize: 128
OS2StrikeYPos: 512
OS2FamilyClass: 2057
OS2Vendor: 'PfEd'
MarkAttachClasses: 1
DEI: 91125
LangName: 1033 "" "" "" "type agaric: agave" "" "" "" "" "" "type agaric" "" "https://bitbucket.org/agaric/agave" "http://an.erki.net/+AH4A-b/type/" "MIT X" "http://an.erki.net/+AH4A-b/type/agave_license" 
Encoding: UnicodeBmp
UnicodeInterp: none
NameList: Adobe Glyph List
DisplaySize: -24
AntiAlias: 1
FitToEm: 1
WinInfo: 0 16 16
BeginPrivate: 0
EndPrivate
TeXData: 2 0 0 524288 262144 174762 655360 -1048576 174762 783286 444596 497025 792723 393216 433062 380633 303038 157286 324010 404750 52429 2506097 1059062 262144
BeginChars: 65543 1956

StartChar: zero
Encoding: 48 48 0
Width: 1024
VWidth: 0
Flags: HW
LayerCount: 2
Fore
SplineSet
512 1296 m 0
 778.997 1296 944 1045 944 640 c 0
 944 234.996 779.005 -16 512 -16 c 0
 244.995 -16 80 235.002 80 640 c 0
 80 1045 245.003 1296 512 1296 c 0
512 1139 m 0
 355.002 1139 258 948.002 258 640 c 0
 258 331.998 355 141 512 141 c 0
 669 141 766 332.001 766 640 c 0
 766 947.999 668.998 1139 512 1139 c 0
427 768 m 1
 597 768 l 1
 597 512 l 1
 427 512 l 1
 427 768 l 1
EndSplineSet
Validated: 1
EndChar

StartChar: one
Encoding: 49 49 1
Width: 1024
VWidth: 0
Flags: HW
LayerCount: 2
Fore
SplineSet
512 1280 m 1
 682 1280 l 1
 682 0 l 1
 512 0 l 1
 512 1040 l 1
 280 808 l 1
 160 928 l 1
 512 1280 l 1
EndSplineSet
Validated: 1
EndChar

StartChar: two
Encoding: 50 50 2
Width: 1024
VWidth: 0
Flags: HW
LayerCount: 2
Fore
SplineSet
512 1296 m 0
 739 1296 880 1182 880 997 c 0
 880 904 880 846 739 670 c 2
 329 157 l 1
 896 157 l 1
 896 0 l 1
 128 0 l 1
 128 157 l 1
 616 768 l 2
 710 886 710 928 710 997 c 0
 710 1085 634 1139 512 1139 c 0
 390 1139 314 1085 314 997 c 1
 144 1024 l 1
 144 1192 285 1296 512 1296 c 0
EndSplineSet
Validated: 1
EndChar

StartChar: three
Encoding: 51 51 3
Width: 1024
VWidth: 0
Flags: HW
LayerCount: 2
Fore
SplineSet
370 1288 m 0
 684.997 1288 880 1203 880 946 c 0
 880 756.002 710 708 710 708 c 1
 710 708 912 643.003 912 384 c 0
 912 90.0029 702.001 -8 363 -8 c 0
 217.998 -8 128 8 128 8 c 1
 128 157 l 1
 363 157 l 2
 596.998 157 742 213.998 742 384 c 0
 742 523.999 635.003 611 461 611 c 2
 288 611 l 1
 288 768 l 1
 449 768 l 2
 609.998 768 710 835.998 710 946 c 0
 710 1079 580.001 1123 370 1123 c 2
 160 1123 l 1
 160 1272 l 1
 160 1272 239.998 1288 370 1288 c 0
EndSplineSet
Validated: 1
EndChar

StartChar: four
Encoding: 52 52 4
Width: 1024
VWidth: 0
Flags: HW
LayerCount: 2
Fore
SplineSet
598 1280 m 1
 802 1280 l 1
 802 413 l 1
 960 413 l 1
 960 256 l 1
 802 256 l 1
 802 0 l 1
 632 0 l 1
 632 256 l 1
 64 256 l 1
 64 413 l 1
 598 1280 l 1
632 1011 m 1
 264 413 l 1
 632 413 l 1
 632 1011 l 1
EndSplineSet
Validated: 1
EndChar

StartChar: five
Encoding: 53 53 5
Width: 1024
VWidth: 0
Flags: HW
LayerCount: 2
Fore
SplineSet
330 1123 m 1
 330 768 l 1
 512 768 l 2
 759.003 768 912 642.003 912 438 c 0
 912 159.271 701.996 -8 363 -8 c 0
 218.003 -8 128 8 128 8 c 1
 128 157 l 1
 363 157 l 2
 597.002 157 742 248.255 742 438 c 0
 742 544.998 654.002 611 512 611 c 2
 160 611 l 1
 160 1280 l 1
 864 1280 l 1
 864 1123 l 1
 330 1123 l 1
EndSplineSet
Validated: 1
EndChar

StartChar: six
Encoding: 54 54 6
Width: 1024
VWidth: 0
Flags: HW
LayerCount: 2
Fore
SplineSet
512 1280 m 1
 713 1280 l 1
 388 768 l 1
 388 768 435.003 784 512 784 c 0
 758.997 784 912 630.999 912 384 c 0
 912 137.001 758.999 -16 512 -16 c 0
 265.001 -16 112 136.999 112 384 c 0
 112 548.997 162.376 730.776 244 859 c 2
 512 1280 l 1
512 627 m 0
 339.002 627 282 566.002 282 384 c 0
 282 233.997 369.995 141 512 141 c 0
 654.005 141 742 234.002 742 384 c 0
 742 533.998 653.997 627 512 627 c 0
EndSplineSet
Validated: 1
EndChar

StartChar: seven
Encoding: 55 55 7
Width: 1024
VWidth: 0
Flags: HW
LayerCount: 2
Fore
SplineSet
928 1280 m 1
 928 1123 l 1
 512 0 l 1
 331 0 l 1
 747 1123 l 1
 96 1123 l 1
 96 1280 l 1
 928 1280 l 1
EndSplineSet
Validated: 1
EndChar

StartChar: eight
Encoding: 56 56 8
Width: 1024
VWidth: 0
Flags: HW
LayerCount: 2
Fore
SplineSet
112 970 m 0
 112 1171 264.997 1296 512 1296 c 0
 759.003 1296 912 1171 912 970 c 0
 912 803.001 674 700 674 700 c 1
 674 700 944 570.999 944 363 c 0
 944 129.001 778.995 -16 512 -16 c 0
 245.005 -16 80 129.004 80 363 c 0
 80 571.003 350 700 350 700 c 1
 350 700 112 802.998 112 970 c 0
282 970 m 0
 282 845.003 512 768 512 768 c 1
 512 768 742 844.996 742 970 c 0
 742 1074 653.995 1139 512 1139 c 0
 370.005 1139 282 1074 282 970 c 0
512 632 m 1
 512 632 250 529.003 250 363 c 0
 250 236.003 349.999 157 512 157 c 0
 674.001 157 774 236.005 774 363 c 0
 774 528.999 512 632 512 632 c 1
EndSplineSet
Validated: 1
EndChar

StartChar: nine
Encoding: 57 57 9
Width: 1024
VWidth: 0
Flags: HW
LayerCount: 2
Fore
SplineSet
512 0 m 1
 311 0 l 1
 636 512 l 1
 636 512 588.997 496 512 496 c 0
 265.003 496 112 649.001 112 896 c 0
 112 1143 265.001 1296 512 1296 c 0
 759 1296 912 1143 912 896 c 0
 912 731.003 861.624 549.224 780 421 c 2
 512 0 l 1
512 653 m 0
 684.998 653 742 713.998 742 896 c 0
 742 1046 654.005 1139 512 1139 c 0
 369.995 1139 282 1046 282 896 c 0
 282 746.002 370.003 653 512 653 c 0
EndSplineSet
Validated: 1
EndChar

StartChar: exclam
Encoding: 33 33 11
Width: 1024
VWidth: 0
Flags: H
LayerCount: 2
Fore
SplineSet
419 1280 m 1
 605 1280 l 5
 597 512 l 1
 427 512 l 1
 419 1280 l 1
384 256 m 1
 640 256 l 1
 640 0 l 1
 384 0 l 1
 384 256 l 1
EndSplineSet
Validated: 1
EndChar

StartChar: quotedbl
Encoding: 34 34 12
Width: 1024
VWidth: 0
Flags: H
LayerCount: 2
Fore
SplineSet
264 1280 m 1
 434 1280 l 1
 422 768 l 1
 275 768 l 1
 264 1280 l 1
590 1280 m 1
 760 1280 l 1
 749 768 l 1
 602 768 l 1
 590 1280 l 1
EndSplineSet
Validated: 1
EndChar

StartChar: numbersign
Encoding: 35 35 13
Width: 1024
VWidth: 0
Flags: H
LayerCount: 2
Fore
SplineSet
244 1280 m 1
 390 1280 l 1
 390 951 l 1
 634 951 l 1
 634 1280 l 1
 780 1280 l 1
 780 951 l 1
 960 951 l 1
 960 805 l 1
 780 805 l 1
 780 475 l 1
 960 475 l 1
 960 329 l 1
 780 329 l 1
 780 0 l 1
 634 0 l 1
 634 329 l 1
 390 329 l 1
 390 0 l 1
 244 0 l 1
 244 329 l 1
 64 329 l 1
 64 475 l 1
 244 475 l 1
 244 805 l 1
 64 805 l 1
 64 951 l 1
 244 951 l 1
 244 1280 l 1
634 805 m 1
 390 805 l 1
 390 475 l 1
 634 475 l 1
 634 805 l 1
EndSplineSet
Validated: 1
EndChar

StartChar: dollar
Encoding: 36 36 14
Width: 1024
VWidth: 0
Flags: H
LayerCount: 2
Fore
SplineSet
427 1437 m 1
 597 1437 l 1
 597 1188 l 1
 597 1188 615 1189 642 1189 c 0
 779 1189 864 1173 864 1173 c 1
 864 1024 l 1
 576 1024 l 1
 576 694 l 1
 740 650 912 594 912 403 c 0
 912 229 796 142 597 108 c 1
 597 -157 l 1
 427 -157 l 1
 427 92 l 1
 427 92 403 91 363 91 c 0
 218 91 128 107 128 107 c 1
 128 256 l 1
 448 256 l 1
 448 586 l 1
 284 630 112 686 112 877 c 0
 112 1054 228 1142 427 1174 c 1
 427 1437 l 1
448 1010 m 1
 343 991 282 950 282 877 c 0
 282 797 353 759 448 729 c 1
 448 1010 l 1
576 551 m 1
 576 272 l 1
 682 292 742 332 742 403 c 0
 742 483 671 521 576 551 c 1
EndSplineSet
Validated: 1
EndChar

StartChar: percent
Encoding: 37 37 15
Width: 1024
VWidth: 0
Flags: H
LayerCount: 2
Fore
SplineSet
128 1280 m 1
 339 1280 l 1
 339 960 l 1
 128 960 l 1
 128 1280 l 1
766 1280 m 1
 960 1280 l 1
 258 0 l 1
 64 0 l 1
 766 1280 l 1
685 320 m 1
 896 320 l 1
 896 0 l 1
 685 0 l 1
 685 320 l 1
EndSplineSet
EndChar

StartChar: ampersand
Encoding: 38 38 16
Width: 1024
VWidth: 0
Flags: H
LayerCount: 2
Fore
SplineSet
503 1288 m 0
 580.997 1288 630 1272 630 1272 c 1
 630 1123 l 1
 503 1123 l 2
 375.995 1123 298 1079 298 946 c 0
 298 836.999 346.996 768 425 768 c 2
 630 768 l 1
 630 964.312 l 1
 800 964.312 l 1
 800 768 l 1
 960 768 l 1
 960 611 l 1
 800 611 l 1
 800 321 l 2
 800 185.997 860.998 141 960 141 c 1
 960 -8 l 1
 816.688 -8 711.681 32.2812 662 142 c 1
 512 -8 l 1
 234.995 -8 64 88.9971 64 380 c 0
 64 626.004 234 708 234 708 c 1
 234 708 128 766.999 128 946 c 0
 128 1203 271.004 1288 503 1288 c 0
385 611 m 2
 292.003 611 234 522.999 234 380 c 0
 234 237.001 340.004 149 512 149 c 2
 659 149 l 1
 639.888 194.363 630 251.065 630 321 c 2
 630 611 l 1
 385 611 l 2
EndSplineSet
Validated: 1
EndChar

StartChar: quotesingle
Encoding: 39 39 17
Width: 1024
VWidth: 0
Flags: H
LayerCount: 2
Fore
SplineSet
427 1280 m 1
 597 1280 l 1
 585 768 l 1
 439 768 l 1
 427 1280 l 1
EndSplineSet
Validated: 1
EndChar

StartChar: parenleft
Encoding: 40 40 18
Width: 1024
VWidth: 0
Flags: H
LayerCount: 2
Fore
SplineSet
662 1437 m 1
 832 1437 l 1
 832 1437 512 1114 512 591 c 0
 512 68 832 -256 832 -256 c 1
 662 -256 l 1
 662 -256 320 68 320 591 c 0
 320 1114 662 1437 662 1437 c 1
EndSplineSet
Validated: 1
EndChar

StartChar: asterisk
Encoding: 42 42 19
Width: 1024
VWidth: 0
Flags: H
LayerCount: 2
Fore
SplineSet
439 1280 m 1
 585 1280 l 1
 581 929 l 1
 915 1041 l 1
 960 902 l 1
 625 797 l 1
 835 515 l 1
 717 429 l 1
 512 717 l 1
 307 429 l 1
 189 515 l 1
 399 797 l 1
 64 902 l 1
 109 1041 l 1
 443 929 l 1
 439 1280 l 1
EndSplineSet
Validated: 1
EndChar

StartChar: plus
Encoding: 43 43 20
Width: 1024
VWidth: 0
Flags: H
LayerCount: 2
Fore
SplineSet
427 1088 m 1
 597 1088 l 1
 597 719 l 1
 960 719 l 1
 960 561 l 1
 597 561 l 1
 597 192 l 1
 427 192 l 1
 427 561 l 1
 64 561 l 1
 64 719 l 1
 427 719 l 1
 427 1088 l 1
EndSplineSet
Validated: 1
EndChar

StartChar: comma
Encoding: 44 44 21
Width: 1024
VWidth: 0
Flags: H
LayerCount: 2
Fore
SplineSet
384 416 m 1
 640 416 l 1
 640 0 l 1
 384 -256 l 1
 256 -140 l 1
 470 74 l 1
 470 160 l 1
 384 160 l 1
 384 416 l 1
EndSplineSet
Validated: 1
EndChar

StartChar: hyphen
Encoding: 45 45 22
Width: 1024
VWidth: 0
Flags: H
LayerCount: 2
Fore
SplineSet
192 719 m 1
 832 719 l 1
 832 561 l 1
 192 561 l 1
 192 719 l 1
EndSplineSet
Validated: 1
EndChar

StartChar: period
Encoding: 46 46 23
Width: 1024
VWidth: 0
Flags: H
LayerCount: 2
Fore
SplineSet
640 0 m 1
 384 0 l 1
 384 320 l 1
 640 320 l 1
 640 0 l 1
EndSplineSet
Validated: 1
EndChar

StartChar: slash
Encoding: 47 47 24
Width: 1024
VWidth: 0
Flags: HW
LayerCount: 2
Fore
SplineSet
313 -99 m 1
 128 -99 l 1
 711 1280 l 1
 896 1280 l 1
 313 -99 l 1
EndSplineSet
Validated: 1
EndChar

StartChar: colon
Encoding: 58 58 25
Width: 1024
VWidth: 0
Flags: H
LayerCount: 2
Fore
SplineSet
384 1184 m 1
 640 1184 l 1
 640 864 l 1
 384 864 l 1
 384 1184 l 1
384 416 m 1
 640 416 l 1
 640 96 l 1
 384 96 l 1
 384 416 l 1
EndSplineSet
Validated: 1
EndChar

StartChar: semicolon
Encoding: 59 59 26
Width: 1024
VWidth: 0
Flags: H
LayerCount: 2
Fore
SplineSet
384 1184 m 1
 640 1184 l 1
 640 864 l 1
 384 864 l 1
 384 1184 l 1
384 416 m 1
 640 416 l 1
 640 0 l 1
 384 -256 l 1
 256 -140 l 1
 470 74 l 1
 470 160 l 1
 384 160 l 1
 384 416 l 1
EndSplineSet
Validated: 1
EndChar

StartChar: less
Encoding: 60 60 27
Width: 1024
VWidth: 0
Flags: H
LayerCount: 2
Fore
SplineSet
836 1167 m 1
 928 1024 l 1
 331 640 l 1
 928 256 l 1
 836 113 l 1
 96 589 l 1
 96 691 l 1
 836 1167 l 1
EndSplineSet
Validated: 1
EndChar

StartChar: equal
Encoding: 61 61 28
Width: 1024
VWidth: 0
Flags: H
LayerCount: 2
Fore
SplineSet
96 925 m 1
 928 925 l 1
 928 768 l 1
 96 768 l 1
 96 925 l 1
96 512 m 1
 928 512 l 1
 928 355 l 1
 96 355 l 1
 96 512 l 1
EndSplineSet
Validated: 1
EndChar

StartChar: question
Encoding: 63 63 29
Width: 1024
VWidth: 0
Flags: H
LayerCount: 2
Fore
SplineSet
160 1272 m 1
 160 1272 261.999 1288 427 1288 c 0
 706.999 1288 880 1201 880 964 c 0
 880 781.997 739.002 669 512 669 c 1
 512 512 l 1
 342 512 l 1
 342 805 l 1
 569.001 805 710 845.001 710 964 c 0
 710 1083 602.003 1123 427 1123 c 2
 160 1123 l 1
 160 1272 l 1
384 256 m 1
 640 256 l 1
 640 0 l 1
 384 0 l 1
 384 256 l 1
EndSplineSet
Validated: 1
EndChar

StartChar: at
Encoding: 64 64 30
Width: 1024
VWidth: 0
Flags: H
LayerCount: 2
Fore
SplineSet
586 1296 m 0
 816.996 1296 960 1184 960 1004 c 2
 960 366 l 1
 699 366 l 2
 487.995 366 358 481.998 358 670 c 0
 358 821.005 460.995 914 627 914 c 2
 814 914 l 1
 814 1004 l 2
 814 1094 727 1150 586 1150 c 0
 358.998 1150 218 1011 218 640 c 0
 218 268.998 375.998 146 631 146 c 2
 896 146 l 1
 896 -4.50684 l 1
 896 -4.50684 795.004 -16 631 -16 c 0
 271.002 -16 48 147.997 48 640 c 0
 48 1132 253.005 1296 586 1296 c 0
627 768 m 2
 555.998 768 512 730.999 512 670 c 0
 512 572.004 583.003 512 699 512 c 2
 814 512 l 1
 814 768 l 1
 627 768 l 2
EndSplineSet
Validated: 1
EndChar

StartChar: A
Encoding: 65 65 31
Width: 1024
VWidth: 0
Flags: H
LayerCount: 2
Fore
SplineSet
448 1280 m 2
 576 1280 l 2
 863.998 1280 960 0 960 0 c 1
 790 0 l 1
 790 0 780.209 107.538 761 256 c 1
 263 256 l 1
 243.791 107.538 234 0 234 0 c 1
 64 0 l 1
 64 0 160.001 1280 448 1280 c 2
512 1123 m 0
 411.259 1123 332.523 733.282 285 413 c 1
 739 413 l 1
 691.477 733.282 612.741 1123 512 1123 c 0
EndSplineSet
Validated: 1
EndChar

StartChar: B
Encoding: 66 66 32
Width: 1024
VWidth: 0
Flags: H
LayerCount: 2
Fore
SplineSet
128 1280 m 1
 384 1280 l 2
 670.996 1280 848 1189 848 946 c 0
 848 756.003 678 708 678 708 c 1
 678 708 944 642.998 944 384 c 0
 944 95.998 729.998 0 384 0 c 2
 128 0 l 1
 128 1280 l 1
298 1123 m 1
 298 768 l 1
 384 768 l 2
 566.004 768 678 837.004 678 946 c 0
 678 1055 566.001 1123 384 1123 c 2
 298 1123 l 1
298 611 m 1
 298 157 l 1
 384 157 l 2
 624.998 157 774 198.001 774 384 c 0
 774 569.999 624.996 611 384 611 c 2
 298 611 l 1
EndSplineSet
Validated: 1
EndChar

StartChar: C
Encoding: 67 67 33
Width: 1024
VWidth: 0
Flags: H
LayerCount: 2
Fore
SplineSet
665 1288 m 0
 807.997 1288 896 1272 896 1272 c 1
 896 1123 l 1
 665 1123 l 2
 433.003 1123 290 938.999 290 640 c 0
 290 278.002 432.998 157 665 157 c 2
 896 157 l 1
 896 8 l 1
 896 8 808.003 -8 665 -8 c 0
 323.004 -8 112 153.996 112 640 c 0
 112 1040 323.002 1288 665 1288 c 0
EndSplineSet
Validated: 1
EndChar

StartChar: D
Encoding: 68 68 34
Width: 1024
VWidth: 0
Flags: H
LayerCount: 2
Fore
SplineSet
128 1280 m 1
 384 1280 l 2
 730.001 1280 944 1120 944 640 c 0
 944 160.003 729.999 0 384 0 c 2
 128 0 l 1
 128 1280 l 1
298 1123 m 1
 298 157 l 1
 384 157 l 2
 620 157 766 278 766 640 c 0
 766 1002 620.004 1123 384 1123 c 2
 298 1123 l 1
EndSplineSet
Validated: 1
EndChar

StartChar: E
Encoding: 69 69 35
Width: 1024
VWidth: 0
Flags: H
LayerCount: 2
Fore
SplineSet
160 1280 m 1
 896 1280 l 1
 896 1123 l 1
 330 1123 l 1
 330 768 l 1
 832 768 l 1
 832 611 l 1
 330 611 l 1
 330 157 l 1
 896 157 l 1
 896 0 l 1
 160 0 l 1
 160 1280 l 1
EndSplineSet
Validated: 1
EndChar

StartChar: F
Encoding: 70 70 36
Width: 1024
VWidth: 0
Flags: H
LayerCount: 2
Fore
SplineSet
160 1280 m 1
 896 1280 l 1
 896 1123 l 1
 330 1123 l 1
 330 768 l 1
 864 768 l 1
 864 611 l 1
 330 611 l 1
 330 0 l 1
 160 0 l 1
 160 1280 l 1
EndSplineSet
Validated: 1
EndChar

StartChar: G
Encoding: 71 71 37
Width: 1024
VWidth: 0
Flags: H
LayerCount: 2
Fore
SplineSet
640 1288 m 0
 791.002 1288 896 1272 896 1272 c 1
 896 1123 l 1
 640 1123 l 2
 383.997 1123 258 939.002 258 640 c 0
 258 272 375.998 149 567 149 c 0
 685.002 149 758 175.999 758 256 c 2
 758 611 l 1
 512 611 l 1
 512 768 l 1
 928 768 l 1
 928 256 l 2
 928 58.0039 790 -8 567 -8 c 0
 266.002 -8 80 154.001 80 640 c 0
 80 1040 273.997 1288 640 1288 c 0
EndSplineSet
Validated: 1
EndChar

StartChar: H
Encoding: 72 72 38
Width: 1024
VWidth: 0
Flags: H
LayerCount: 2
Fore
SplineSet
96 1280 m 1
 266 1280 l 1
 266 768 l 1
 758 768 l 1
 758 1280 l 1
 928 1280 l 1
 928 0 l 1
 758 0 l 1
 758 611 l 1
 266 611 l 1
 266 0 l 1
 96 0 l 1
 96 1280 l 1
EndSplineSet
Validated: 1
EndChar

StartChar: I
Encoding: 73 73 39
Width: 1024
VWidth: 0
Flags: H
LayerCount: 2
Fore
SplineSet
160 1280 m 1
 864 1280 l 1
 864 1123 l 1
 597 1123 l 1
 597 157 l 1
 864 157 l 1
 864 0 l 1
 160 0 l 1
 160 157 l 1
 427 157 l 1
 427 1123 l 1
 160 1123 l 1
 160 1280 l 1
EndSplineSet
Validated: 1
EndChar

StartChar: J
Encoding: 74 74 40
Width: 1024
VWidth: 0
Flags: H
LayerCount: 2
Fore
SplineSet
192 1280 m 1
 832 1280 l 1
 832 526 l 2
 832 125.002 640.996 -8 332 -8 c 0
 206.004 -8 128 8 128 8 c 1
 128 157 l 1
 332 157 l 2
 536.003 157 662 249.002 662 526 c 2
 662 1123 l 1
 192 1123 l 1
 192 1280 l 1
EndSplineSet
Validated: 1
EndChar

StartChar: K
Encoding: 75 75 41
Width: 1024
VWidth: 0
Flags: H
LayerCount: 2
Fore
SplineSet
732 1280 m 1
 928 1280 l 1
 477 681 l 1
 960 0 l 1
 752 0 l 1
 298 640 l 1
 298 0 l 1
 128 0 l 1
 128 1280 l 1
 298 1280 l 1
 298 704 l 1
 732 1280 l 1
EndSplineSet
Validated: 1
EndChar

StartChar: L
Encoding: 76 76 42
Width: 1024
VWidth: 0
Flags: H
LayerCount: 2
Fore
SplineSet
160 1280 m 1
 330 1280 l 1
 330 157 l 1
 896 157 l 1
 896 0 l 1
 160 0 l 1
 160 1280 l 1
EndSplineSet
Validated: 1
EndChar

StartChar: M
Encoding: 77 77 43
Width: 1024
VWidth: 0
Flags: H
LayerCount: 2
Fore
SplineSet
64 1280 m 1
 221 1280 l 1
 512 728 l 1
 803 1280 l 1
 960 1280 l 1
 960 0 l 1
 803 0 l 1
 803 768 l 1
 817 1024 l 1
 698 768 l 1
 563 512 l 1
 461 512 l 1
 326 768 l 1
 207 1024 l 1
 221 768 l 1
 221 0 l 1
 64 0 l 1
 64 1280 l 1
EndSplineSet
Validated: 1
EndChar

StartChar: N
Encoding: 78 78 44
Width: 1024
VWidth: 0
Flags: H
LayerCount: 2
Fore
SplineSet
96 1280 m 1
 300 1280 l 1
 651 512 l 1
 762 256 l 1
 758 512 l 1
 758 1280 l 1
 928 1280 l 1
 928 0 l 1
 723 0 l 1
 373 768 l 1
 262 1024 l 1
 266 768 l 1
 266 0 l 1
 96 0 l 1
 96 1280 l 1
EndSplineSet
Validated: 1
EndChar

StartChar: O
Encoding: 79 79 45
Width: 1024
VWidth: 0
Flags: H
LayerCount: 2
Fore
SplineSet
80 640 m 0
 80 1132 245 1296 512 1296 c 0
 779 1296 944 1132 944 640 c 0
 944 148 779 -16 512 -16 c 0
 245 -16 80 148 80 640 c 0
512 1139 m 0
 355 1139 258 1014 258 640 c 0
 258 266 355 141 512 141 c 0
 669 141 766 266 766 640 c 0
 766 1014 669 1139 512 1139 c 0
EndSplineSet
EndChar

StartChar: P
Encoding: 80 80 46
Width: 1024
VWidth: 0
Flags: H
LayerCount: 2
Fore
SplineSet
160 1280 m 1
 604 1280 l 2
 813.998 1280 944 1133 944 896 c 0
 944 659.002 773.998 512 500 512 c 2
 450 512 l 1
 450 669 l 1
 500 669 l 2
 669.001 669 774 756.002 774 896 c 0
 774 1036 709.002 1123 604 1123 c 2
 330 1123 l 1
 330 0 l 1
 160 0 l 1
 160 1280 l 1
EndSplineSet
Validated: 1
EndChar

StartChar: Q
Encoding: 81 81 47
Width: 1024
VWidth: 0
Flags: H
LayerCount: 2
Fore
SplineSet
512 1296 m 0
 860 1296 976 1140 976 697 c 0
 976 292 879 131 597 106 c 1
 597 -157 l 1
 427 -157 l 1
 427 106 l 1
 145 131 48 292 48 697 c 0
 48 1140 164 1296 512 1296 c 0
512 1139 m 0
 291 1139 216 1029 218 697 c 0
 220 399 277 286 448 266 c 1
 448 697 l 1
 576 697 l 1
 576 266 l 1
 747 286 806 399 806 697 c 0
 806 1029 733 1139 512 1139 c 0
EndSplineSet
Validated: 33
EndChar

StartChar: R
Encoding: 82 82 48
Width: 1024
VWidth: 0
Flags: H
LayerCount: 2
Fore
SplineSet
128 1280 m 1
 572 1280 l 2
 782.002 1280 912 1197 912 946 c 0
 912 770.893 829.07 676.731 686 636 c 1
 960 0 l 1
 775 0 l 1
 512 611 l 1
 298 611 l 1
 298 0 l 1
 128 0 l 1
 128 1280 l 1
298 1123 m 1
 298 768 l 1
 468 768 l 2
 636.996 768 742 812.998 742 946 c 0
 742 1079 677.001 1123 572 1123 c 2
 298 1123 l 1
EndSplineSet
Validated: 1
EndChar

StartChar: S
Encoding: 83 83 49
Width: 1024
VWidth: 0
Flags: H
LayerCount: 2
Fore
SplineSet
652 1288 m 0
 802.998 1288 896 1272 896 1272 c 1
 896 1123 l 1
 652 1123 l 2
 427.997 1123 290 1077 290 939 c 0
 290 639.996 944 768.001 944 341 c 0
 944 79.002 796.001 -8 352 -8 c 0
 193.998 -8 96 8 96 8 c 1
 96 157 l 1
 352 157 l 2
 663.002 157 766 203.002 766 341 c 0
 766 640.001 112 512.002 112 939 c 0
 112 1201 317.995 1288 652 1288 c 0
EndSplineSet
Validated: 1
EndChar

StartChar: T
Encoding: 84 84 50
Width: 1024
VWidth: 0
Flags: H
LayerCount: 2
Fore
SplineSet
64 1280 m 1
 960 1280 l 1
 960 1123 l 1
 597 1123 l 1
 597 0 l 1
 427 0 l 1
 427 1123 l 1
 64 1123 l 1
 64 1280 l 1
EndSplineSet
Validated: 1
EndChar

StartChar: U
Encoding: 85 85 51
Width: 1024
VWidth: 0
Flags: H
LayerCount: 2
Fore
SplineSet
96 1280 m 1
 266 1280 l 1
 266 576 l 2
 266 250.003 326.998 141 512 141 c 0
 697.002 141 758 250.002 758 576 c 2
 758 1280 l 1
 928 1280 l 1
 928 576 l 2
 928 132 823.999 -16 512 -16 c 0
 200.001 -16 96 132.003 96 576 c 2
 96 1280 l 1
EndSplineSet
Validated: 1
EndChar

StartChar: V
Encoding: 86 86 52
Width: 1024
VWidth: 0
Flags: H
LayerCount: 2
Fore
SplineSet
32 1280 m 1
 209 1280 l 1
 482 354 l 1
 512 177 l 1
 542 354 l 1
 710 924 l 1
 789 1152 l 1
 661 1152 l 1
 661 1280 l 1
 992 1280 l 1
 614 0 l 1
 410 0 l 1
 32 1280 l 1
EndSplineSet
Validated: 1
EndChar

StartChar: W
Encoding: 87 87 53
Width: 1024
VWidth: 0
Flags: H
LayerCount: 2
Fore
SplineSet
32 1280 m 1
 189 1280 l 1
 267 245 l 1
 461 768 l 1
 563 768 l 1
 757 245 l 1
 835 1280 l 1
 992 1280 l 1
 896 0 l 1
 692 0 l 1
 512 486 l 1
 332 0 l 1
 128 0 l 1
 32 1280 l 1
EndSplineSet
Validated: 1
EndChar

StartChar: X
Encoding: 88 88 54
Width: 1024
VWidth: 0
Flags: H
LayerCount: 2
Fore
SplineSet
32 1280 m 1
 230 1280 l 1
 512 790 l 1
 794 1280 l 1
 992 1280 l 1
 611 640 l 1
 992 0 l 1
 794 0 l 1
 512 490 l 1
 230 0 l 1
 32 0 l 1
 413 640 l 1
 32 1280 l 1
EndSplineSet
Validated: 1
EndChar

StartChar: Y
Encoding: 89 89 55
Width: 1024
VWidth: 0
Flags: H
LayerCount: 2
Fore
SplineSet
32 1280 m 1
 223 1280 l 1
 512 700 l 1
 801 1280 l 1
 992 1280 l 1
 597 512 l 1
 597 0 l 1
 427 0 l 1
 427 512 l 1
 32 1280 l 1
EndSplineSet
Validated: 1
EndChar

StartChar: Z
Encoding: 90 90 56
Width: 1024
VWidth: 0
Flags: H
LayerCount: 2
Fore
SplineSet
896 1280 m 1
 896 1123 l 1
 283 157 l 1
 928 157 l 1
 928 0 l 1
 96 0 l 1
 96 157 l 1
 709 1123 l 1
 128 1123 l 1
 128 1280 l 1
 896 1280 l 1
EndSplineSet
Validated: 1
EndChar

StartChar: bracketleft
Encoding: 91 91 57
Width: 1024
VWidth: 0
Flags: H
LayerCount: 2
Fore
SplineSet
822 1280 m 1
 512 1280 l 1
 512 -99 l 1
 822 -99 l 1
 822 -256 l 1
 342 -256 l 1
 342 1437 l 1
 822 1437 l 1
 822 1280 l 1
EndSplineSet
Validated: 1
EndChar

StartChar: asciicircum
Encoding: 94 94 58
Width: 1024
VWidth: 0
Flags: H
LayerCount: 2
Fore
SplineSet
410 1280 m 1
 614 1280 l 1
 960 640 l 1
 767 640 l 1
 512 1111 l 1
 257 640 l 1
 64 640 l 1
 410 1280 l 1
EndSplineSet
Validated: 1
EndChar

StartChar: underscore
Encoding: 95 95 59
Width: 1024
VWidth: 0
Flags: H
LayerCount: 2
Fore
SplineSet
32 -99 m 1
 992 -99 l 1
 992 -256 l 1
 32 -256 l 1
 32 -99 l 1
EndSplineSet
Validated: 1
EndChar

StartChar: grave
Encoding: 96 96 60
Width: 1024
VWidth: 0
Flags: H
LayerCount: 2
Fore
SplineSet
275 1141 m 1
 395 1261 l 1
 749 891 l 1
 645 787 l 1
 275 1141 l 1
EndSplineSet
Validated: 1
EndChar

StartChar: a
Encoding: 97 97 61
Width: 1024
VWidth: 0
Flags: H
LayerCount: 2
Fore
SplineSet
416 1032 m 0
 776.001 1032 896 948.002 896 696 c 2
 896 0 l 1
 556 0 l 2
 281.996 0 112 125 112 328 c 0
 112 490.999 241.999 591 452 591 c 2
 726 591 l 1
 726 696 l 2
 726 823.995 648.996 867 416 867 c 2
 224 867 l 1
 224 1016 l 1
 224 1016 297.001 1032 416 1032 c 0
452 433 m 2
 347.002 433 282 392.998 282 328 c 0
 282 222.001 386.997 157 556 157 c 2
 726 157 l 1
 726 433 l 1
 452 433 l 2
EndSplineSet
Validated: 1
EndChar

StartChar: b
Encoding: 98 98 62
Width: 1024
VWidth: 0
Flags: H
LayerCount: 2
Fore
SplineSet
298 1280 m 1
 298 925 l 1
 572 925 l 2
 782.002 925 912 776.004 912 535 c 0
 912 203.997 742.002 0 468 0 c 2
 128 0 l 1
 128 1280 l 1
 298 1280 l 1
572 768 m 2
 298 768 l 1
 298 157 l 1
 468 157 l 2
 636.999 157 742 301.002 742 535 c 0
 742 678.999 677.003 768 572 768 c 2
EndSplineSet
Validated: 1
EndChar

StartChar: c
Encoding: 99 99 63
Width: 1024
VWidth: 0
Flags: H
LayerCount: 2
Fore
SplineSet
642 1032 m 0
 779.003 1032 864 1016 864 1016 c 1
 864 867 l 1
 642 867 l 2
 419.995 867 282 731.001 282 512 c 0
 282 246 420 157 642 157 c 2
 864 157 l 1
 864 8 l 1
 864 8 779 -8 642 -8 c 0
 325.997 -8 112 122.004 112 512 c 0
 112 833.003 326 1032 642 1032 c 0
EndSplineSet
Validated: 1
EndChar

StartChar: d
Encoding: 100 100 64
Width: 1024
VWidth: 0
Flags: H
LayerCount: 2
Fore
SplineSet
896 0 m 1
 452 0 l 2
 241.997 0 112 149.002 112 390 c 0
 112 721 281.996 925 556 925 c 2
 726 925 l 1
 726 1280 l 1
 896 1280 l 1
 896 0 l 1
726 157 m 1
 726 768 l 1
 556 768 l 2
 386.998 768 282 623.997 282 390 c 0
 282 246.001 346.997 157 452 157 c 2
 726 157 l 1
EndSplineSet
Validated: 1
EndChar

StartChar: e
Encoding: 101 101 65
Width: 1024
VWidth: 0
Flags: H
LayerCount: 2
Fore
SplineSet
610 -8 m 0
 281.998 -8 80 191.002 80 512 c 0
 80 837.995 245.004 1040 512 1040 c 0
 778.996 1040 936 911.001 936 702 c 0
 936 536.002 920 433 920 433 c 1
 258 433 l 1
 258 433 257.997 157 610 157 c 2
 832 157 l 1
 832 8 l 1
 832 8 747.004 -8 610 -8 c 0
766 591 m 1
 766 702 l 2
 766 813.996 669.001 883 512 883 c 0
 258.003 883 258 591 258 591 c 1
 766 591 l 1
EndSplineSet
Validated: 1
EndChar

StartChar: f
Encoding: 102 102 66
Width: 1024
VWidth: 0
Flags: H
LayerCount: 2
Fore
SplineSet
928 1272 m 1
 928 1123 l 1
 769 1123 l 2
 576 1123 512 1054 512 847 c 1
 928 847 l 1
 928 689 l 1
 512 689 l 1
 512 0 l 1
 342 0 l 1
 342 689 l 1
 96 689 l 1
 96 847 l 1
 342 847 l 1
 342 1178 449 1288 769 1288 c 0
 867 1288 928 1272 928 1272 c 1
EndSplineSet
Validated: 1
EndChar

StartChar: g
Encoding: 103 103 67
Width: 1024
VWidth: 0
Flags: H
LayerCount: 2
Fore
SplineSet
556 1024 m 2
 640 1024 l 2
 832.002 1024 896 959.997 896 768 c 2
 896 120 l 2
 896 -162.003 712.996 -264 416 -264 c 0
 296.995 -264 224 -248 224 -248 c 1
 224 -99 l 1
 416 -99 l 2
 607.995 -99 726 -43.9961 726 120 c 2
 726 256 l 1
 452 256 l 2
 242.002 256 112 380.004 112 581 c 0
 112 855.003 281.996 1024 556 1024 c 2
556 867 m 2
 387.004 867 282 758.003 282 581 c 0
 282 477.002 347.002 413 452 413 c 2
 726 413 l 1
 726 768 l 2
 726 829 692.999 867 640 867 c 2
 556 867 l 2
EndSplineSet
Validated: 1
EndChar

StartChar: h
Encoding: 104 104 68
Width: 1024
VWidth: 0
Flags: H
LayerCount: 2
Fore
SplineSet
896 0 m 1
 726 0 l 1
 726 576 l 2
 726 719.998 643.999 768 512 768 c 2
 298 768 l 1
 298 0 l 1
 128 0 l 1
 128 1280 l 1
 298 1280 l 1
 298 917 l 1
 298 917 379.998 933 512 933 c 0
 749.001 933 896 843.995 896 576 c 2
 896 0 l 1
EndSplineSet
Validated: 1
EndChar

StartChar: i
Encoding: 105 105 69
Width: 1024
VWidth: 0
Flags: H
LayerCount: 2
Fore
SplineSet
354 1365 m 1
 629 1365 l 1
 629 1195 l 1
 354 1195 l 1
 354 1365 l 1
160 925 m 1
 597 925 l 1
 597 157 l 1
 896 157 l 1
 896 0 l 1
 128 0 l 1
 128 157 l 1
 427 157 l 1
 427 768 l 1
 160 768 l 1
 160 925 l 1
EndSplineSet
Validated: 1
EndChar

StartChar: j
Encoding: 106 106 70
Width: 1024
VWidth: 0
Flags: H
LayerCount: 2
Fore
SplineSet
557 1365 m 1
 832 1365 l 1
 832 1195 l 1
 557 1195 l 1
 557 1365 l 1
192 925 m 1
 800 925 l 1
 800 120 l 2
 800 -167.996 617.003 -264 320 -264 c 0
 201.001 -264 128 -248 128 -248 c 1
 128 -99 l 1
 320 -99 l 2
 512 -99 630 -44 630 120 c 2
 630 768 l 1
 192 768 l 1
 192 925 l 1
EndSplineSet
Validated: 1
EndChar

StartChar: k
Encoding: 107 107 71
Width: 1024
VWidth: 0
Flags: H
LayerCount: 2
Fore
SplineSet
790 1024 m 1
 896 918 l 1
 497 620 l 1
 960 0 l 1
 764 0 l 1
 298 624 l 1
 298 0 l 1
 128 0 l 1
 128 1280 l 1
 298 1280 l 1
 298 656 l 1
 790 1024 l 1
EndSplineSet
Validated: 1
EndChar

StartChar: l
Encoding: 108 108 72
Width: 1024
VWidth: 0
Flags: H
LayerCount: 2
Fore
SplineSet
160 1280 m 1
 597 1280 l 1
 597 157 l 1
 896 157 l 1
 896 0 l 1
 128 0 l 1
 128 157 l 1
 427 157 l 1
 427 1123 l 1
 160 1123 l 1
 160 1280 l 1
EndSplineSet
Validated: 1
EndChar

StartChar: m
Encoding: 109 109 73
Width: 1024
VWidth: 0
Flags: H
LayerCount: 2
Fore
SplineSet
327 1032 m 0
 472.002 1032 520 963 520 963 c 1
 520 963 588.004 1032 697 1032 c 0
 859.998 1032 960 936.002 960 768 c 2
 960 0 l 1
 803 0 l 1
 803 768 l 2
 803 845.996 763.003 894 697 894 c 0
 630.997 894 591 846 591 846 c 1
 591 0 l 1
 433 0 l 1
 433 768 l 2
 433.609 846 393 894 327 894 c 0
 261 894 221 846 221 846 c 1
 221 0 l 1
 64 0 l 1
 64 936 l 1
 64 936 164.003 1032 327 1032 c 0
EndSplineSet
Validated: 33
EndChar

StartChar: n
Encoding: 110 110 74
Width: 1024
VWidth: 0
Flags: H
LayerCount: 2
Fore
SplineSet
896 0 m 1
 726 0 l 1
 726 658 l 2
 726 827.002 643.997 883 512 883 c 0
 380.003 883 298 839 298 839 c 1
 298 0 l 1
 128 0 l 1
 128 936 l 1
 128 936 275.001 1040 512 1040 c 0
 748.999 1040 896 945 896 658 c 2
 896 0 l 1
EndSplineSet
Validated: 1
EndChar

StartChar: o
Encoding: 111 111 75
Width: 1024
VWidth: 0
Flags: H
LayerCount: 2
Fore
SplineSet
80 512 m 0
 80 907.995 245.004 1040 512 1040 c 0
 778.996 1040 944 908.001 944 512 c 0
 944 115.999 779.004 -16 512 -16 c 0
 244.996 -16 80 116.005 80 512 c 0
512 883 m 0
 350.003 883 250 789.998 250 512 c 0
 250 234.002 350.001 141 512 141 c 0
 673.999 141 774 234 774 512 c 0
 774 790 673.997 883 512 883 c 0
EndSplineSet
Validated: 1
EndChar

StartChar: p
Encoding: 112 112 76
Width: 1024
VWidth: 0
Flags: H
LayerCount: 2
Fore
SplineSet
384 1024 m 2
 572 1024 l 2
 782.001 1024 912 897.998 912 694 c 0
 912 419.999 741.996 256 468 256 c 2
 298 256 l 1
 298 -256 l 1
 128 -256 l 1
 128 768 l 2
 128 960 192 1024 384 1024 c 2
384 867 m 2
 331.002 867 298 829 298 768 c 2
 298 413 l 1
 468 413 l 2
 636.996 413 742 520.001 742 694 c 0
 742 801.002 676.996 867 572 867 c 2
 384 867 l 2
EndSplineSet
Validated: 1
EndChar

StartChar: q
Encoding: 113 113 77
Width: 1024
VWidth: 0
Flags: H
LayerCount: 2
Fore
SplineSet
556 1024 m 2
 640 1024 l 2
 832.002 1024 896 959.997 896 768 c 2
 896 -256 l 1
 726 -256 l 1
 726 256 l 1
 452 256 l 2
 242.002 256 112 380.004 112 581 c 0
 112 855.003 281.996 1024 556 1024 c 2
556 867 m 2
 387.004 867 282 758.003 282 581 c 0
 282 477.002 347.002 413 452 413 c 2
 726 413 l 1
 726 768 l 2
 726 829 692.999 867 640 867 c 2
 556 867 l 2
EndSplineSet
Validated: 1
EndChar

StartChar: r
Encoding: 114 114 78
Width: 1024
VWidth: 0
Flags: H
LayerCount: 2
Fore
SplineSet
928 658 m 1
 758 658 l 1
 758 827.002 675.997 883 544 883 c 0
 412.003 883 330 839 330 839 c 1
 330 0 l 1
 160 0 l 1
 160 936 l 1
 160 936 307.001 1040 544 1040 c 0
 780.999 1040 928 945 928 658 c 1
EndSplineSet
Validated: 1
EndChar

StartChar: s
Encoding: 115 115 79
Width: 1024
VWidth: 0
Flags: H
LayerCount: 2
Fore
SplineSet
634 1032 m 0
 755.997 1032 832 1016 832 1016 c 1
 832 867 l 1
 634 867 l 2
 436.003 867 314 832.999 314 731 c 0
 314 511.997 880 639.998 880 292 c 0
 880 65.999 685.001 -8 370 -8 c 0
 239.995 -8 160 8 160 8 c 1
 160 157 l 1
 370 157 l 2
 580 157 710 190.005 710 292 c 0
 710 512 144 384.003 144 731 c 0
 144 957 330.996 1032 634 1032 c 0
EndSplineSet
Validated: 1
EndChar

StartChar: t
Encoding: 116 116 80
Width: 1024
VWidth: 0
Flags: H
LayerCount: 2
Fore
SplineSet
864 8 m 1
 864 8 803 -8 704 -8 c 0
 480 -8 342 72 342 314 c 2
 342 768 l 1
 64 768 l 1
 64 925 l 1
 342 925 l 1
 342 1280 l 1
 512 1280 l 1
 512 925 l 1
 928 925 l 1
 928 768 l 1
 512 768 l 1
 512 314 l 2
 512 196 585 157 704 157 c 2
 864 157 l 1
 864 8 l 1
EndSplineSet
Validated: 1
EndChar

StartChar: u
Encoding: 117 117 81
Width: 1024
VWidth: 0
Flags: H
LayerCount: 2
Fore
SplineSet
128 1024 m 1
 298 1024 l 1
 298 366 l 2
 298 196.998 380.003 141 512 141 c 0
 643.997 141 726 185 726 185 c 1
 726 1024 l 1
 896 1024 l 1
 896 88 l 1
 896 88 748.999 -16 512 -16 c 0
 275.001 -16 128 79 128 366 c 2
 128 1024 l 1
EndSplineSet
Validated: 1
EndChar

StartChar: v
Encoding: 118 118 82
Width: 1024
VWidth: 0
Flags: H
LayerCount: 2
Fore
SplineSet
64 1024 m 1
 243 1024 l 1
 469 354 l 1
 512 177 l 1
 555 354 l 1
 781 1024 l 1
 960 1024 l 1
 614 0 l 1
 410 0 l 1
 64 1024 l 1
EndSplineSet
Validated: 1
EndChar

StartChar: w
Encoding: 119 119 83
Width: 1024
VWidth: 0
Flags: H
LayerCount: 2
Fore
SplineSet
32 1024 m 1
 190 1024 l 1
 270 354 l 1
 286 177 l 1
 328 354 l 1
 461 768 l 1
 563 768 l 1
 696 354 l 1
 738 177 l 1
 754 354 l 1
 834 1024 l 1
 992 1024 l 1
 870 0 l 1
 666 0 l 1
 512 536 l 1
 358 0 l 1
 154 0 l 1
 32 1024 l 1
EndSplineSet
Validated: 1
EndChar

StartChar: x
Encoding: 120 120 84
Width: 1024
VWidth: 0
Flags: H
LayerCount: 2
Fore
SplineSet
64 1024 m 1
 269 1024 l 1
 512 640 l 1
 755 1024 l 1
 960 1024 l 1
 615 512 l 1
 960 0 l 1
 755 0 l 1
 512 384 l 1
 269 0 l 1
 64 0 l 1
 409 512 l 1
 64 1024 l 1
EndSplineSet
Validated: 1
EndChar

StartChar: y
Encoding: 121 121 85
Width: 1024
VWidth: 0
Flags: H
LayerCount: 2
Fore
SplineSet
128 1024 m 1
 298 1024 l 1
 298 566 l 2
 298 471.003 380.003 413 512 413 c 2
 726 413 l 1
 726 1024 l 1
 896 1024 l 1
 896 120 l 2
 896 -168.004 712.995 -264 416 -264 c 0
 297 -264 224 -248 224 -248 c 1
 224 -99 l 1
 416 -99 l 2
 608.004 -99 726 -44.0029 726 120 c 2
 726 264 l 1
 726 264 643.997 248 512 248 c 0
 275.002 248 128 368.998 128 566 c 2
 128 1024 l 1
EndSplineSet
Validated: 1
EndChar

StartChar: z
Encoding: 122 122 86
Width: 1024
VWidth: 0
Flags: H
LayerCount: 2
Fore
SplineSet
160 1024 m 1
 864 1024 l 1
 864 867 l 1
 325 157 l 1
 896 157 l 1
 896 0 l 1
 128 0 l 1
 128 157 l 1
 667 867 l 1
 160 867 l 1
 160 1024 l 1
EndSplineSet
Validated: 1
EndChar

StartChar: braceleft
Encoding: 123 123 87
Width: 1024
VWidth: 0
Flags: H
LayerCount: 2
Fore
SplineSet
822 1280 m 1
 704 1280 l 2
 584.999 1280 512 1207 512 1088 c 1
 528 669 l 1
 382 653 l 1
 382 528 l 1
 528 512 l 1
 512 93 l 2
 507.459 -25.9121 584.997 -99 704 -99 c 2
 822 -99 l 1
 822 -256 l 1
 704 -256 l 2
 479.997 -256 342 -123.002 342 93 c 1
 382 512 l 1
 64 512 l 1
 64 669 l 1
 382 669 l 1
 342 1088 l 2
 321.473 1303.02 480.004 1437 704 1437 c 2
 822 1437 l 1
 822 1280 l 1
EndSplineSet
Validated: 33
EndChar

StartChar: bar
Encoding: 124 124 88
Width: 1024
VWidth: 0
Flags: H
LayerCount: 2
Fore
SplineSet
597 -256 m 1
 427 -256 l 1
 427 1437 l 1
 597 1437 l 1
 597 -256 l 1
EndSplineSet
Validated: 1
EndChar

StartChar: asciitilde
Encoding: 126 126 89
Width: 1024
VWidth: 0
Flags: H
LayerCount: 2
Fore
SplineSet
64 379 m 1
 64 781.995 128.998 917 325 917 c 0
 683.002 917 511.999 500 683 500 c 0
 781.003 500 814 600.005 814 901 c 1
 960 901 l 1
 960 497.996 894.996 364 699 364 c 0
 340.999 364 511.999 781 341 781 c 0
 243.002 781 210 679.998 210 379 c 1
 64 379 l 1
EndSplineSet
Validated: 1
EndChar

StartChar: .notdef
Encoding: 65536 -1 90
Width: 1024
VWidth: 0
Flags: H
LayerCount: 2
Fore
SplineSet
320 1280 m 2
 433 1280 l 1
 433 1152 l 1
 320 1152 l 2
 249.309 1152 192 1094.69 192 1024 c 2
 192 768 l 1
 64 768 l 1
 64 1024 l 2
 64 1165.38 178.618 1280 320 1280 c 2
591 1280 m 1
 704 1280 l 2
 845.382 1280 960 1165.38 960 1024 c 2
 960 768 l 1
 832 768 l 1
 832 1024 l 2
 832 1094.69 774.691 1152 704 1152 c 2
 591 1152 l 1
 591 1280 l 1
64 512 m 1
 192 512 l 1
 192 256 l 2
 192 185.309 249.314 128 320 128 c 2
 433 128 l 1
 433 0 l 1
 320 0 l 2
 178.618 0 64 114.618 64 256 c 2
 64 512 l 1
832 512 m 1
 960 512 l 1
 960 256 l 2
 960 114.618 845.382 0 704 0 c 2
 591 0 l 1
 591 128 l 1
 704 128 l 2
 774.686 128 832 185.309 832 256 c 2
 832 512 l 1
EndSplineSet
Validated: 1
EndChar

StartChar: agave.Aduck
Encoding: 65537 -1 91
Width: 1024
VWidth: 0
Flags: H
LayerCount: 2
Fore
SplineSet
448 1152 m 2
 576 1152 l 2
 863.998 1152 960 0 960 0 c 1
 790 0 l 1
 790 0 777.99 109.6 756 256 c 1
 268 256 l 1
 246.01 109.6 234 0 234 0 c 1
 64 0 l 1
 64 0 160.001 1152 448 1152 c 2
512 995 m 0
 416.772 995 341.105 686.463 293 413 c 1
 731 413 l 1
 682.895 686.463 607.228 995 512 995 c 0
EndSplineSet
Validated: 1
EndChar

StartChar: agave.Educk
Encoding: 65538 -1 92
Width: 1024
VWidth: 0
Flags: H
LayerCount: 2
Fore
SplineSet
160 1152 m 1
 896 1152 l 1
 896 995 l 1
 330 995 l 1
 330 669 l 1
 832 669 l 1
 832 512 l 1
 330 512 l 1
 330 157 l 1
 896 157 l 1
 896 0 l 1
 160 0 l 1
 160 1152 l 1
EndSplineSet
Validated: 1
EndChar

StartChar: agave.Iduck
Encoding: 65539 -1 93
Width: 1024
VWidth: 0
Flags: H
LayerCount: 2
Fore
SplineSet
160 1152 m 1
 864 1152 l 1
 864 995 l 1
 597 995 l 1
 597 157 l 1
 864 157 l 1
 864 0 l 1
 160 0 l 1
 160 157 l 1
 427 157 l 1
 427 995 l 1
 160 995 l 1
 160 1152 l 1
EndSplineSet
Validated: 1
EndChar

StartChar: agave.Oduck
Encoding: 65540 -1 94
Width: 1024
VWidth: 0
Flags: H
LayerCount: 2
Fore
SplineSet
48 576 m 0
 48 1020 224.996 1168 512 1168 c 0
 799.004 1168 976 1020 976 576 c 0
 976 132.002 799 -16 512 -16 c 0
 225 -16 48 131.998 48 576 c 0
512 1011 m 0
 330.004 1011 218 901.995 218 576 c 0
 218 250.005 329.998 141 512 141 c 0
 694.002 141 806 249.999 806 576 c 0
 806 902.001 693.996 1011 512 1011 c 0
EndSplineSet
Validated: 1
EndChar

StartChar: agave.Uduck
Encoding: 65541 -1 95
Width: 1024
VWidth: 0
Flags: H
LayerCount: 2
Fore
SplineSet
96 1152 m 1
 266 1152 l 1
 266 527 l 2
 266 237.004 326.998 141 512 141 c 0
 697.002 141 758 236.996 758 527 c 2
 758 1152 l 1
 928 1152 l 1
 928 527 l 2
 928 119.999 823.999 -16 512 -16 c 0
 200.001 -16 96 120.005 96 527 c 2
 96 1152 l 1
EndSplineSet
Validated: 1
EndChar

StartChar: agave.Sduck
Encoding: 65542 -1 96
Width: 1024
VWidth: 0
Flags: H
LayerCount: 2
Fore
SplineSet
652 1160 m 0
 802.998 1160 896 1144 896 1144 c 1
 896 995 l 1
 652 995 l 2
 427.997 995 290 973.004 290 835 c 0
 290 575.996 944 706.002 944 317 c 0
 944 55.002 796.001 -8 352 -8 c 0
 193.998 -8 96 8 96 8 c 1
 96 157 l 1
 352 157 l 2
 663.002 157 766 179.002 766 317 c 0
 766 575.997 112 445.997 112 835 c 0
 112 1097 317.995 1160 652 1160 c 0
EndSplineSet
Validated: 1
EndChar

StartChar: backslash
Encoding: 92 92 99
Width: 1024
VWidth: 0
Flags: HW
LayerCount: 2
Fore
SplineSet
711 -99 m 1
 128 1280 l 1
 313 1280 l 1
 896 -99 l 1
 711 -99 l 1
EndSplineSet
Validated: 1
EndChar

StartChar: cent
Encoding: 162 162 103
Width: 1024
VWidth: 0
Flags: H
LayerCount: 2
Fore
SplineSet
512 1280 m 1
 682 1280 l 1
 682 1031 l 1
 794 1031 864 1016 864 1016 c 1
 864 867 l 1
 661 867 l 1
 661 413 l 1
 864 413 l 1
 864 264 l 1
 864 264 794 248 682 248 c 1
 682 0 l 1
 512 0 l 1
 512 254 l 1
 269 280 112 388 112 640 c 0
 112 847 269 987 512 1023 c 1
 512 1280 l 1
533 859 m 1
 376 835 282 755 282 640 c 0
 282 500 376 437 533 419 c 1
 533 859 l 1
EndSplineSet
Validated: 1
EndChar

StartChar: sterling
Encoding: 163 163 104
Width: 1024
VWidth: 0
Flags: H
LayerCount: 2
Fore
SplineSet
618 1288 m 0
 810 1288 928 1136 928 1136 c 1
 832 1024 l 1
 832 1024 750 1131 618 1131 c 0
 486 1131 404 1049 404 917 c 2
 404 718 l 1
 832 718 l 1
 832 562 l 1
 404 562 l 1
 404 157 l 1
 928 157 l 1
 928 0 l 1
 64 0 l 1
 64 157 l 1
 234 157 l 1
 234 562 l 1
 64 562 l 1
 64 718 l 1
 234 718 l 1
 234 917 l 2
 234 1146 381 1288 618 1288 c 0
EndSplineSet
Validated: 1
EndChar

StartChar: currency
Encoding: 164 164 105
Width: 1024
VWidth: 0
Flags: H
LayerCount: 2
Fore
SplineSet
196 1248 m 1
 349 999 l 1
 396 1021 451 1032 512 1032 c 0
 573 1032 628 1021 675 999 c 1
 828 1248 l 1
 960 1164 l 1
 791 908 l 1
 843 841 872 750 872 640 c 0
 872 530 843 439 791 372 c 1
 960 116 l 1
 828 32 l 1
 675 281 l 1
 628 259 573 248 512 248 c 0
 451 248 396 259 349 281 c 1
 196 32 l 1
 64 116 l 1
 233 372 l 1
 181 439 152 530 152 640 c 0
 152 750 181 841 233 908 c 1
 64 1164 l 1
 196 1248 l 1
512 886 m 0
 387 886 309 792 309 640 c 0
 309 488 387 394 512 394 c 0
 637 394 715 488 715 640 c 0
 715 792 637 886 512 886 c 0
EndSplineSet
Validated: 1
EndChar

StartChar: yen
Encoding: 165 165 106
Width: 1024
VWidth: 0
Flags: H
LayerCount: 2
Fore
SplineSet
32 1280 m 1
 223 1280 l 1
 512 700 l 1
 801 1280 l 1
 992 1280 l 1
 597 512 l 1
 597 413 l 1
 896 413 l 1
 896 256 l 1
 597 256 l 1
 597 0 l 1
 427 0 l 1
 427 256 l 1
 128 256 l 1
 128 413 l 1
 427 413 l 1
 427 512 l 1
 32 1280 l 1
EndSplineSet
Validated: 1
EndChar

StartChar: brokenbar
Encoding: 166 166 107
Width: 1024
VWidth: 0
Flags: H
LayerCount: 2
Fore
SplineSet
427 1437 m 1
 597 1437 l 1
 597 733 l 1
 427 733 l 1
 427 1437 l 1
427 448 m 1
 597 448 l 1
 597 -256 l 1
 427 -256 l 1
 427 448 l 1
EndSplineSet
Validated: 1
EndChar

StartChar: section
Encoding: 167 167 108
Width: 1024
VWidth: 0
Flags: H
LayerCount: 2
Fore
SplineSet
661 1288 m 0
 786 1288 864 1272 864 1272 c 1
 864 1142 l 1
 661 1142 l 2
 458 1142 333 1097 333 960 c 0
 333 768 912 896 912 477 c 0
 912 363 873 271 803 208 c 1
 803 208 848 153 848 64 c 0
 848 -182 663 -264 363 -264 c 0
 238 -264 160 -248 160 -248 c 1
 160 -118 l 1
 363 -118 l 2
 566 -118 691 -73 691 64 c 0
 691 256 112 128 112 547 c 0
 112 661 151 753 221 816 c 1
 221 816 176 871 176 960 c 0
 176 1206 361 1288 661 1288 c 0
356 726 m 1
 300 688 269 627 269 547 c 0
 269 364 498 363 668 298 c 1
 724 336 755 397 755 477 c 0
 755 660 526 661 356 726 c 1
EndSplineSet
Validated: 1
EndChar

StartChar: copyright
Encoding: 169 169 109
Width: 1024
VWidth: 0
Flags: H
LayerCount: 2
Fore
SplineSet
512 1296 m 0
 809 1296 992 1073 992 712 c 0
 992 351 809 128 512 128 c 0
 215 128 32 351 32 712 c 0
 32 1073 215 1296 512 1296 c 0
512 1168 m 0
 299 1168 168 994 168 712 c 0
 168 430 299 256 512 256 c 0
 725 256 856 430 856 712 c 0
 856 994 725 1168 512 1168 c 0
572 976 m 0
 654 976 704 944 704 944 c 1
 704 840 l 1
 572 840 l 1
 490 844 440 791 440 712 c 0
 440 633 490 584 572 584 c 2
 704 584 l 1
 704 480 l 1
 704 480 654 448 572 448 c 0
 406 448 304 549 304 712 c 0
 304 875 406 976 572 976 c 0
EndSplineSet
Validated: 33
EndChar

StartChar: ordfeminine
Encoding: 170 170 110
Width: 1024
VWidth: 0
Flags: H
LayerCount: 2
Fore
SplineSet
408 1284 m 0
 702 1284 800 1222 800 1034 c 2
 800 512 l 1
 539 512 l 2
 334 512 216 606 216 759 c 0
 216 886 313 964 469 964 c 2
 654 964 l 1
 654 1034 l 2
 654 1120 593 1148 408 1148 c 2
 256 1148 l 1
 256 1276 l 1
 256 1276 314 1284 408 1284 c 0
469 828 m 2
 403 828 362 802 362 759 c 0
 362 690 425 648 539 648 c 2
 654 648 l 1
 654 828 l 1
 469 828 l 2
224 392 m 1
 800 392 l 1
 800 256 l 1
 224 256 l 1
 224 392 l 1
EndSplineSet
Validated: 1
EndChar

StartChar: guillemotleft
Encoding: 171 171 111
Width: 1024
VWidth: 0
Flags: H
LayerCount: 2
Fore
SplineSet
390 1102 m 1
 513 1024 l 1
 269 640 l 1
 513 256 l 1
 390 178 l 1
 96 640 l 1
 390 1102 l 1
805 1102 m 1
 928 1024 l 1
 684 640 l 1
 928 256 l 1
 805 178 l 1
 511 640 l 1
 805 1102 l 1
EndSplineSet
Validated: 1
EndChar

StartChar: logicalnot
Encoding: 172 172 112
Width: 1024
VWidth: 0
Flags: H
LayerCount: 2
Fore
SplineSet
128 719 m 1
 896 719 l 1
 896 256 l 1
 739 256 l 1
 739 561 l 1
 128 561 l 1
 128 719 l 1
EndSplineSet
Validated: 1
EndChar

StartChar: registered
Encoding: 174 174 116
Width: 1024
VWidth: 0
Flags: H
LayerCount: 2
Fore
SplineSet
512 1296 m 0
 809 1296 992 1073 992 712 c 0
 992 351 809 128 512 128 c 0
 215 128 32 351 32 712 c 0
 32 1073 215 1296 512 1296 c 0
512 1168 m 0
 299 1168 168 994 168 712 c 0
 168 430 299 256 512 256 c 0
 725 256 856 430 856 712 c 0
 856 994 725 1168 512 1168 c 0
288 1025 m 1
 543 1025 l 2
 672 1025 752 947 752 821 c 0
 752 754 714 704 646 675 c 1
 752 399 l 1
 616 399 l 1
 519 649 l 1
 424 649 l 1
 424 399 l 1
 288 399 l 1
 288 1025 l 1
424 905 m 1
 424 769 l 1
 497 769 l 2
 571 769 616 789 616 821 c 0
 616 873 588 905 543 905 c 2
 424 905 l 1
EndSplineSet
Validated: 1
EndChar

StartChar: degree
Encoding: 176 176 117
Width: 1024
VWidth: 0
Flags: H
LayerCount: 2
Fore
SplineSet
248 1024 m 0
 248 1170 366 1288 512 1288 c 0
 658 1288 776 1170 776 1024 c 0
 776 878 658 760 512 760 c 0
 366 760 248 878 248 1024 c 0
512 1152 m 0
 441 1152 384 1095 384 1024 c 0
 384 953 441 896 512 896 c 0
 583 896 640 953 640 1024 c 0
 640 1095 583 1152 512 1152 c 0
EndSplineSet
Validated: 1
EndChar

StartChar: plusminus
Encoding: 177 177 118
Width: 1024
VWidth: 0
Flags: H
LayerCount: 2
Fore
SplineSet
434 1213 m 1
 590 1213 l 1
 590 876 l 1
 928 876 l 1
 928 719 l 1
 590 719 l 1
 590 381 l 1
 434 381 l 1
 434 719 l 1
 96 719 l 1
 96 876 l 1
 434 876 l 1
 434 1213 l 1
128 256 m 1
 896 256 l 1
 896 99 l 1
 128 99 l 1
 128 256 l 1
EndSplineSet
Validated: 1
EndChar

StartChar: acute
Encoding: 180 180 119
Width: 1024
VWidth: 0
Flags: H
LayerCount: 2
Fore
SplineSet
749 1141 m 1
 379 787 l 1
 275 891 l 1
 629 1261 l 1
 749 1141 l 1
EndSplineSet
Validated: 1
EndChar

StartChar: paragraph
Encoding: 182 182 120
Width: 1024
VWidth: 0
Flags: H
LayerCount: 2
Fore
SplineSet
384 1280 m 2
 832 1280 l 1
 832 0 l 1
 704 0 l 1
 704 1152 l 1
 512 1152 l 1
 512 0 l 1
 384 0 l 1
 384 640 l 1
 190 640 80 762 80 960 c 0
 80 1158 187 1280 384 1280 c 2
EndSplineSet
Validated: 1
EndChar

StartChar: periodcentered
Encoding: 183 183 121
Width: 1024
VWidth: 0
Flags: H
LayerCount: 2
Fore
SplineSet
683 640 m 0
 683 546 606 469 512 469 c 0
 418 469 341 546 341 640 c 0
 341 734 418 811 512 811 c 0
 606 811 683 734 683 640 c 0
EndSplineSet
Validated: 1
EndChar

StartChar: ordmasculine
Encoding: 186 186 123
Width: 1024
VWidth: 0
Flags: H
LayerCount: 2
Fore
SplineSet
512 1288 m 0
 705 1288 824 1196 824 896 c 0
 824 596 705 504 512 504 c 0
 319 504 200 596 200 896 c 0
 200 1196 319 1288 512 1288 c 0
512 1152 m 0
 409 1152 346 1094 346 896 c 0
 346 698 409 640 512 640 c 0
 615 640 678 698 678 896 c 0
 678 1094 615 1152 512 1152 c 0
224 392 m 1
 800 392 l 1
 800 256 l 1
 224 256 l 1
 224 392 l 1
EndSplineSet
Validated: 1
EndChar

StartChar: onequarter
Encoding: 188 188 125
Width: 1024
VWidth: 0
Flags: H
LayerCount: 2
Fore
SplineSet
208 1280 m 1
 344 1280 l 1
 344 640 l 1
 208 640 l 1
 208 1099 l 1
 123 1014 l 1
 32 1104 l 1
 208 1280 l 1
803 1280 m 1
 960 1280 l 1
 221 0 l 1
 64 0 l 1
 803 1280 l 1
702 640 m 1
 916 640 l 1
 916 256 l 1
 992 256 l 1
 992 128 l 1
 916 128 l 1
 916 0 l 1
 780 0 l 1
 780 128 l 1
 480 128 l 1
 480 256 l 1
 702 640 l 1
780 540 m 1
 616 256 l 1
 780 256 l 1
 780 540 l 1
EndSplineSet
Validated: 1
EndChar

StartChar: onehalf
Encoding: 189 189 126
Width: 1024
VWidth: 0
Flags: H
LayerCount: 2
Fore
SplineSet
208 1280 m 1
 344 1280 l 1
 344 640 l 1
 208 640 l 1
 208 1099 l 1
 123 1014 l 1
 32 1104 l 1
 208 1280 l 1
803 1280 m 1
 960 1280 l 1
 221 0 l 1
 64 0 l 1
 803 1280 l 1
784 648 m 0
 913 648 992 572 992 448 c 0
 992 402 992 374 874 256 c 2
 746 128 l 1
 992 128 l 1
 992 0 l 1
 576 0 l 1
 576 128 l 1
 789 341 l 2
 864 416 864 428 864 448 c 0
 864 492 833 520 784 520 c 0
 735 520 704 492 704 448 c 1
 576 448 l 1
 576 572 655 648 784 648 c 0
EndSplineSet
Validated: 1
EndChar

StartChar: threequarters
Encoding: 190 190 127
Width: 1024
VWidth: 0
Flags: H
LayerCount: 2
Fore
SplineSet
64 1280 m 1
 153 1280 l 2
 325 1280 432 1233 432 1092 c 0
 432 1006 312 978 312 978 c 1
 312 978 448 942 448 832 c 0
 448 688 330 640 139 640 c 2
 32 640 l 1
 32 760 l 1
 139 760 l 2
 246 760 312 778 312 832 c 0
 312 886 268 904 198 904 c 2
 128 904 l 1
 128 1024 l 1
 192 1024 l 2
 256 1024 296 1041 296 1092 c 0
 296 1143 241 1160 153 1160 c 2
 64 1160 l 1
 64 1280 l 1
803 1280 m 1
 960 1280 l 1
 221 0 l 1
 64 0 l 1
 803 1280 l 1
702 640 m 1
 916 640 l 1
 916 256 l 1
 992 256 l 1
 992 128 l 1
 916 128 l 1
 916 0 l 1
 780 0 l 1
 780 128 l 1
 480 128 l 1
 480 256 l 1
 702 640 l 1
780 540 m 1
 616 256 l 1
 780 256 l 1
 780 540 l 1
EndSplineSet
Validated: 1
EndChar

StartChar: uni0308
Encoding: 776 776 128
Width: 1024
VWidth: 0
Flags: H
LayerCount: 2
Fore
SplineSet
304 1392 m 0
 366 1392 416 1342 416 1280 c 0
 416 1218 366 1168 304 1168 c 0
 242 1168 192 1218 192 1280 c 0
 192 1342 242 1392 304 1392 c 0
720 1392 m 0
 782 1392 832 1342 832 1280 c 0
 832 1218 782 1168 720 1168 c 0
 658 1168 608 1218 608 1280 c 0
 608 1342 658 1392 720 1392 c 0
EndSplineSet
Validated: 1
EndChar

StartChar: uni0304
Encoding: 772 772 130
Width: 1024
VWidth: 0
Flags: H
LayerCount: 2
Fore
SplineSet
224 1344 m 1
 800 1344 l 1
 800 1216 l 1
 224 1216 l 1
 224 1344 l 1
EndSplineSet
Validated: 1
EndChar

StartChar: uni0327
Encoding: 807 807 132
Width: 1024
VWidth: 0
Flags: H
LayerCount: 2
Fore
SplineSet
512 -384 m 1
 384 -384 l 1
 480 -192 l 1
 480 -64 l 1
 640 -64 l 1
 640 -256 l 1
 512 -384 l 1
EndSplineSet
Validated: 1
EndChar

StartChar: mu
Encoding: 956 956 134
Width: 1024
VWidth: 0
Flags: H
LayerCount: 2
Fore
SplineSet
128 1024 m 1
 298 1024 l 1
 298 157 l 1
 512 157 l 2
 643.998 157 726 370 726 370 c 1
 726 1024 l 1
 896 1024 l 1
 896 370 l 2
 896 141 932.997 141 992 141 c 1
 992 0 l 1
 992 0 956.999 -8 900 -8 c 0
 780.004 -8 750 141 750 141 c 1
 750 141 658.998 0 512 0 c 2
 298 0 l 1
 298 -256 l 1
 128 -256 l 1
 128 1024 l 1
EndSplineSet
Validated: 1
EndChar

StartChar: uni2080
Encoding: 8320 8320 136
Width: 1024
VWidth: 0
Flags: H
LayerCount: 2
Fore
SplineSet
512 648 m 0
 695 648 808 498 808 256 c 0
 808 14 695 -136 512 -136 c 0
 329 -136 216 14 216 256 c 0
 216 498 329 648 512 648 c 0
512 512 m 0
 419 512 362 414 362 256 c 0
 362 98 419 0 512 0 c 0
 605 0 662 98 662 256 c 0
 662 414 605 512 512 512 c 0
512 329 m 0
 547 329 569 301 569 256 c 0
 569 211 547 183 512 183 c 0
 477 183 455 211 455 256 c 0
 455 301 477 329 512 329 c 0
EndSplineSet
Validated: 1
EndChar

StartChar: uni2081
Encoding: 8321 8321 137
Width: 1024
VWidth: 0
Flags: H
LayerCount: 2
Fore
SplineSet
512 640 m 1
 658 640 l 1
 658 -128 l 1
 512 -128 l 1
 512 448 l 1
 384 320 l 1
 288 416 l 1
 512 640 l 1
EndSplineSet
Validated: 1
EndChar

StartChar: uni2082
Encoding: 8322 8322 138
Width: 1024
VWidth: 0
Flags: H
LayerCount: 2
Fore
SplineSet
512 648 m 0
 660 648 752 559 752 416 c 0
 752 352 752 312 608 168 c 2
 448 8 l 1
 768 8 l 1
 768 -128 l 1
 256 -128 l 1
 256 8 l 1
 512 264 l 1
 606 363 606 384 606 416 c 0
 606 475 570 512 512 512 c 0
 448 512 408 475 408 416 c 1
 272 416 l 1
 272 559 364 648 512 648 c 0
EndSplineSet
Validated: 1
EndChar

StartChar: uni2083
Encoding: 8323 8323 139
Width: 1024
VWidth: 0
Flags: H
LayerCount: 2
Fore
SplineSet
403 648 m 0
 609 648 736 589 736 412 c 0
 736 306 622 271 622 271 c 1
 622 271 768 228 768 100 c 0
 768 -77 626 -136 396 -136 c 0
 309 -136 256 -120 256 -120 c 1
 256 8 l 1
 396 8 l 2
 536 8 622 31 622 100 c 0
 622 169 558 192 455 192 c 2
 352 192 l 1
 352 320 l 1
 443 320 l 2
 534 320 590 343 590 412 c 0
 590 481 519 504 403 504 c 2
 288 504 l 1
 288 632 l 1
 288 632 332 648 403 648 c 0
EndSplineSet
Validated: 1
EndChar

StartChar: uni2084
Encoding: 8324 8324 140
Width: 1024
VWidth: 0
Flags: H
LayerCount: 2
Fore
SplineSet
512 640 m 1
 658 640 l 1
 658 186 l 1
 768 186 l 1
 768 50 l 1
 658 50 l 1
 658 -128 l 1
 512 -128 l 1
 512 50 l 1
 224 50 l 1
 224 186 l 1
 512 640 l 1
530 496 m 1
 368 178 l 1
 530 178 l 1
 530 496 l 1
EndSplineSet
Validated: 1
EndChar

StartChar: uni2085
Encoding: 8325 8325 141
Width: 1024
VWidth: 0
Flags: H
LayerCount: 2
Fore
SplineSet
434 504 m 1
 434 320 l 1
 512 320 l 2
 670 320 768 236 768 100 c 0
 768 -77 626 -136 396 -136 c 0
 309 -136 256 -120 256 -120 c 1
 256 8 l 1
 396 8 l 2
 536 8 622 31 622 100 c 0
 622 157 580 192 512 192 c 2
 288 192 l 1
 288 640 l 1
 728 640 l 1
 728 504 l 1
 434 504 l 1
EndSplineSet
Validated: 1
EndChar

StartChar: uni2086
Encoding: 8326 8326 142
Width: 1024
VWidth: 0
Flags: H
LayerCount: 2
Fore
SplineSet
512 640 m 1
 682 640 l 1
 444 312 l 1
 444 312 470 320 512 320 c 0
 670 320 768 234 768 96 c 0
 768 -47 664 -136 512 -136 c 0
 360 -136 256 -47 256 96 c 0
 256 181 293 292 352 386 c 2
 512 640 l 1
512 192 m 0
 429 192 402 168 402 96 c 0
 402 37 444 0 512 0 c 0
 580 0 622 37 622 96 c 0
 622 155 580 192 512 192 c 0
EndSplineSet
Validated: 1
EndChar

StartChar: uni2087
Encoding: 8327 8327 143
Width: 1024
VWidth: 0
Flags: H
LayerCount: 2
Fore
SplineSet
768 640 m 1
 768 504 l 1
 512 -128 l 1
 355 -128 l 1
 611 504 l 1
 256 504 l 1
 256 640 l 1
 768 640 l 1
EndSplineSet
Validated: 1
EndChar

StartChar: uni2088
Encoding: 8328 8328 144
Width: 1024
VWidth: 0
Flags: H
LayerCount: 2
Fore
SplineSet
274 428 m 0
 274 564 362 648 512 648 c 0
 662 648 754 564 754 428 c 0
 754 331 606 271 606 271 c 1
 606 271 768 200 768 84 c 0
 768 -52 670 -136 512 -136 c 0
 354 -136 256 -52 256 84 c 0
 256 200 415 271 415 271 c 1
 415 271 274 331 274 428 c 0
402 428 m 0
 402 361 512 320 512 320 c 1
 512 320 626 361 626 428 c 0
 626 480 582 512 512 512 c 0
 442 512 402 480 402 428 c 0
512 200 m 1
 512 200 392 156 392 84 c 0
 392 32 438 0 512 0 c 0
 586 0 632 32 632 84 c 0
 632 156 512 200 512 200 c 1
EndSplineSet
Validated: 1
EndChar

StartChar: uni2089
Encoding: 8329 8329 145
Width: 1024
VWidth: 0
Flags: H
LayerCount: 2
Fore
SplineSet
512 -128 m 1
 342 -128 l 1
 580 200 l 1
 580 200 554 192 512 192 c 0
 354 192 256 278 256 416 c 0
 256 559 360 648 512 648 c 0
 664 648 768 559 768 416 c 0
 768 331 731 220 672 126 c 2
 512 -128 l 1
512 320 m 0
 595 320 622 344 622 416 c 0
 622 475 580 512 512 512 c 0
 444 512 402 475 402 416 c 0
 402 357 444 320 512 320 c 0
EndSplineSet
Validated: 1
EndChar

StartChar: uni208A
Encoding: 8330 8330 146
Width: 1024
VWidth: 0
Flags: H
LayerCount: 2
Fore
SplineSet
439 608 m 1
 585 608 l 1
 585 324 l 1
 864 324 l 1
 864 188 l 1
 585 188 l 1
 585 -96 l 1
 439 -96 l 1
 439 188 l 1
 160 188 l 1
 160 324 l 1
 439 324 l 1
 439 608 l 1
EndSplineSet
Validated: 1
EndChar

StartChar: uni208B
Encoding: 8331 8331 147
Width: 1024
VWidth: 0
Flags: H
LayerCount: 2
Fore
SplineSet
160 324 m 1
 864 324 l 1
 864 188 l 1
 160 188 l 1
 160 324 l 1
EndSplineSet
Validated: 1
EndChar

StartChar: uni208C
Encoding: 8332 8332 148
Width: 1024
VWidth: 0
Flags: H
LayerCount: 2
Fore
SplineSet
160 460 m 1
 864 460 l 1
 864 324 l 1
 160 324 l 1
 160 460 l 1
160 188 m 1
 864 188 l 1
 864 52 l 1
 160 52 l 1
 160 188 l 1
EndSplineSet
Validated: 1
EndChar

StartChar: uni208D
Encoding: 8333 8333 149
Width: 1024
VWidth: 0
Flags: H
LayerCount: 2
Fore
SplineSet
640 640 m 1
 704 546 l 1
 704 546 512 474 512 256 c 0
 512 38 704 -34 704 -34 c 1
 640 -128 l 1
 640 -128 376 -32 376 256 c 0
 376 544 640 640 640 640 c 1
EndSplineSet
Validated: 1
EndChar

StartChar: uni2090
Encoding: 8336 8336 150
Width: 1024
VWidth: 0
Flags: H
LayerCount: 2
Fore
SplineSet
408 644 m 0
 702 644 800 582 800 394 c 2
 800 -128 l 1
 539 -128 l 2
 334 -128 216 -34 216 119 c 0
 216 246 313 324 469 324 c 2
 654 324 l 1
 654 394 l 2
 654 480 593 508 408 508 c 2
 256 508 l 1
 256 636 l 1
 256 636 314 644 408 644 c 0
469 188 m 2
 403 188 362 162 362 119 c 0
 362 50 425 8 539 8 c 2
 654 8 l 1
 654 188 l 1
 469 188 l 2
EndSplineSet
Validated: 1
EndChar

StartChar: uni2091
Encoding: 8337 8337 151
Width: 1024
VWidth: 0
Flags: H
LayerCount: 2
Fore
SplineSet
604 -132 m 0
 344 -132 184 19 184 256 c 0
 184 493 309 648 512 648 c 0
 715 648 836 552 836 396 c 0
 836 267 828 188 828 188 c 1
 338 188 l 1
 338 188 338 8 604 8 c 2
 768 8 l 1
 768 -124 l 1
 768 -124 705 -132 604 -132 c 0
686 324 m 1
 686 396 l 2
 686 468 620 512 512 512 c 0
 338 512 338 324 338 324 c 1
 686 324 l 1
EndSplineSet
Validated: 1
EndChar

StartChar: uni2092
Encoding: 8338 8338 152
Width: 1024
VWidth: 0
Flags: H
LayerCount: 2
Fore
SplineSet
512 648 m 0
 705 648 824 556 824 256 c 0
 824 -44 705 -136 512 -136 c 0
 319 -136 200 -44 200 256 c 0
 200 556 319 648 512 648 c 0
512 512 m 0
 409 512 346 454 346 256 c 0
 346 58 409 0 512 0 c 0
 615 0 678 58 678 256 c 0
 678 454 615 512 512 512 c 0
EndSplineSet
Validated: 1
EndChar

StartChar: uni2093
Encoding: 8339 8339 153
Width: 1024
VWidth: 0
Flags: H
LayerCount: 2
Fore
SplineSet
176 640 m 1
 352 640 l 1
 512 366 l 1
 672 640 l 1
 848 640 l 1
 600 256 l 1
 848 -128 l 1
 672 -128 l 1
 512 146 l 1
 352 -128 l 1
 176 -128 l 1
 424 256 l 1
 176 640 l 1
EndSplineSet
Validated: 1
EndChar

StartChar: uni207F
Encoding: 8319 8319 168
Width: 1024
VWidth: 0
Flags: H
LayerCount: 2
Fore
SplineSet
800 640 m 1
 654 640 l 1
 654 1120 l 2
 654 1240 600 1280 512 1280 c 0
 424 1280 370 1264 370 1264 c 1
 370 640 l 1
 224 640 l 1
 224 1348 l 1
 224 1348 334 1416 512 1416 c 0
 690 1416 800 1342 800 1120 c 2
 800 640 l 1
EndSplineSet
Validated: 1
EndChar

StartChar: uni2071
Encoding: 8305 8305 169
Width: 1024
VWidth: 0
Flags: H
LayerCount: 2
Fore
SplineSet
428 1408 m 1
 585 1408 l 1
 585 1272 l 1
 428 1272 l 1
 428 1408 l 1
288 1152 m 1
 585 1152 l 1
 585 776 l 1
 768 776 l 1
 768 640 l 1
 256 640 l 1
 256 776 l 1
 439 776 l 1
 439 1016 l 1
 288 1016 l 1
 288 1152 l 1
EndSplineSet
Validated: 1
EndChar

StartChar: tonos
Encoding: 900 900 172
Width: 1024
VWidth: 0
Flags: HW
LayerCount: 2
Fore
SplineSet
483 1408 m 1
 640 1408 l 1
 640 1376 l 1
 512 1123 l 1
 384 1123 l 1
 384 1155 l 1
 483 1408 l 1
EndSplineSet
Validated: 1
EndChar

StartChar: dieresistonos
Encoding: 901 901 173
Width: 1024
VWidth: 0
Flags: H
LayerCount: 2
Fore
SplineSet
535 1536 m 1
 681 1536 l 1
 681 1504 l 1
 553 1280 l 1
 425 1280 l 1
 425 1312 l 1
 535 1536 l 1
240 1392 m 0
 302 1392 352 1342 352 1280 c 0
 352 1218 302 1168 240 1168 c 0
 178 1168 128 1218 128 1280 c 0
 128 1342 178 1392 240 1392 c 0
784 1392 m 0
 846 1392 896 1342 896 1280 c 0
 896 1218 846 1168 784 1168 c 0
 722 1168 672 1218 672 1280 c 0
 672 1342 722 1392 784 1392 c 0
EndSplineSet
Validated: 1
EndChar

StartChar: Gamma
Encoding: 915 915 190
Width: 1024
VWidth: 0
Flags: H
LayerCount: 2
Fore
SplineSet
160 0 m 1
 160 1280 l 1
 896 1280 l 1
 896 1123 l 1
 330 1123 l 1
 330 0 l 1
 160 0 l 1
EndSplineSet
Validated: 1
EndChar

StartChar: Delta
Encoding: 916 916 191
Width: 1024
VWidth: 0
Flags: H
LayerCount: 2
Fore
SplineSet
410 1280 m 1
 614 1280 l 1
 960 157 l 1
 960 0 l 1
 64 0 l 1
 64 157 l 1
 410 1280 l 1
512 1103 m 1
 479 926 l 1
 242 157 l 1
 782 157 l 1
 545 926 l 1
 512 1103 l 1
EndSplineSet
Validated: 1
EndChar

StartChar: Theta
Encoding: 920 920 192
Width: 1024
VWidth: 0
Flags: H
LayerCount: 2
Fore
SplineSet
512 1296 m 0
 779 1296 944 1132 944 640 c 0
 944 148 779 -16 512 -16 c 0
 245 -16 80 148 80 640 c 0
 80 1132 245 1296 512 1296 c 0
512 1139 m 0
 350 1139 250 1014 250 640 c 0
 250 266 350 141 512 141 c 0
 674 141 774 266 774 640 c 0
 774 1014 674 1139 512 1139 c 0
320 719 m 1
 704 719 l 1
 704 561 l 1
 320 561 l 1
 320 719 l 1
EndSplineSet
Validated: 1
EndChar

StartChar: Lambda
Encoding: 923 923 193
Width: 1024
VWidth: 0
Flags: H
LayerCount: 2
Fore
SplineSet
32 0 m 1
 410 1280 l 1
 614 1280 l 1
 992 0 l 1
 815 0 l 1
 542 926 l 1
 512 1103 l 1
 482 926 l 1
 209 0 l 1
 32 0 l 1
EndSplineSet
Validated: 1
EndChar

StartChar: Xi
Encoding: 926 926 194
Width: 1024
VWidth: 0
Flags: H
LayerCount: 2
Fore
SplineSet
128 1280 m 1
 896 1280 l 1
 896 1123 l 1
 128 1123 l 1
 128 1280 l 1
224 768 m 1
 800 768 l 1
 800 611 l 1
 224 611 l 1
 224 768 l 1
128 157 m 1
 896 157 l 1
 896 0 l 1
 128 0 l 1
 128 157 l 1
EndSplineSet
Validated: 1
EndChar

StartChar: Pi
Encoding: 928 928 195
Width: 1024
VWidth: 0
Flags: H
LayerCount: 2
Fore
SplineSet
128 1280 m 1
 896 1280 l 1
 896 0 l 1
 726 0 l 1
 726 1123 l 1
 298 1123 l 1
 298 0 l 1
 128 0 l 1
 128 1280 l 1
EndSplineSet
Validated: 1
EndChar

StartChar: Sigma
Encoding: 931 931 196
Width: 1024
VWidth: 0
Flags: H
LayerCount: 2
Fore
SplineSet
96 1280 m 1
 928 1280 l 1
 928 1123 l 1
 314 1123 l 1
 729 691 l 1
 312 157 l 1
 928 157 l 1
 928 0 l 1
 96 0 l 1
 96 157 l 1
 512 689 l 1
 96 1123 l 1
 96 1280 l 1
EndSplineSet
Validated: 1
EndChar

StartChar: Phi
Encoding: 934 934 197
Width: 1024
VWidth: 0
Flags: H
LayerCount: 2
Fore
SplineSet
427 1384 m 1
 597 1384 l 1
 597 1176 l 1
 678 1167 746 1143 801 1106 c 0
 856 1069 899 1012 930 934 c 0
 961 856 976 759 976 640 c 0
 976 521 961 424 930 346 c 0
 899 268 856 211 801 174 c 0
 746 137 678 113 597 104 c 1
 597 -104 l 1
 427 -104 l 1
 427 103 l 1
 346 112 278 135 223 172 c 0
 168 209 125 267 94 345 c 0
 63 423 48 521 48 640 c 0
 48 759 63 856 94 934 c 0
 125 1012 168 1069 223 1106 c 0
 278 1143 346 1167 427 1176 c 1
 427 1384 l 1
448 1020 m 1
 373 1009 315 973 276 913 c 0
 237 853 218 762 218 640 c 0
 218 518 237 427 276 367 c 0
 315 307 373 271 448 260 c 1
 448 1020 l 1
576 1020 m 1
 576 260 l 1
 651 271 709 307 748 367 c 0
 787 427 806 518 806 640 c 0
 806 762 787 853 748 913 c 0
 709 973 651 1009 576 1020 c 1
EndSplineSet
Validated: 1
EndChar

StartChar: Psi
Encoding: 936 936 198
Width: 1024
VWidth: 0
Flags: H
LayerCount: 2
Fore
SplineSet
64 1280 m 1
 234 1280 l 1
 234 768 l 2
 234 638 310 521 433 521 c 1
 433 1280 l 1
 591 1280 l 1
 591 521 l 1
 714 521 790 638 790 768 c 2
 790 1280 l 1
 960 1280 l 1
 960 768 l 2
 960 540 821 360 597 360 c 1
 597 0 l 1
 427 0 l 1
 427 360 l 1
 203 360 64 540 64 768 c 2
 64 1280 l 1
EndSplineSet
Validated: 1
EndChar

StartChar: Omega
Encoding: 937 937 199
Width: 1024
VWidth: 0
Flags: H
LayerCount: 2
Fore
SplineSet
512 1296 m 0
 799 1296 976 1147 976 698 c 0
 976 364 716 157 716 157 c 1
 992 157 l 1
 992 0 l 1
 614 0 l 1
 614 256 l 1
 614 256 798 364 798 698 c 0
 798 1029 690 1139 512 1139 c 0
 334 1139 226 1029 226 698 c 0
 226 364 410 256 410 256 c 1
 410 0 l 1
 32 0 l 1
 32 157 l 1
 308 157 l 1
 308 157 48 364 48 698 c 0
 48 1147 225 1296 512 1296 c 0
EndSplineSet
Validated: 1
EndChar

StartChar: alpha
Encoding: 945 945 200
Width: 1024
VWidth: 0
Flags: H
LayerCount: 2
Fore
SplineSet
583 1024 m 2
 864 1024 l 1
 864 370 l 2
 864 141 906 141 992 141 c 1
 992 0 l 1
 992 0 946 -8 887 -8 c 0
 752 -8 718 141 718 141 c 1
 718 141 624 -16 472 -16 c 0
 230 -16 80 150 80 418 c 0
 80 792 272 1024 583 1024 c 2
694 867 m 1
 583 867 l 2
 377 867 250 695 250 418 c 0
 250 247 335 141 472 141 c 0
 609 141 694 370 694 370 c 1
 694 867 l 1
EndSplineSet
Validated: 1
EndChar

StartChar: beta
Encoding: 946 946 201
Width: 1024
VWidth: 0
Flags: H
LayerCount: 2
Fore
SplineSet
488 1296 m 0
 710 1296 848 1165 848 954 c 0
 848 757 710 708 710 708 c 1
 710 708 944 643 944 384 c 0
 944 96 730 0 384 0 c 2
 298 0 l 1
 298 -256 l 1
 128 -256 l 1
 128 954 l 2
 128 1165 266 1296 488 1296 c 0
488 1139 m 0
 371 1139 298 1068 298 954 c 2
 298 157 l 1
 384 157 l 2
 620 157 766 214 766 384 c 0
 766 566 643 611 443 611 c 1
 443 768 l 1
 588 768 678 839 678 954 c 0
 678 1068 605 1139 488 1139 c 0
EndSplineSet
Validated: 1
EndChar

StartChar: gamma
Encoding: 947 947 202
Width: 1024
VWidth: 0
Flags: H
LayerCount: 2
Fore
SplineSet
64 1024 m 1
 244 1024 l 1
 532 256 l 1
 532 256 732 512 732 768 c 0
 732 926 716 1024 716 1024 c 1
 896 1024 l 1
 896 1024 912 926 912 768 c 0
 912 404 597 43 597 43 c 1
 597 -256 l 1
 427 -256 l 1
 427 43 l 1
 64 1024 l 1
EndSplineSet
Validated: 1
EndChar

StartChar: delta
Encoding: 948 948 203
Width: 1024
VWidth: 0
Flags: H
LayerCount: 2
Fore
SplineSet
629 1288 m 0
 754 1288 832 1272 832 1272 c 1
 832 1123 l 1
 629 1123 l 2
 477 1123 426 1099 426 1061 c 0
 426 896 912 830 912 455 c 0
 912 164 759 -16 512 -16 c 0
 265 -16 112 164 112 455 c 0
 112 755 374 855 374 855 c 1
 374 855 256 934 256 1061 c 0
 256 1201 351 1288 629 1288 c 0
512 768 m 1
 512 768 282 700 282 455 c 0
 282 261 370 141 512 141 c 0
 654 141 742 261 742 455 c 0
 742 619 629 698 512 768 c 1
EndSplineSet
Validated: 1
EndChar

StartChar: epsilon
Encoding: 949 949 204
Width: 1024
VWidth: 0
Flags: H
LayerCount: 2
Fore
SplineSet
864 1016 m 1
 864 867 l 1
 589 867 l 2
 419 867 314 833 314 729 c 0
 314 625 390 591 512 591 c 2
 768 591 l 1
 768 433 l 1
 512 433 l 2
 370 433 282 399 282 295 c 0
 282 191 399 157 589 157 c 2
 896 157 l 1
 896 8 l 1
 896 8 779 -8 589 -8 c 0
 294 -8 112 68 112 295 c 0
 112 469 298 512 298 512 c 1
 298 512 144 555 144 729 c 0
 144 956 314 1032 589 1032 c 0
 759 1032 864 1016 864 1016 c 1
EndSplineSet
Validated: 1
EndChar

StartChar: zeta
Encoding: 950 950 205
Width: 1024
VWidth: 0
Flags: H
LayerCount: 2
Fore
SplineSet
635 1123 m 1
 192 1123 l 1
 192 1280 l 1
 896 1280 l 1
 896 1123 l 1
 896 1123 282 768 282 434 c 0
 282 324 370 256 512 256 c 0
 1092 256 896 -256 896 -256 c 1
 724 -256 l 1
 724 -256 896 99 512 99 c 0
 265 99 112 227 112 434 c 0
 112 768 635 1123 635 1123 c 1
EndSplineSet
Validated: 33
EndChar

StartChar: eta
Encoding: 951 951 206
Width: 1024
VWidth: 0
Flags: H
LayerCount: 2
Fore
SplineSet
512 1040 m 0
 749 1040 896 945 896 658 c 2
 896 -256 l 1
 726 -256 l 1
 726 658 l 2
 726 827 644 883 512 883 c 0
 380 883 298 839 298 839 c 1
 298 99 l 1
 128 99 l 1
 128 936 l 1
 128 936 275 1040 512 1040 c 0
EndSplineSet
Validated: 1
EndChar

StartChar: theta
Encoding: 952 952 207
Width: 1024
VWidth: 0
Flags: H
LayerCount: 2
Fore
SplineSet
512 1296 m 0
 759 1296 912 1045 912 640 c 0
 912 235 759 -16 512 -16 c 0
 265 -16 112 235 112 640 c 0
 112 1045 265 1296 512 1296 c 0
512 1139 m 0
 288 1139 288 768 288 768 c 1
 736 768 l 1
 736 768 736 1139 512 1139 c 0
282 611 m 1
 282 611 282 141 512 141 c 0
 742 141 742 611 742 611 c 1
 282 611 l 1
EndSplineSet
Validated: 1
EndChar

StartChar: iota
Encoding: 953 953 208
Width: 1024
VWidth: 0
Flags: H
LayerCount: 2
Fore
SplineSet
896 8 m 1
 896 8 852 -8 782 -8 c 0
 563 -8 427 72 427 314 c 2
 427 867 l 1
 160 867 l 1
 160 1024 l 1
 597 1024 l 1
 597 314 l 2
 597 196 668 157 782 157 c 2
 896 157 l 1
 896 8 l 1
EndSplineSet
Validated: 1
EndChar

StartChar: kappa
Encoding: 954 954 209
Width: 1024
VWidth: 0
Flags: H
LayerCount: 2
Fore
SplineSet
756 1024 m 1
 960 1024 l 1
 490 531 l 1
 960 0 l 1
 750 0 l 1
 298 512 l 1
 298 0 l 1
 128 0 l 1
 128 1024 l 1
 298 1024 l 1
 298 544 l 1
 756 1024 l 1
EndSplineSet
Validated: 1
EndChar

StartChar: lambda
Encoding: 955 955 210
Width: 1024
VWidth: 0
Flags: H
LayerCount: 2
Fore
SplineSet
128 1272 m 1
 128 1272 176 1288 253 1288 c 0
 366 1288 400 1214 455 1095 c 2
 960 0 l 1
 773 0 l 1
 512 565 l 1
 251 0 l 1
 64 0 l 1
 418 768 l 1
 300 1019 l 2
 251 1123 251 1123 128 1123 c 1
 128 1272 l 1
EndSplineSet
Validated: 1
EndChar

StartChar: nu
Encoding: 957 957 211
Width: 1024
VWidth: 0
Flags: H
LayerCount: 2
Fore
SplineSet
64 1024 m 1
 244 1024 l 1
 532 213 l 1
 532 213 740 491 740 768 c 0
 740 926 724 1024 724 1024 c 1
 896 1024 l 1
 896 1024 912 926 912 768 c 0
 912 384 597 0 597 0 c 1
 427 0 l 1
 64 1024 l 1
EndSplineSet
Validated: 1
EndChar

StartChar: xi
Encoding: 958 958 212
Width: 1024
VWidth: 0
Flags: H
LayerCount: 2
Fore
SplineSet
346 708 m 1
 346 708 176 756 176 946 c 0
 176 1157 340 1288 605 1288 c 0
 765 1288 864 1272 864 1272 c 1
 864 1123 l 1
 605 1123 l 2
 445 1123 346 1055 346 946 c 0
 346 804 445 768 605 768 c 2
 800 768 l 1
 800 611 l 1
 605 611 l 2
 405 611 282 576 282 434 c 0
 282 324 370 256 512 256 c 0
 1092 256 896 -256 896 -256 c 1
 724 -256 l 1
 724 -256 896 99 512 99 c 0
 265 99 112 227 112 434 c 0
 112 653 346 708 346 708 c 1
EndSplineSet
Validated: 33
EndChar

StartChar: pi
Encoding: 960 960 213
Width: 1024
VWidth: 0
Flags: H
LayerCount: 2
Fore
SplineSet
694 0 m 1
 694 867 l 1
 330 867 l 1
 330 0 l 1
 160 0 l 1
 160 867 l 1
 64 867 l 1
 64 1024 l 1
 960 1024 l 1
 960 867 l 1
 864 867 l 1
 864 0 l 1
 694 0 l 1
EndSplineSet
Validated: 1
EndChar

StartChar: rho
Encoding: 961 961 214
Width: 1024
VWidth: 0
Flags: H
LayerCount: 2
Fore
SplineSet
128 644 m 2
 128 889 278 1040 520 1040 c 0
 762 1040 912 860 912 569 c 0
 912 278 762 99 520 99 c 2
 298 99 l 1
 298 -256 l 1
 128 -256 l 1
 128 644 l 2
520 883 m 0
 383 883 298 792 298 644 c 2
 298 256 l 1
 520 256 l 2
 657 256 742 375 742 569 c 0
 742 763 657 883 520 883 c 0
EndSplineSet
Validated: 1
EndChar

StartChar: sigma1
Encoding: 962 962 215
Width: 1024
VWidth: 0
Flags: H
LayerCount: 2
Fore
SplineSet
642 1032 m 0
 779 1032 864 1016 864 1016 c 1
 864 867 l 1
 642 867 l 2
 420 867 282 731 282 512 c 0
 282 354 370 256 512 256 c 0
 1092 256 896 -256 896 -256 c 1
 724 -256 l 1
 724 -256 896 99 512 99 c 0
 265 99 112 257 112 512 c 0
 112 833 326 1032 642 1032 c 0
EndSplineSet
Validated: 33
EndChar

StartChar: sigma
Encoding: 963 963 216
Width: 1024
VWidth: 0
Flags: H
LayerCount: 2
Fore
SplineSet
512 1040 m 1
 992 1024 l 1
 992 883 l 1
 809 883 l 1
 809 883 912 741 912 512 c 0
 912 186 759 -16 512 -16 c 0
 245 -16 80 116 80 512 c 0
 80 908 245 1040 512 1040 c 1
635 883 m 1
 512 883 l 2
 350 883 250 736 250 512 c 0
 250 234 350 141 512 141 c 0
 654 141 742 283 742 512 c 0
 742 741 635 883 635 883 c 1
EndSplineSet
Validated: 1
EndChar

StartChar: tau
Encoding: 964 964 217
Width: 1024
VWidth: 0
Flags: H
LayerCount: 2
Fore
SplineSet
864 8 m 1
 864 8 803 -8 704 -8 c 0
 480 -8 342 72 342 314 c 2
 342 867 l 1
 64 867 l 1
 64 1024 l 1
 928 1024 l 1
 928 867 l 1
 512 867 l 1
 512 314 l 2
 512 196 585 157 704 157 c 2
 864 157 l 1
 864 8 l 1
EndSplineSet
Validated: 1
EndChar

StartChar: upsilon
Encoding: 965 965 218
Width: 1024
VWidth: 0
Flags: H
LayerCount: 2
Fore
SplineSet
128 1024 m 1
 298 1024 l 1
 298 366 l 2
 298 197 380 141 512 141 c 0
 644 141 740 283 740 512 c 0
 740 828 683 1024 683 1024 c 1
 853 1024 l 1
 853 1024 912 828 912 512 c 0
 912 186 749 -16 512 -16 c 0
 275 -16 128 79 128 366 c 2
 128 1024 l 1
EndSplineSet
Validated: 1
EndChar

StartChar: phi
Encoding: 966 966 219
Width: 1024
VWidth: 0
Flags: H
LayerCount: 2
Fore
SplineSet
427 1280 m 1
 597 1280 l 1
 597 1036 l 1
 820 1012 976 883 976 569 c 0
 976 255 820 127 597 103 c 1
 597 -256 l 1
 427 -256 l 1
 427 103 l 1
 204 127 48 255 48 569 c 0
 48 883 204 1012 427 1036 c 1
 427 1280 l 1
448 878 m 1
 317 858 218 772 218 569 c 0
 218 366 317 281 448 261 c 1
 448 878 l 1
576 878 m 1
 576 261 l 1
 707 281 806 366 806 569 c 0
 806 772 707 858 576 878 c 1
EndSplineSet
Validated: 1
EndChar

StartChar: chi
Encoding: 967 967 220
Width: 1024
VWidth: 0
Flags: H
LayerCount: 2
Fore
SplineSet
64 1016 m 1
 64 1016 122 1032 192 1032 c 0
 314 1032 348 958 401 838 c 2
 519 574 l 1
 766 1024 l 1
 960 1024 l 1
 607 380 l 1
 778 0 l 2
 823 -99 823 -99 960 -99 c 1
 960 -248 l 1
 960 -248 911 -264 832 -264 c 0
 710 -264 676 -190 623 -70 c 2
 505 194 l 1
 258 -256 l 1
 64 -256 l 1
 417 388 l 1
 246 768 l 2
 201 867 201 867 64 867 c 1
 64 1016 l 1
EndSplineSet
Validated: 1
EndChar

StartChar: psi
Encoding: 968 968 221
Width: 1024
VWidth: 0
Flags: H
LayerCount: 2
Fore
SplineSet
433 1280 m 1
 591 1280 l 1
 591 261 l 1
 715 280 787 352 788 512 c 2
 790 1024 l 1
 960 1024 l 1
 960 512 l 2
 960 235 824 124 597 103 c 1
 597 -256 l 1
 427 -256 l 1
 427 103 l 1
 200 124 64 235 64 512 c 2
 64 1024 l 1
 234 1024 l 1
 234 512 l 2
 234 351 308 280 433 261 c 1
 433 1280 l 1
EndSplineSet
Validated: 1
EndChar

StartChar: omega
Encoding: 969 969 222
Width: 1024
VWidth: 0
Flags: H
LayerCount: 2
Fore
SplineSet
107 1024 m 1
 277 1024 l 1
 277 1024 220 828 220 512 c 0
 220 283 266 141 341 141 c 0
 394 141 427 269 427 475 c 2
 427 768 l 1
 597 768 l 1
 597 475 l 2
 597 269 630 141 683 141 c 0
 758 141 804 283 804 512 c 0
 804 828 747 1024 747 1024 c 1
 917 1024 l 1
 917 1024 976 828 976 512 c 0
 976 186 903 -16 683 -16 c 0
 512 -16 512 256 512 256 c 1
 512 256 512 -16 341 -16 c 0
 121 -16 48 186 48 512 c 0
 48 828 107 1024 107 1024 c 1
EndSplineSet
Validated: 1
EndChar

StartChar: uni03F1
Encoding: 1009 1009 243
Width: 1024
VWidth: 0
Flags: H
LayerCount: 2
Fore
SplineSet
298 256 m 1
 298 -16 432 -107 832 -107 c 1
 832 -264 l 1
 304 -264 128 -134 128 256 c 2
 128 648 l 2
 128 890 275 1040 512 1040 c 0
 759 1040 912 890 912 648 c 0
 912 406 789 256 520 256 c 2
 298 256 l 1
520 413 m 2
 657 413 742 503 742 648 c 0
 742 793 654 883 512 883 c 0
 380 883 298 793 298 648 c 2
 298 413 l 1
 520 413 l 2
EndSplineSet
Validated: 1
EndChar

StartChar: uni03FA
Encoding: 1018 1018 244
Width: 1024
VWidth: 0
Flags: H
LayerCount: 2
Fore
SplineSet
64 1280 m 1
 221 1280 l 1
 512 830 l 1
 803 1280 l 1
 960 1280 l 1
 960 0 l 1
 803 0 l 1
 803 1011 l 1
 563 640 l 1
 461 640 l 1
 221 1011 l 1
 221 0 l 1
 64 0 l 1
 64 1280 l 1
EndSplineSet
Validated: 1
EndChar

StartChar: uni03FB
Encoding: 1019 1019 245
Width: 1024
VWidth: 0
Flags: H
LayerCount: 2
Fore
SplineSet
96 1024 m 1
 253 1024 l 1
 512 672 l 1
 771 1024 l 1
 928 1024 l 1
 928 99 l 1
 771 99 l 1
 771 795 l 1
 563 512 l 1
 461 512 l 1
 253 795 l 1
 253 -256 l 1
 96 -256 l 1
 96 1024 l 1
EndSplineSet
Validated: 1
EndChar

StartChar: uni03FC
Encoding: 1020 1020 246
Width: 1024
VWidth: 0
Flags: H
LayerCount: 2
Fore
SplineSet
520 1040 m 0
 762 1040 912 928 912 640 c 0
 912 352 754 256 520 256 c 2
 298 256 l 1
 298 79 l 1
 576 79 l 1
 576 -79 l 1
 298 -79 l 1
 298 -256 l 1
 128 -256 l 1
 128 -79 l 1
 0 -79 l 1
 0 79 l 1
 128 79 l 1
 128 640 l 2
 128 887 278 1040 520 1040 c 0
520 883 m 0
 383 883 298 790 298 640 c 2
 298 413 l 1
 520 413 l 2
 657 413 742 470 742 640 c 0
 742 810 657 883 520 883 c 0
EndSplineSet
Validated: 1
EndChar

StartChar: afii10051
Encoding: 1026 1026 247
Width: 1024
VWidth: 0
Flags: H
LayerCount: 2
Fore
SplineSet
32 1280 m 1
 672 1280 l 1
 672 1123 l 1
 394 1123 l 1
 394 760 l 1
 394 760 454 776 551 776 c 0
 814 776 976 620 976 380 c 0
 976 140 882 -8 600 -8 c 1
 600 149 l 1
 755 149 806 237 806 380 c 0
 806 523 709 611 551 611 c 2
 394 611 l 1
 394 0 l 1
 224 0 l 1
 224 1123 l 1
 32 1123 l 1
 32 1280 l 1
EndSplineSet
Validated: 1
EndChar

StartChar: afii10053
Encoding: 1028 1028 248
Width: 1024
VWidth: 0
Flags: H
LayerCount: 2
Fore
SplineSet
665 1288 m 0
 808 1288 896 1272 896 1272 c 1
 896 1123 l 1
 665 1123 l 2
 468 1123 336 991 300 768 c 1
 832 768 l 1
 832 611 l 1
 290 611 l 1
 298 272 439 157 665 157 c 2
 896 157 l 1
 896 8 l 1
 896 8 808 -8 665 -8 c 0
 323 -8 112 154 112 640 c 0
 112 1040 323 1288 665 1288 c 0
EndSplineSet
Validated: 1
EndChar

StartChar: afii10058
Encoding: 1033 1033 249
Width: 1024
VWidth: 0
Flags: H
LayerCount: 2
Fore
SplineSet
86 1280 m 1
 597 1280 l 1
 597 768 l 1
 831 768 976 672 976 384 c 0
 976 96 831 0 597 0 c 2
 427 0 l 1
 427 1123 l 1
 256 1123 l 1
 256 512 l 2
 256 122 192 -8 0 -8 c 1
 0 149 l 1
 65 149 86 239 86 512 c 2
 86 1280 l 1
597 611 m 1
 597 157 l 1
 726 157 806 214 806 384 c 0
 806 554 726 611 597 611 c 1
EndSplineSet
Validated: 1
EndChar

StartChar: afii10059
Encoding: 1034 1034 250
Width: 1024
VWidth: 0
Flags: H
LayerCount: 2
Fore
SplineSet
64 1280 m 1
 234 1280 l 1
 234 768 l 1
 427 768 l 1
 427 1280 l 1
 597 1280 l 1
 597 768 l 1
 831 768 976 672 976 384 c 0
 976 96 831 0 597 0 c 2
 427 0 l 1
 427 611 l 1
 234 611 l 1
 234 0 l 1
 64 0 l 1
 64 1280 l 1
597 611 m 1
 597 157 l 1
 726 157 806 214 806 384 c 0
 806 554 726 611 597 611 c 1
EndSplineSet
Validated: 1
EndChar

StartChar: afii10060
Encoding: 1035 1035 251
Width: 1024
VWidth: 0
Flags: H
LayerCount: 2
Fore
SplineSet
32 1280 m 1
 672 1280 l 1
 672 1123 l 1
 394 1123 l 1
 394 760 l 1
 394 760 470 776 592 776 c 0
 819 776 960 697 960 458 c 2
 960 0 l 1
 790 0 l 1
 790 458 l 1
 782 573 714 611 592 611 c 2
 394 611 l 1
 394 0 l 1
 224 0 l 1
 224 1123 l 1
 32 1123 l 1
 32 1280 l 1
EndSplineSet
Validated: 1
EndChar

StartChar: afii10145
Encoding: 1039 1039 252
Width: 1024
VWidth: 0
Flags: H
LayerCount: 2
Fore
SplineSet
128 0 m 1
 128 1280 l 1
 298 1280 l 1
 298 157 l 1
 726 157 l 1
 726 1280 l 1
 896 1280 l 1
 896 0 l 1
 597 0 l 1
 597 -256 l 1
 427 -256 l 1
 427 0 l 1
 128 0 l 1
EndSplineSet
Validated: 1
EndChar

StartChar: afii10018
Encoding: 1041 1041 253
Width: 1024
VWidth: 0
Flags: H
LayerCount: 2
Fore
SplineSet
128 1280 m 1
 864 1280 l 1
 864 1123 l 1
 298 1123 l 1
 298 768 l 1
 592 768 l 2
 840 768 944 642 944 438 c 0
 944 167 767 0 480 0 c 2
 128 0 l 1
 128 1280 l 1
298 611 m 1
 298 157 l 1
 480 157 l 2
 662 157 774 264 774 438 c 0
 774 545 704 611 592 611 c 2
 298 611 l 1
EndSplineSet
Validated: 1
EndChar

StartChar: afii10021
Encoding: 1044 1044 254
Width: 1024
VWidth: 0
Flags: H
LayerCount: 2
Fore
SplineSet
288 1280 m 1
 864 1280 l 1
 864 157 l 1
 992 157 l 1
 992 -256 l 1
 822 -256 l 1
 822 0 l 1
 202 0 l 1
 202 -256 l 1
 32 -256 l 1
 32 157 l 1
 128 157 l 1
 288 1280 l 1
437 1123 m 1
 300 157 l 1
 694 157 l 1
 694 1123 l 1
 437 1123 l 1
EndSplineSet
Validated: 1
EndChar

StartChar: afii10024
Encoding: 1046 1046 255
Width: 1024
VWidth: 0
Flags: H
LayerCount: 2
Fore
SplineSet
0 1280 m 1
 160 1280 l 1
 433 672 l 1
 433 1280 l 1
 591 1280 l 1
 591 672 l 1
 864 1280 l 1
 1024 1280 l 1
 743 655 l 1
 1024 0 l 1
 865 0 l 1
 591 640 l 1
 591 0 l 1
 433 0 l 1
 433 640 l 1
 156 0 l 1
 0 0 l 1
 281 655 l 1
 0 1280 l 1
EndSplineSet
Validated: 1
EndChar

StartChar: afii10025
Encoding: 1047 1047 256
Width: 1024
VWidth: 0
Flags: H
LayerCount: 2
Fore
SplineSet
160 1272 m 1
 160 1272 265 1288 435 1288 c 0
 710 1288 880 1203 880 946 c 0
 880 757 710 708 710 708 c 1
 710 708 912 643 912 384 c 0
 912 90 730 -8 435 -8 c 0
 245 -8 128 8 128 8 c 1
 128 157 l 1
 435 157 l 2
 625 157 742 214 742 384 c 0
 742 554 612 611 402 611 c 2
 224 611 l 1
 224 768 l 1
 390 768 l 2
 588 768 710 813 710 946 c 0
 710 1079 605 1128 435 1123 c 1
 160 1123 l 1
 160 1272 l 1
EndSplineSet
Validated: 33
EndChar

StartChar: afii10029
Encoding: 1051 1051 257
Width: 1024
VWidth: 0
Flags: H
LayerCount: 2
Fore
SplineSet
192 1280 m 1
 896 1280 l 1
 896 0 l 1
 726 0 l 1
 726 1123 l 1
 362 1123 l 1
 362 512 l 2
 362 122 288 -8 64 -8 c 1
 64 149 l 1
 160 149 192 239 192 512 c 2
 192 1280 l 1
EndSplineSet
Validated: 1
EndChar

StartChar: afii10037
Encoding: 1059 1059 258
Width: 1024
VWidth: 0
Flags: H
LayerCount: 2
Fore
SplineSet
32 1280 m 1
 214 1280 l 1
 512 512 l 1
 810 1280 l 1
 992 1280 l 1
 579 215 l 2
 525 77 493 -8 360 -8 c 0
 276 -8 224 8 224 8 c 1
 224 157 l 1
 374 157 374 157 421 277 c 1
 32 1280 l 1
EndSplineSet
Validated: 1
EndChar

StartChar: afii10040
Encoding: 1062 1062 259
Width: 1024
VWidth: 0
Flags: H
LayerCount: 2
Fore
SplineSet
128 0 m 1
 128 1280 l 1
 298 1280 l 1
 298 157 l 1
 726 157 l 1
 726 1280 l 1
 896 1280 l 1
 896 157 l 1
 1024 157 l 1
 1024 -256 l 1
 854 -256 l 1
 854 0 l 1
 128 0 l 1
EndSplineSet
Validated: 1
EndChar

StartChar: afii10041
Encoding: 1063 1063 260
Width: 1024
VWidth: 0
Flags: H
LayerCount: 2
Fore
SplineSet
896 0 m 1
 726 0 l 1
 726 520 l 1
 726 520 644 504 512 504 c 0
 275 504 128 603 128 902 c 2
 128 1280 l 1
 298 1280 l 1
 298 902 l 2
 298 727 380 669 512 669 c 2
 726 669 l 1
 726 1280 l 1
 896 1280 l 1
 896 0 l 1
EndSplineSet
Validated: 1
EndChar

StartChar: afii10042
Encoding: 1064 1064 261
Width: 1024
VWidth: 0
Flags: H
LayerCount: 2
Fore
SplineSet
64 0 m 1
 64 1280 l 1
 221 1280 l 1
 221 157 l 1
 433 157 l 1
 433 1280 l 1
 591 1280 l 1
 591 157 l 1
 803 157 l 1
 803 1280 l 1
 960 1280 l 1
 960 0 l 1
 64 0 l 1
EndSplineSet
Validated: 1
EndChar

StartChar: afii10043
Encoding: 1065 1065 262
Width: 1024
VWidth: 0
Flags: H
LayerCount: 2
Fore
SplineSet
64 0 m 1
 64 1280 l 1
 221 1280 l 1
 221 157 l 1
 433 157 l 1
 433 1280 l 1
 591 1280 l 1
 591 157 l 1
 803 157 l 1
 803 1280 l 1
 960 1280 l 1
 960 157 l 1
 1024 157 l 1
 1024 -256 l 1
 854 -256 l 1
 854 0 l 1
 64 0 l 1
EndSplineSet
Validated: 1
EndChar

StartChar: afii10044
Encoding: 1066 1066 263
Width: 1024
VWidth: 0
Flags: H
LayerCount: 2
Fore
SplineSet
0 1280 m 1
 362 1280 l 1
 362 768 l 1
 636 768 l 2
 846 768 976 642 976 438 c 0
 976 167 806 0 532 0 c 2
 192 0 l 1
 192 1123 l 1
 0 1123 l 1
 0 1280 l 1
362 611 m 1
 362 157 l 1
 532 157 l 2
 701 157 806 264 806 438 c 0
 806 545 741 611 636 611 c 2
 362 611 l 1
EndSplineSet
Validated: 1
EndChar

StartChar: afii10045
Encoding: 1067 1067 264
Width: 1024
VWidth: 0
Flags: H
LayerCount: 2
Fore
SplineSet
64 1280 m 1
 234 1280 l 1
 234 768 l 1
 340 768 l 2
 551 768 682 671 682 380 c 0
 682 89 551 0 340 0 c 2
 64 0 l 1
 64 1280 l 1
790 1280 m 1
 960 1280 l 1
 960 0 l 1
 790 0 l 1
 790 1280 l 1
234 611 m 1
 234 157 l 1
 340 157 l 2
 446 157 512 207 512 380 c 0
 512 553 446 611 340 611 c 2
 234 611 l 1
EndSplineSet
Validated: 1
EndChar

StartChar: afii10046
Encoding: 1068 1068 265
Width: 1024
VWidth: 0
Flags: H
LayerCount: 2
Fore
SplineSet
160 1280 m 1
 330 1280 l 1
 330 768 l 1
 604 768 l 2
 814 768 944 642 944 438 c 0
 944 167 774 0 500 0 c 2
 160 0 l 1
 160 1280 l 1
330 611 m 1
 330 157 l 1
 500 157 l 2
 669 157 774 264 774 438 c 0
 774 545 709 611 604 611 c 2
 330 611 l 1
EndSplineSet
Validated: 1
EndChar

StartChar: afii10047
Encoding: 1069 1069 266
Width: 1024
VWidth: 0
Flags: H
LayerCount: 2
Fore
SplineSet
359 1288 m 0
 701 1288 912 1126 912 640 c 0
 912 240 701 -8 359 -8 c 0
 216 -8 128 8 128 8 c 1
 128 157 l 1
 359 157 l 2
 583 157 725 329 734 611 c 1
 192 611 l 1
 192 768 l 1
 727 768 l 1
 696 1031 561 1123 359 1123 c 2
 128 1123 l 1
 128 1272 l 1
 128 1272 216 1288 359 1288 c 0
EndSplineSet
Validated: 1
EndChar

StartChar: afii10048
Encoding: 1070 1070 267
Width: 1024
VWidth: 0
Flags: H
LayerCount: 2
Fore
SplineSet
698 1288 m 0
 924 1288 1000 1132 1000 640 c 0
 1000 148 924 -8 698 -8 c 0
 477 -8 400 142 397 611 c 1
 234 611 l 1
 234 0 l 1
 64 0 l 1
 64 1280 l 1
 234 1280 l 1
 234 768 l 1
 399 768 l 1
 412 1159 493 1288 698 1288 c 0
698 1131 m 0
 599 1131 567 1014 567 640 c 0
 567 266 599 149 698 149 c 0
 797 149 830 266 830 640 c 0
 830 1014 797 1131 698 1131 c 0
EndSplineSet
Validated: 1
EndChar

StartChar: afii10026
Encoding: 1048 1048 282
Width: 1024
VWidth: 0
Flags: H
LayerCount: 2
Fore
SplineSet
928 1280 m 1
 928 0 l 1
 758 0 l 1
 758 768 l 1
 762 1024 l 1
 651 768 l 1
 301 0 l 1
 96 0 l 1
 96 1280 l 1
 266 1280 l 1
 266 512 l 1
 262 256 l 1
 373 512 l 1
 724 1280 l 1
 928 1280 l 1
EndSplineSet
Validated: 1
EndChar

StartChar: afii10049
Encoding: 1071 1071 293
Width: 1024
VWidth: 0
Flags: H
LayerCount: 2
Fore
SplineSet
896 1280 m 1
 896 0 l 1
 726 0 l 1
 726 611 l 1
 512 611 l 1
 249 0 l 1
 64 0 l 1
 338 636 l 1
 195 677 112 771 112 946 c 0
 112 1197 242 1280 452 1280 c 2
 896 1280 l 1
726 1123 m 1
 452 1123 l 2
 347 1123 282 1079 282 946 c 0
 282 813 387 768 556 768 c 2
 726 768 l 1
 726 1123 l 1
EndSplineSet
Validated: 1
EndChar

StartChar: afii10066
Encoding: 1073 1073 294
Width: 1024
VWidth: 0
Flags: H
LayerCount: 2
Fore
SplineSet
298 768 m 1
 520 768 l 2
 789 768 912 639 912 431 c 0
 912 155 759 -16 512 -16 c 0
 275 -16 128 134 128 376 c 2
 128 768 l 2
 128 1158 304 1288 832 1288 c 1
 832 1131 l 1
 432 1131 298 1040 298 768 c 1
520 611 m 2
 298 611 l 1
 298 376 l 2
 298 231 380 141 512 141 c 0
 654 141 742 252 742 431 c 0
 742 542 657 611 520 611 c 2
EndSplineSet
Validated: 1
EndChar

StartChar: afii10067
Encoding: 1074 1074 295
Width: 1024
VWidth: 0
Flags: H
LayerCount: 2
Fore
SplineSet
128 1024 m 1
 384 1024 l 2
 691 1024 880 950 880 729 c 0
 880 570 678 530 678 530 c 1
 678 530 944 483 944 295 c 0
 944 74 730 0 384 0 c 2
 128 0 l 1
 128 1024 l 1
298 867 m 1
 298 590 l 1
 384 590 l 2
 585 590 710 625 710 729 c 0
 710 833 585 867 384 867 c 2
 298 867 l 1
298 433 m 1
 298 157 l 1
 384 157 l 2
 625 157 774 191 774 295 c 0
 774 399 625 433 384 433 c 2
 298 433 l 1
EndSplineSet
Validated: 1
EndChar

StartChar: afii10068
Encoding: 1075 1075 296
Width: 1024
VWidth: 0
Flags: H
LayerCount: 2
Fore
SplineSet
160 0 m 1
 160 1024 l 1
 896 1024 l 1
 896 867 l 1
 330 867 l 1
 330 0 l 1
 160 0 l 1
EndSplineSet
Validated: 1
EndChar

StartChar: afii10069
Encoding: 1076 1076 297
Width: 1024
VWidth: 0
Flags: H
LayerCount: 2
Fore
SplineSet
331 1024 m 1
 832 1024 l 1
 832 157 l 1
 960 157 l 1
 960 -256 l 1
 790 -256 l 1
 790 0 l 1
 234 0 l 1
 234 -256 l 1
 64 -256 l 1
 64 157 l 1
 149 157 l 1
 331 1024 l 1
472 867 m 1
 323 157 l 1
 662 157 l 1
 662 867 l 1
 472 867 l 1
EndSplineSet
Validated: 1
EndChar

StartChar: afii10072
Encoding: 1078 1078 298
Width: 1024
VWidth: 0
Flags: H
LayerCount: 2
Fore
SplineSet
0 1024 m 1
 156 1024 l 1
 439 528 l 1
 439 1024 l 1
 585 1024 l 1
 585 528 l 1
 868 1024 l 1
 1024 1024 l 1
 736 519 l 1
 1024 0 l 1
 869 0 l 1
 585 512 l 1
 585 0 l 1
 439 0 l 1
 439 512 l 1
 155 0 l 1
 0 0 l 1
 288 519 l 1
 0 1024 l 1
EndSplineSet
Validated: 1
EndChar

StartChar: afii10073
Encoding: 1079 1079 299
Width: 1024
VWidth: 0
Flags: H
LayerCount: 2
Fore
SplineSet
160 1016 m 1
 160 1016 265 1032 435 1032 c 0
 710 1032 880 956 880 729 c 0
 880 555 726 512 726 512 c 1
 726 512 912 469 912 295 c 0
 912 68 730 -8 435 -8 c 0
 245 -8 128 8 128 8 c 1
 128 157 l 1
 435 157 l 2
 625 157 742 191 742 295 c 0
 742 399 654 433 512 433 c 2
 256 433 l 1
 256 591 l 1
 512 591 l 2
 634 591 710 625 710 729 c 0
 710 833 605 867 435 867 c 2
 160 867 l 1
 160 1016 l 1
EndSplineSet
Validated: 1
EndChar

StartChar: afii10074
Encoding: 1080 1080 300
Width: 1024
VWidth: 0
Flags: H
LayerCount: 2
Fore
SplineSet
298 290 m 1
 726 1024 l 1
 895 1024 l 1
 896 0 l 1
 726 0 l 1
 726 734 l 1
 298 0 l 1
 128 0 l 1
 128 1024 l 1
 298 1024 l 1
 298 290 l 1
EndSplineSet
Validated: 1
EndChar

StartChar: afii10077
Encoding: 1083 1083 302
Width: 1024
VWidth: 0
Flags: H
LayerCount: 2
Fore
SplineSet
256 1024 m 1
 896 1024 l 1
 896 0 l 1
 726 0 l 1
 726 867 l 1
 426 867 l 1
 426 512 l 2
 426 122 336 -8 64 -8 c 1
 64 149 l 1
 208 149 256 239 256 512 c 2
 256 1024 l 1
EndSplineSet
Validated: 1
EndChar

StartChar: afii10078
Encoding: 1084 1084 303
Width: 1024
VWidth: 0
Flags: H
LayerCount: 2
Fore
SplineSet
64 1024 m 1
 221 1024 l 1
 512 512 l 1
 803 1024 l 1
 960 1024 l 1
 960 0 l 1
 803 0 l 1
 803 749 l 1
 561 327 l 1
 461 327 l 1
 221 749 l 1
 221 0 l 1
 64 0 l 1
 64 1024 l 1
EndSplineSet
Validated: 1
EndChar

StartChar: afii10079
Encoding: 1085 1085 304
Width: 1024
VWidth: 0
Flags: H
LayerCount: 2
Fore
SplineSet
298 590 m 1
 726 590 l 1
 726 1024 l 1
 896 1024 l 1
 896 0 l 1
 726 0 l 1
 726 433 l 1
 298 433 l 1
 298 0 l 1
 128 0 l 1
 128 1024 l 1
 298 1024 l 1
 298 590 l 1
EndSplineSet
Validated: 1
EndChar

StartChar: afii10081
Encoding: 1087 1087 305
Width: 1024
VWidth: 0
Flags: H
LayerCount: 2
Fore
SplineSet
128 0 m 1
 128 1024 l 1
 896 1024 l 1
 896 0 l 1
 726 0 l 1
 726 867 l 1
 298 867 l 1
 298 0 l 1
 128 0 l 1
EndSplineSet
Validated: 1
EndChar

StartChar: afii10084
Encoding: 1090 1090 306
Width: 1024
VWidth: 0
Flags: H
LayerCount: 2
Fore
SplineSet
96 1024 m 1
 928 1024 l 1
 928 867 l 1
 597 867 l 1
 597 0 l 1
 427 0 l 1
 427 867 l 1
 96 867 l 1
 96 1024 l 1
EndSplineSet
Validated: 1
EndChar

StartChar: afii10085
Encoding: 1091 1091 307
Width: 1024
VWidth: 0
Flags: H
LayerCount: 2
Fore
SplineSet
128 -248 m 1
 128 -99 l 1
 251 -99 251 -99 300 5 c 2
 418 256 l 1
 64 1024 l 1
 251 1024 l 1
 512 459 l 1
 773 1024 l 1
 960 1024 l 1
 455 -71 l 2
 400 -190 366 -264 253 -264 c 0
 176 -264 128 -248 128 -248 c 1
EndSplineSet
Validated: 1
EndChar

StartChar: afii10088
Encoding: 1094 1094 308
Width: 1024
VWidth: 0
Flags: H
LayerCount: 2
Fore
SplineSet
128 1024 m 1
 298 1024 l 1
 298 157 l 1
 726 157 l 1
 726 1024 l 1
 896 1024 l 1
 896 157 l 1
 1024 157 l 1
 1024 -256 l 1
 854 -256 l 1
 854 0 l 1
 128 0 l 1
 128 1024 l 1
EndSplineSet
Validated: 1
EndChar

StartChar: afii10089
Encoding: 1095 1095 309
Width: 1024
VWidth: 0
Flags: H
LayerCount: 2
Fore
SplineSet
896 0 m 1
 726 0 l 1
 726 441 l 1
 726 441 644 425 512 425 c 0
 275 425 128 508 128 756 c 2
 128 1024 l 1
 298 1024 l 1
 298 756 l 2
 298 632 380 590 512 590 c 2
 726 590 l 1
 726 1024 l 1
 896 1024 l 1
 896 0 l 1
EndSplineSet
Validated: 1
EndChar

StartChar: afii10090
Encoding: 1096 1096 310
Width: 1024
VWidth: 0
Flags: H
LayerCount: 2
Fore
SplineSet
64 0 m 1
 64 1024 l 1
 221 1024 l 1
 221 157 l 1
 433 157 l 1
 433 1024 l 1
 591 1024 l 1
 591 157 l 1
 803 157 l 1
 803 1024 l 1
 960 1024 l 1
 960 0 l 1
 64 0 l 1
EndSplineSet
Validated: 1
EndChar

StartChar: afii10091
Encoding: 1097 1097 311
Width: 1024
VWidth: 0
Flags: H
LayerCount: 2
Fore
SplineSet
64 0 m 1
 64 1024 l 1
 221 1024 l 1
 221 157 l 1
 433 157 l 1
 433 1024 l 1
 591 1024 l 1
 591 157 l 1
 803 157 l 1
 803 1024 l 1
 960 1024 l 1
 960 157 l 1
 1024 157 l 1
 1024 -256 l 1
 854 -256 l 1
 854 0 l 1
 64 0 l 1
EndSplineSet
Validated: 1
EndChar

StartChar: afii10092
Encoding: 1098 1098 312
Width: 1024
VWidth: 0
Flags: H
LayerCount: 2
Fore
SplineSet
32 1024 m 1
 394 1024 l 1
 394 591 l 1
 639 591 l 2
 828 591 944 516 944 295 c 0
 944 74 789 0 539 0 c 2
 224 0 l 1
 224 867 l 1
 32 867 l 1
 32 1024 l 1
394 433 m 1
 394 157 l 1
 539 157 l 2
 684 157 774 191 774 295 c 0
 774 399 722 433 639 433 c 2
 394 433 l 1
EndSplineSet
Validated: 1
EndChar

StartChar: afii10093
Encoding: 1099 1099 313
Width: 1024
VWidth: 0
Flags: H
LayerCount: 2
Fore
SplineSet
64 1024 m 1
 234 1024 l 1
 234 591 l 1
 340 591 l 2
 551 591 682 516 682 295 c 0
 682 74 551 0 340 0 c 2
 64 0 l 1
 64 1024 l 1
790 1024 m 1
 960 1024 l 1
 960 0 l 1
 790 0 l 1
 790 1024 l 1
234 433 m 1
 234 157 l 1
 340 157 l 2
 446 157 512 191 512 295 c 0
 512 399 446 433 340 433 c 2
 234 433 l 1
EndSplineSet
Validated: 1
EndChar

StartChar: afii10094
Encoding: 1100 1100 314
Width: 1024
VWidth: 0
Flags: H
LayerCount: 2
Fore
SplineSet
160 1024 m 1
 330 1024 l 1
 330 591 l 1
 604 591 l 2
 814 591 944 516 944 295 c 0
 944 74 774 0 500 0 c 2
 160 0 l 1
 160 1024 l 1
330 433 m 1
 330 157 l 1
 500 157 l 2
 669 157 774 191 774 295 c 0
 774 399 709 433 604 433 c 2
 330 433 l 1
EndSplineSet
Validated: 1
EndChar

StartChar: afii10095
Encoding: 1101 1101 315
Width: 1024
VWidth: 0
Flags: H
LayerCount: 2
Fore
SplineSet
382 1032 m 0
 698 1032 912 902 912 512 c 0
 912 191 698 -8 382 -8 c 0
 245 -8 160 8 160 8 c 1
 160 157 l 1
 382 157 l 2
 576 157 706 261 736 433 c 1
 224 433 l 1
 224 590 l 1
 737 590 l 1
 712 796 581 867 382 867 c 2
 160 867 l 1
 160 1016 l 1
 160 1016 245 1032 382 1032 c 0
EndSplineSet
Validated: 1
EndChar

StartChar: afii10096
Encoding: 1102 1102 316
Width: 1024
VWidth: 0
Flags: H
LayerCount: 2
Fore
SplineSet
698 1032 m 0
 884 1032 1000 902 1000 512 c 0
 1000 122 884 -8 698 -8 c 0
 525 -8 414 104 399 433 c 1
 234 433 l 1
 234 0 l 1
 64 0 l 1
 64 1024 l 1
 234 1024 l 1
 234 591 l 1
 399 591 l 1
 414 920 525 1032 698 1032 c 0
698 864 m 0
 600 864 567 776 567 512 c 0
 567 248 600 149 698 149 c 0
 796 149 830 248 830 512 c 0
 830 776 796 864 698 864 c 0
EndSplineSet
Validated: 1
EndChar

StartChar: afii10097
Encoding: 1103 1103 317
Width: 1024
VWidth: 0
Flags: H
LayerCount: 2
Fore
SplineSet
452 1024 m 2
 896 1024 l 1
 896 0 l 1
 726 0 l 1
 726 433 l 1
 594 433 512 434 512 434 c 1
 248 0 l 1
 64 0 l 1
 341 455 l 1
 196 491 112 573 112 729 c 0
 112 951 242 1024 452 1024 c 2
452 867 m 2
 347 867 282 833 282 729 c 0
 282 623 387 590 556 590 c 2
 726 590 l 1
 726 867 l 1
 452 867 l 2
EndSplineSet
Validated: 1
EndChar

StartChar: afii10099
Encoding: 1106 1106 325
Width: 1024
VWidth: 0
Flags: H
LayerCount: 2
Fore
SplineSet
128 1280 m 1
 298 1280 l 1
 298 1103 l 1
 576 1103 l 1
 576 945 l 1
 298 945 l 1
 298 760 l 1
 298 760 380 776 512 776 c 0
 749 776 896 677 896 378 c 2
 896 172 l 2
 896 -155 781 -264 594 -264 c 0
 543 -264 512 -248 512 -248 c 1
 512 -99 l 1
 594 -99 l 2
 676 -99 726 -31 726 172 c 2
 726 378 l 2
 726 553 644 611 512 611 c 2
 298 611 l 1
 298 0 l 1
 128 0 l 1
 128 945 l 1
 0 945 l 1
 0 1103 l 1
 128 1103 l 1
 128 1280 l 1
EndSplineSet
Validated: 1
EndChar

StartChar: afii10101
Encoding: 1108 1108 326
Width: 1024
VWidth: 0
Flags: H
LayerCount: 2
Fore
SplineSet
642 1032 m 0
 779 1032 864 1016 864 1016 c 1
 864 867 l 1
 642 867 l 2
 448 867 317 763 288 590 c 1
 800 590 l 1
 800 433 l 1
 287 433 l 1
 313 228 444 157 642 157 c 2
 864 157 l 1
 864 8 l 1
 864 8 779 -8 642 -8 c 0
 326 -8 112 122 112 512 c 0
 112 833 326 1032 642 1032 c 0
EndSplineSet
Validated: 1
EndChar

StartChar: afii10106
Encoding: 1113 1113 327
Width: 1024
VWidth: 0
Flags: H
LayerCount: 2
Fore
SplineSet
128 1024 m 1
 597 1024 l 1
 597 590 l 1
 831 590 976 516 976 295 c 0
 976 74 831 0 597 0 c 2
 427 0 l 1
 427 867 l 1
 298 867 l 1
 298 512 l 2
 298 122 224 -8 0 -8 c 1
 0 149 l 1
 96 149 128 239 128 512 c 2
 128 1024 l 1
806 295 m 0
 806 399 726 433 597 433 c 1
 597 157 l 1
 726 157 806 191 806 295 c 0
EndSplineSet
Validated: 1
EndChar

StartChar: afii10107
Encoding: 1114 1114 328
Width: 1024
VWidth: 0
Flags: H
LayerCount: 2
Fore
SplineSet
64 1024 m 1
 234 1024 l 1
 234 590 l 1
 427 590 l 1
 427 1024 l 1
 597 1024 l 1
 597 590 l 1
 831 590 976 516 976 295 c 0
 976 74 831 0 597 0 c 2
 427 0 l 1
 427 433 l 1
 234 433 l 1
 234 0 l 1
 64 0 l 1
 64 1024 l 1
806 295 m 0
 806 399 726 433 597 433 c 1
 597 157 l 1
 726 157 806 191 806 295 c 0
EndSplineSet
Validated: 1
EndChar

StartChar: uni0460
Encoding: 1120 1120 329
Width: 1024
VWidth: 0
Flags: H
LayerCount: 2
Fore
SplineSet
384 1288 m 1
 384 1131 l 1
 261 1131 220 1002 220 640 c 0
 220 278 250 141 341 141 c 0
 406 141 427 269 427 475 c 2
 427 640 l 1
 597 640 l 1
 597 475 l 2
 597 269 618 141 683 141 c 0
 774 141 804 278 804 640 c 0
 804 1002 763 1131 640 1131 c 1
 640 1288 l 1
 892 1288 976 1120 976 640 c 0
 976 160 903 -16 683 -16 c 0
 512 -16 512 256 512 256 c 1
 512 256 512 -16 341 -16 c 0
 121 -16 48 160 48 640 c 0
 48 1120 132 1288 384 1288 c 1
EndSplineSet
Validated: 1
EndChar

StartChar: uni0461
Encoding: 1121 1121 330
Width: 1024
VWidth: 0
Flags: H
LayerCount: 2
Fore
SplineSet
32 1024 m 1
 192 1024 l 1
 337 216 l 1
 451 851 l 1
 420 1024 l 1
 568 1024 l 1
 713 216 l 1
 713 216 827 492 827 768 c 0
 827 926 796 1024 796 1024 c 1
 953 1024 l 1
 953 1024 984 926 984 768 c 0
 984 475 790 0 790 0 c 1
 604 0 l 1
 512 512 l 1
 420 0 l 1
 216 0 l 1
 32 1024 l 1
EndSplineSet
Validated: 1
EndChar

StartChar: afii10146
Encoding: 1122 1122 331
Width: 1024
VWidth: 0
Flags: H
LayerCount: 2
Fore
SplineSet
32 1280 m 1
 672 1280 l 1
 672 1123 l 1
 394 1123 l 1
 394 760 l 1
 394 760 454 776 551 776 c 0
 814 776 976 671 976 380 c 0
 976 89 814 0 551 0 c 2
 224 0 l 1
 224 1123 l 1
 32 1123 l 1
 32 1280 l 1
394 611 m 1
 394 157 l 1
 551 157 l 2
 709 157 806 207 806 380 c 0
 806 553 709 611 551 611 c 2
 394 611 l 1
EndSplineSet
Validated: 1
EndChar

StartChar: afii10194
Encoding: 1123 1123 332
Width: 1024
VWidth: 0
Flags: H
LayerCount: 2
Fore
SplineSet
160 1280 m 1
 330 1280 l 1
 330 1103 l 1
 768 1103 l 1
 768 945 l 1
 330 945 l 1
 330 760 l 1
 330 760 395 776 500 776 c 0
 774 776 944 671 944 380 c 0
 944 89 774 0 500 0 c 2
 160 0 l 1
 160 945 l 1
 32 945 l 1
 32 1103 l 1
 160 1103 l 1
 160 1280 l 1
330 611 m 1
 330 157 l 1
 500 157 l 2
 669 157 774 207 774 380 c 0
 774 553 669 611 500 611 c 2
 330 611 l 1
EndSplineSet
Validated: 1
EndChar

StartChar: uni0464
Encoding: 1124 1124 333
Width: 1024
VWidth: 0
Flags: H
LayerCount: 2
Fore
SplineSet
810 1288 m 0
 903 1288 960 1272 960 1272 c 1
 960 1123 l 1
 810 1123 l 2
 679 1123 591 1040 571 768 c 1
 960 768 l 1
 960 611 l 1
 567 611 l 1
 572 260 664 157 810 157 c 2
 960 157 l 1
 960 8 l 1
 960 8 903 -8 810 -8 c 0
 560 -8 403 133 397 611 c 1
 234 611 l 1
 234 0 l 1
 64 0 l 1
 64 1280 l 1
 234 1280 l 1
 234 768 l 1
 401 768 l 1
 427 1166 578 1288 810 1288 c 0
EndSplineSet
Validated: 1
EndChar

StartChar: uni0465
Encoding: 1125 1125 334
Width: 1024
VWidth: 0
Flags: H
LayerCount: 2
Fore
SplineSet
810 1032 m 0
 903 1032 960 1016 960 1016 c 1
 960 867 l 1
 810 867 l 2
 676 867 587 796 570 591 c 1
 960 591 l 1
 960 433 l 1
 570 433 l 1
 587 228 676 157 810 157 c 2
 960 157 l 1
 960 8 l 1
 960 8 903 -8 810 -8 c 0
 574 -8 421 121 400 433 c 1
 234 433 l 1
 234 0 l 1
 64 0 l 1
 64 1024 l 1
 234 1024 l 1
 234 591 l 1
 400 591 l 1
 421 903 574 1032 810 1032 c 0
EndSplineSet
Validated: 1
EndChar

StartChar: uni0466
Encoding: 1126 1126 335
Width: 1024
VWidth: 0
Flags: H
LayerCount: 2
Fore
SplineSet
410 1280 m 1
 614 1280 l 1
 1024 0 l 1
 859 0 l 1
 720 433 l 1
 591 433 l 1
 591 0 l 1
 433 0 l 1
 433 433 l 1
 304 433 l 1
 165 0 l 1
 0 0 l 1
 410 1280 l 1
512 1084 m 1
 354 591 l 1
 670 591 l 1
 512 1084 l 1
EndSplineSet
Validated: 1
EndChar

StartChar: uni0467
Encoding: 1127 1127 336
Width: 1024
VWidth: 0
Flags: H
LayerCount: 2
Fore
SplineSet
410 1024 m 1
 614 1024 l 1
 1024 0 l 1
 867 0 l 1
 720 366 l 1
 585 366 l 1
 585 0 l 1
 439 0 l 1
 439 366 l 1
 304 366 l 1
 157 0 l 1
 0 0 l 1
 410 1024 l 1
512 886 m 1
 362 512 l 1
 662 512 l 1
 512 886 l 1
EndSplineSet
Validated: 1
EndChar

StartChar: uni0468
Encoding: 1128 1128 337
Width: 1024
VWidth: 0
Flags: H
LayerCount: 2
Fore
SplineSet
64 1280 m 1
 234 1280 l 1
 234 768 l 1
 435 768 l 1
 555 1280 l 1
 725 1280 l 1
 1024 0 l 1
 863 0 l 1
 762 433 l 1
 719 433 l 1
 719 0 l 1
 561 0 l 1
 561 433 l 1
 518 433 l 1
 417 0 l 1
 256 0 l 1
 399 611 l 1
 234 611 l 1
 234 0 l 1
 64 0 l 1
 64 1280 l 1
640 1024 m 1
 596 768 l 1
 555 591 l 1
 725 591 l 1
 684 768 l 1
 640 1024 l 1
EndSplineSet
Validated: 1
EndChar

StartChar: uni0469
Encoding: 1129 1129 338
Width: 1024
VWidth: 0
Flags: H
LayerCount: 2
Fore
SplineSet
64 1024 m 1
 221 1024 l 1
 221 585 l 1
 427 585 l 1
 555 1024 l 1
 725 1024 l 1
 1024 0 l 1
 872 0 l 1
 765 366 l 1
 713 366 l 1
 713 0 l 1
 567 0 l 1
 567 366 l 1
 515 366 l 1
 408 0 l 1
 256 0 l 1
 384 439 l 1
 221 439 l 1
 221 0 l 1
 64 0 l 1
 64 1024 l 1
640 794 m 1
 558 512 l 1
 722 512 l 1
 640 794 l 1
EndSplineSet
Validated: 1
EndChar

StartChar: uni046A
Encoding: 1130 1130 339
Width: 1024
VWidth: 0
Flags: H
LayerCount: 2
Fore
SplineSet
128 1280 m 1
 896 1280 l 1
 655 753 l 1
 847 710 960 574 960 378 c 2
 960 0 l 1
 803 0 l 1
 803 378 l 2
 803 500 724 582 591 605 c 1
 591 0 l 1
 433 0 l 1
 433 605 l 1
 300 582 221 500 221 378 c 2
 221 0 l 1
 64 0 l 1
 64 378 l 2
 64 574 177 710 369 753 c 1
 128 1280 l 1
340 1144 m 1
 512 768 l 1
 684 1144 l 1
 340 1144 l 1
EndSplineSet
Validated: 1
EndChar

StartChar: uni046B
Encoding: 1131 1131 340
Width: 1024
VWidth: 0
Flags: H
LayerCount: 2
Fore
SplineSet
128 1024 m 1
 896 1024 l 1
 659 572 l 1
 848 536 960 428 960 271 c 2
 960 0 l 1
 803 0 l 1
 803 271 l 2
 803 359 724 418 591 434 c 1
 591 0 l 1
 433 0 l 1
 433 434 l 1
 300 418 221 359 221 271 c 2
 221 0 l 1
 64 0 l 1
 64 271 l 2
 64 428 176 536 365 572 c 1
 128 1024 l 1
358 878 m 1
 512 585 l 1
 666 878 l 1
 358 878 l 1
EndSplineSet
Validated: 1
EndChar

StartChar: uni046C
Encoding: 1132 1132 341
Width: 1024
VWidth: 0
Flags: H
LayerCount: 2
Fore
SplineSet
64 1280 m 1
 234 1280 l 1
 234 768 l 1
 518 768 l 1
 320 1280 l 1
 992 1280 l 1
 785 746 l 1
 916 696 992 564 992 378 c 2
 992 0 l 1
 846 0 l 1
 846 378 l 2
 846 489 803 567 729 597 c 1
 729 0 l 1
 583 0 l 1
 583 597 l 1
 509 567 466 489 466 378 c 2
 466 0 l 1
 320 0 l 1
 320 378 l 2
 320 522 393 611 393 611 c 1
 234 611 l 1
 234 0 l 1
 64 0 l 1
 64 1280 l 1
510 1144 m 1
 656 768 l 1
 802 1144 l 1
 510 1144 l 1
EndSplineSet
Validated: 1
EndChar

StartChar: uni046D
Encoding: 1133 1133 342
Width: 1024
VWidth: 0
Flags: H
LayerCount: 2
Fore
SplineSet
320 1024 m 1
 992 1024 l 1
 788 566 l 1
 917 525 992 420 992 271 c 2
 992 0 l 1
 846 0 l 1
 846 271 l 2
 846 351 803 407 729 429 c 1
 729 0 l 1
 583 0 l 1
 583 429 l 1
 509 407 466 351 466 271 c 2
 466 0 l 1
 320 0 l 1
 320 271 l 2
 320 375 403 439 403 439 c 1
 221 439 l 1
 221 0 l 1
 64 0 l 1
 64 1024 l 1
 221 1024 l 1
 221 585 l 1
 516 585 l 1
 320 1024 l 1
521 888 m 1
 656 585 l 1
 791 888 l 1
 521 888 l 1
EndSplineSet
Validated: 1
EndChar

StartChar: uni046E
Encoding: 1134 1134 343
Width: 1024
VWidth: 0
Flags: H
LayerCount: 2
Fore
SplineSet
226 1536 m 1
 364 1536 l 1
 512 1280 l 1
 660 1536 l 1
 798 1536 l 1
 634 1252 l 1
 770 1199 848 1092 848 946 c 0
 848 756 678 708 678 708 c 1
 678 708 912 653 912 434 c 0
 912 227 759 99 512 99 c 0
 370 99 282 61 282 0 c 0
 282 -74 337 -99 504 -99 c 2
 864 -99 l 1
 864 -256 l 1
 504 -256 l 2
 210 -256 112 -192 112 0 c 0
 112 158 265 256 512 256 c 0
 654 256 742 324 742 434 c 0
 742 576 619 611 419 611 c 2
 224 611 l 1
 224 768 l 1
 419 768 l 2
 579 768 678 804 678 946 c 0
 678 1055 579 1123 419 1123 c 2
 160 1123 l 1
 160 1272 l 1
 160 1272 239 1284 369 1287 c 1
 226 1536 l 1
EndSplineSet
Validated: 1
EndChar

StartChar: uni046F
Encoding: 1135 1135 344
Width: 1024
VWidth: 0
Flags: H
LayerCount: 2
Fore
SplineSet
226 1280 m 1
 364 1280 l 1
 512 1024 l 1
 660 1280 l 1
 798 1280 l 1
 642 1009 l 1
 773 975 848 902 848 768 c 0
 848 626 678 591 678 591 c 1
 678 591 912 550 912 384 c 0
 912 170 759 99 512 99 c 0
 370 99 282 61 282 0 c 0
 282 -74 337 -99 504 -99 c 2
 864 -99 l 1
 864 -256 l 1
 504 -256 l 2
 210 -256 112 -192 112 0 c 0
 112 158 265 256 512 256 c 0
 654 256 742 288 742 384 c 0
 742 480 619 512 419 512 c 2
 224 512 l 1
 224 669 l 1
 419 669 l 2
 579 669 678 694 678 768 c 0
 678 842 579 867 419 867 c 2
 160 867 l 1
 160 1016 l 1
 160 1016 239 1028 369 1031 c 1
 226 1280 l 1
EndSplineSet
Validated: 1
EndChar

StartChar: afii10148
Encoding: 1140 1140 349
Width: 1024
VWidth: 0
Flags: H
LayerCount: 2
Fore
SplineSet
1024 1123 m 1
 918 1123 918 1123 891 1024 c 2
 614 0 l 1
 410 0 l 1
 32 1280 l 1
 209 1280 l 1
 482 354 l 1
 512 177 l 1
 534 354 l 1
 727 1068 l 2
 764 1204 786 1288 911 1288 c 0
 981 1288 1024 1272 1024 1272 c 1
 1024 1123 l 1
EndSplineSet
Validated: 1
EndChar

StartChar: afii10196
Encoding: 1141 1141 350
Width: 1024
VWidth: 0
Flags: H
LayerCount: 2
Fore
SplineSet
992 867 m 1
 880 867 880 867 834 718 c 2
 614 0 l 1
 410 0 l 1
 64 1024 l 1
 243 1024 l 1
 469 354 l 1
 512 177 l 1
 545 354 l 1
 672 768 l 2
 722 931 753 1032 870 1032 c 0
 945 1032 992 1016 992 1016 c 1
 992 867 l 1
EndSplineSet
Validated: 1
EndChar

StartChar: uni0478
Encoding: 1144 1144 351
Width: 1024
VWidth: 0
Flags: H
LayerCount: 2
Fore
SplineSet
284 1288 m 0
 512 1288 512 1132 512 640 c 0
 512 148 512 -8 284 -8 c 0
 56 -8 56 148 56 640 c 0
 56 1132 56 1288 284 1288 c 0
284 1160 m 0
 192 1160 192 1014 192 640 c 0
 192 266 192 120 284 120 c 0
 376 120 376 266 376 640 c 0
 376 1014 376 1160 284 1160 c 0
512 1024 m 1
 643 1024 l 1
 730 640 l 1
 752 512 l 1
 774 640 l 1
 861 1024 l 1
 992 1024 l 1
 753 -28 l 2
 720 -174 699 -264 604 -264 c 0
 547 -264 512 -248 512 -248 c 1
 512 -128 l 1
 599 -128 599 -128 628 0 c 2
 686 256 l 1
 512 1024 l 1
EndSplineSet
Validated: 1
EndChar

StartChar: uni0479
Encoding: 1145 1145 352
Width: 1024
VWidth: 0
Flags: H
LayerCount: 2
Fore
SplineSet
284 1032 m 0
 512 1032 512 902 512 512 c 0
 512 122 512 -8 284 -8 c 0
 56 -8 56 122 56 512 c 0
 56 902 56 1032 284 1032 c 0
284 904 m 0
 192 904 192 806 192 512 c 0
 192 218 192 120 284 120 c 0
 376 120 376 218 376 512 c 0
 376 806 376 904 284 904 c 0
512 1024 m 1
 643 1024 l 1
 730 640 l 1
 752 512 l 1
 774 640 l 1
 861 1024 l 1
 992 1024 l 1
 753 -28 l 2
 720 -174 699 -264 604 -264 c 0
 547 -264 512 -248 512 -248 c 1
 512 -128 l 1
 599 -128 599 -128 628 0 c 2
 686 256 l 1
 512 1024 l 1
EndSplineSet
Validated: 1
EndChar

StartChar: uni047A
Encoding: 1146 1146 353
Width: 1024
VWidth: 0
Flags: H
LayerCount: 2
Fore
SplineSet
512 1388 m 0
 586 1388 649 1340 672 1274 c 1
 863 1216 976 1032 976 640 c 0
 976 248 863 64 672 6 c 1
 649 -60 586 -108 512 -108 c 0
 438 -108 375 -60 352 6 c 1
 161 64 48 248 48 640 c 0
 48 1032 161 1216 352 1274 c 1
 375 1340 438 1388 512 1388 c 0
382 1108 m 1
 283 1051 226 911 226 640 c 0
 226 369 283 229 382 172 c 1
 413 209 460 233 512 233 c 0
 564 233 611 209 642 172 c 1
 741 229 798 369 798 640 c 0
 798 911 741 1051 642 1108 c 1
 611 1071 564 1047 512 1047 c 0
 460 1047 413 1071 382 1108 c 1
EndSplineSet
Validated: 1
EndChar

StartChar: uni047B
Encoding: 1147 1147 354
Width: 1024
VWidth: 0
Flags: H
LayerCount: 2
Fore
SplineSet
512 1132 m 0
 586 1132 648 1086 672 1020 c 1
 843 970 944 821 944 512 c 0
 944 203 843 54 672 4 c 1
 648 -62 586 -108 512 -108 c 0
 438 -108 376 -62 352 4 c 1
 181 54 80 203 80 512 c 0
 80 821 181 970 352 1020 c 1
 376 1086 438 1132 512 1132 c 0
380 853 m 1
 297 807 250 704 250 512 c 0
 250 320 297 217 380 171 c 1
 411 209 459 233 512 233 c 0
 565 233 613 209 644 171 c 1
 727 217 774 320 774 512 c 0
 774 704 727 807 644 853 c 1
 613 815 565 791 512 791 c 0
 459 791 411 815 380 853 c 1
EndSplineSet
Validated: 1
EndChar

StartChar: uni047C
Encoding: 1148 1148 355
Width: 1024
VWidth: 0
Flags: H
LayerCount: 2
Fore
SplineSet
428 1648 m 0
 570 1648 614 1536 800 1536 c 1
 800 1424 l 1
 570 1424 570 1536 428 1536 c 0
 344 1536 344 1493 344 1424 c 1
 224 1424 l 1
 224 1592 302 1648 428 1648 c 0
400 1408 m 1
 624 1408 l 1
 624 1152 l 1
 522 1152 l 1
 522 1306 l 1
 400 1306 l 1
 400 1408 l 1
341 1288 m 1
 341 1131 l 1
 250 1131 220 1002 220 640 c 0
 220 278 250 141 341 141 c 0
 406 141 427 185 427 256 c 1
 597 256 l 1
 597 185 618 141 683 141 c 0
 774 141 804 278 804 640 c 0
 804 1002 774 1131 683 1131 c 1
 683 1288 l 1
 903 1288 976 1120 976 640 c 0
 976 160 903 -16 683 -16 c 0
 546 -16 512 81 512 81 c 1
 512 81 478 -16 341 -16 c 0
 121 -16 48 160 48 640 c 0
 48 1120 121 1288 341 1288 c 1
EndSplineSet
Validated: 1
EndChar

StartChar: uni047D
Encoding: 1149 1149 356
Width: 1024
VWidth: 0
Flags: H
LayerCount: 2
Fore
SplineSet
428 1648 m 0
 570 1648 614 1536 800 1536 c 1
 800 1424 l 1
 570 1424 570 1536 428 1536 c 0
 344 1536 344 1493 344 1424 c 1
 224 1424 l 1
 224 1592 302 1648 428 1648 c 0
400 1408 m 1
 624 1408 l 1
 624 1152 l 1
 522 1152 l 1
 522 1306 l 1
 400 1306 l 1
 400 1408 l 1
384 1032 m 1
 384 875 l 1
 261 875 220 778 220 512 c 0
 220 246 250 141 341 141 c 0
 406 141 427 185 427 256 c 1
 597 256 l 1
 597 185 618 141 683 141 c 0
 774 141 804 246 804 512 c 0
 804 778 763 875 640 875 c 1
 640 1032 l 1
 892 1032 976 896 976 512 c 0
 976 128 903 -16 683 -16 c 0
 546 -16 512 81 512 81 c 1
 512 81 478 -16 341 -16 c 0
 121 -16 48 128 48 512 c 0
 48 896 132 1032 384 1032 c 1
EndSplineSet
Validated: 1
EndChar

StartChar: uni047E
Encoding: 1150 1150 357
Width: 1024
VWidth: 0
Flags: H
LayerCount: 2
Fore
SplineSet
128 1664 m 1
 896 1664 l 1
 806 1408 l 1
 774 1408 l 1
 726 1544 l 1
 576 1544 l 1
 528 1408 l 1
 496 1408 l 1
 448 1544 l 1
 298 1544 l 1
 250 1408 l 1
 218 1408 l 1
 128 1664 l 1
384 1288 m 1
 384 1131 l 1
 261 1131 220 1002 220 640 c 0
 220 278 250 141 341 141 c 0
 406 141 427 269 427 475 c 2
 427 640 l 1
 597 640 l 1
 597 475 l 2
 597 269 618 141 683 141 c 0
 774 141 804 278 804 640 c 0
 804 1002 763 1131 640 1131 c 1
 640 1288 l 1
 892 1288 976 1120 976 640 c 0
 976 160 903 -16 683 -16 c 0
 512 -16 512 256 512 256 c 1
 512 256 512 -16 341 -16 c 0
 121 -16 48 160 48 640 c 0
 48 1120 132 1288 384 1288 c 1
EndSplineSet
Validated: 1
EndChar

StartChar: uni047F
Encoding: 1151 1151 358
Width: 1024
VWidth: 0
Flags: H
LayerCount: 2
Fore
SplineSet
128 1408 m 1
 896 1408 l 1
 806 1152 l 1
 774 1152 l 1
 726 1288 l 1
 576 1288 l 1
 528 1152 l 1
 496 1152 l 1
 448 1288 l 1
 298 1288 l 1
 250 1152 l 1
 218 1152 l 1
 128 1408 l 1
32 1024 m 1
 192 1024 l 1
 337 216 l 1
 451 851 l 1
 420 1024 l 1
 568 1024 l 1
 713 216 l 1
 713 216 827 492 827 768 c 0
 827 926 796 1024 796 1024 c 1
 953 1024 l 1
 953 1024 984 926 984 768 c 0
 984 475 790 0 790 0 c 1
 604 0 l 1
 512 512 l 1
 420 0 l 1
 216 0 l 1
 32 1024 l 1
EndSplineSet
Validated: 1
EndChar

StartChar: uni0480
Encoding: 1152 1152 359
Width: 1024
VWidth: 0
Flags: H
LayerCount: 2
Fore
SplineSet
665 1288 m 0
 808 1288 896 1272 896 1272 c 1
 896 1123 l 1
 665 1123 l 2
 433 1123 290 939 290 640 c 0
 290 278 433 157 665 157 c 2
 768 157 l 1
 768 -256 l 1
 598 -256 l 1
 598 -6 l 1
 296 15 112 187 112 640 c 0
 112 1040 323 1288 665 1288 c 0
EndSplineSet
Validated: 1
EndChar

StartChar: uni0481
Encoding: 1153 1153 360
Width: 1024
VWidth: 0
Flags: H
LayerCount: 2
Fore
SplineSet
642 1032 m 0
 779 1032 864 1016 864 1016 c 1
 864 867 l 1
 642 867 l 2
 420 867 282 731 282 512 c 0
 282 246 420 157 642 157 c 2
 768 157 l 1
 768 -256 l 1
 598 -256 l 1
 598 -7 l 1
 306 5 112 140 112 512 c 0
 112 833 326 1032 642 1032 c 0
EndSplineSet
Validated: 1
EndChar

StartChar: uni0482
Encoding: 1154 1154 361
Width: 1024
VWidth: 0
Flags: H
LayerCount: 2
Fore
SplineSet
592 1280 m 1
 768 1280 l 1
 667 894 l 1
 956 818 l 1
 916 666 l 1
 627 742 l 1
 562 495 l 1
 851 419 l 1
 811 267 l 1
 522 343 l 1
 432 0 l 1
 256 0 l 1
 357 386 l 1
 68 462 l 1
 108 614 l 1
 397 538 l 1
 462 785 l 1
 173 861 l 1
 213 1013 l 1
 502 937 l 1
 592 1280 l 1
EndSplineSet
Validated: 1
EndChar

StartChar: uni0483
Encoding: 1155 1155 362
Width: 1024
VWidth: 0
Flags: H
LayerCount: 2
Fore
SplineSet
768 1448 m 0
 830 1448 880 1398 880 1336 c 0
 880 1274 830 1224 768 1224 c 2
 368 1224 l 1
 368 1162 318 1112 256 1112 c 0
 194 1112 144 1162 144 1224 c 0
 144 1286 194 1336 256 1336 c 2
 656 1336 l 1
 656 1398 706 1448 768 1448 c 0
EndSplineSet
Validated: 1
EndChar

StartChar: uni0484
Encoding: 1156 1156 363
Width: 1024
VWidth: 0
Flags: H
LayerCount: 2
Fore
SplineSet
224 1280 m 1
 410 1280 454 1392 596 1392 c 0
 722 1392 800 1336 800 1168 c 1
 680 1168 l 1
 680 1237 680 1280 596 1280 c 0
 454 1280 454 1168 224 1168 c 1
 224 1280 l 1
EndSplineSet
Validated: 1
EndChar

StartChar: uni0487
Encoding: 1159 1159 364
Width: 1024
VWidth: 0
Flags: H
LayerCount: 2
Fore
SplineSet
992 1264 m 1
 992 1152 l 1
 603 1152 603 1296 362 1296 c 0
 232 1296 152 1241 152 1152 c 1
 32 1152 l 1
 32 1310 158 1408 362 1408 c 0
 603 1408 677 1264 992 1264 c 1
EndSplineSet
Validated: 1
EndChar

StartChar: uni0488
Encoding: 1160 1160 365
Width: 1024
VWidth: 0
Flags: H
LayerCount: 2
Fore
SplineSet
512 1264 m 0
 618 1264 683 1208 683 1040 c 1
 581 1040 l 1
 581 1132 555 1162 512 1162 c 0
 469 1162 443 1132 443 1040 c 1
 341 1040 l 1
 341 1208 406 1264 512 1264 c 0
256 1008 m 0
 362 1008 427 952 427 784 c 1
 325 784 l 1
 325 876 299 906 256 906 c 0
 213 906 187 876 187 784 c 1
 85 784 l 1
 85 952 150 1008 256 1008 c 0
768 1008 m 0
 874 1008 939 952 939 784 c 1
 837 784 l 1
 837 876 811 906 768 906 c 0
 725 906 699 876 699 784 c 1
 597 784 l 1
 597 952 662 1008 768 1008 c 0
171 752 m 0
 277 752 342 696 342 528 c 1
 240 528 l 1
 240 620 214 650 171 650 c 0
 128 650 102 620 102 528 c 1
 0 528 l 1
 0 696 65 752 171 752 c 0
853 752 m 0
 959 752 1024 696 1024 528 c 1
 922 528 l 1
 922 620 896 650 853 650 c 0
 810 650 784 620 784 528 c 1
 682 528 l 1
 682 696 747 752 853 752 c 0
256 496 m 0
 362 496 427 440 427 272 c 1
 325 272 l 1
 325 364 299 394 256 394 c 0
 213 394 187 364 187 272 c 1
 85 272 l 1
 85 440 150 496 256 496 c 0
768 496 m 0
 874 496 939 440 939 272 c 1
 837 272 l 1
 837 364 811 394 768 394 c 0
 725 394 699 364 699 272 c 1
 597 272 l 1
 597 440 662 496 768 496 c 0
512 240 m 0
 618 240 683 184 683 16 c 1
 581 16 l 1
 581 108 555 138 512 138 c 0
 469 138 443 108 443 16 c 1
 341 16 l 1
 341 184 406 240 512 240 c 0
EndSplineSet
Validated: 1
EndChar

StartChar: uni0489
Encoding: 1161 1161 366
Width: 1024
VWidth: 0
Flags: H
LayerCount: 2
Fore
SplineSet
512 1280 m 1
 608 1280 l 1
 512 1152 l 1
 512 1024 l 1
 384 1024 l 1
 384 1152 l 1
 512 1280 l 1
233 1107 m 1
 256 949 l 1
 347 859 l 1
 256 768 l 1
 165 859 l 1
 165 1040 l 1
 233 1107 l 1
678 1024 m 1
 859 1024 l 1
 927 956 l 1
 769 933 l 1
 678 843 l 1
 587 933 l 1
 678 1024 l 1
768 768 m 1
 896 768 l 1
 1024 640 l 1
 1024 544 l 1
 896 640 l 1
 768 640 l 1
 768 768 l 1
0 736 m 1
 128 640 l 1
 256 640 l 1
 256 512 l 1
 128 512 l 1
 0 640 l 1
 0 736 l 1
768 512 m 1
 859 421 l 1
 859 240 l 1
 791 173 l 1
 768 331 l 1
 677 421 l 1
 768 512 l 1
347 437 m 1
 438 347 l 1
 347 256 l 1
 166 256 l 1
 98 324 l 1
 256 347 l 1
 347 437 l 1
512 256 m 1
 640 256 l 1
 640 128 l 1
 512 0 l 1
 416 0 l 1
 512 128 l 1
 512 256 l 1
EndSplineSet
Validated: 1
EndChar

StartChar: uni048C
Encoding: 1164 1164 367
Width: 1024
VWidth: 0
Flags: H
LayerCount: 2
Fore
SplineSet
160 1280 m 1
 330 1280 l 1
 330 1103 l 1
 576 1103 l 1
 576 945 l 1
 330 945 l 1
 330 768 l 1
 604 768 l 2
 814 768 944 642 944 438 c 0
 944 167 774 0 500 0 c 2
 160 0 l 1
 160 945 l 1
 0 945 l 1
 0 1103 l 1
 160 1103 l 1
 160 1280 l 1
330 611 m 1
 330 157 l 1
 500 157 l 2
 669 157 774 264 774 438 c 0
 774 545 709 611 604 611 c 2
 330 611 l 1
EndSplineSet
Validated: 1
EndChar

StartChar: uni048D
Encoding: 1165 1165 368
Width: 1024
VWidth: 0
Flags: H
LayerCount: 2
Fore
SplineSet
160 1278 m 1
 330 1278 l 1
 330 1181 l 1
 576 1181 l 1
 576 1024 l 1
 330 1024 l 1
 330 591 l 1
 604 591 l 2
 814 591 944 516 944 295 c 0
 944 74 774 0 500 0 c 2
 160 0 l 1
 160 1024 l 1
 0 1024 l 1
 0 1181 l 1
 160 1181 l 1
 160 1278 l 1
330 433 m 1
 330 157 l 1
 500 157 l 2
 669 157 774 191 774 295 c 0
 774 399 709 433 604 433 c 2
 330 433 l 1
EndSplineSet
Validated: 1
EndChar

StartChar: uni048E
Encoding: 1166 1166 369
Width: 1024
VWidth: 0
Flags: H
LayerCount: 2
Fore
SplineSet
160 1280 m 1
 604 1280 l 2
 814 1280 944 1133 944 896 c 0
 944 768 894 666 805 599 c 1
 895 458 l 1
 787 390 l 1
 691 541 l 1
 635 522 571 512 500 512 c 2
 330 512 l 1
 330 0 l 1
 160 0 l 1
 160 1280 l 1
330 1123 m 1
 330 669 l 1
 500 669 l 2
 537 669 571 673 602 681 c 1
 512 822 l 1
 620 890 l 1
 714 742 l 1
 753 780 774 833 774 896 c 0
 774 1036 709 1123 604 1123 c 2
 330 1123 l 1
EndSplineSet
Validated: 1
EndChar

StartChar: uni048F
Encoding: 1167 1167 370
Width: 1024
VWidth: 0
Flags: H
LayerCount: 2
Fore
SplineSet
384 1024 m 2
 572 1024 l 2
 782 1024 912 898 912 694 c 0
 912 555 868 444 789 369 c 1
 895 202 l 1
 787 134 l 1
 683 298 l 1
 622 271 549 256 468 256 c 2
 298 256 l 1
 298 -256 l 1
 128 -256 l 1
 128 768 l 2
 128 960 192 1024 384 1024 c 2
384 867 m 2
 331 867 298 829 298 768 c 2
 298 413 l 1
 468 413 l 2
 515 413 558 421 594 437 c 1
 512 566 l 1
 620 634 l 1
 693 519 l 1
 725 565 742 624 742 694 c 0
 742 801 677 867 572 867 c 2
 384 867 l 2
EndSplineSet
Validated: 1
EndChar

StartChar: afii10050
Encoding: 1168 1168 371
Width: 1024
VWidth: 0
Flags: H
LayerCount: 2
Fore
SplineSet
160 0 m 1
 160 1280 l 1
 726 1280 l 1
 726 1536 l 1
 896 1536 l 1
 896 1123 l 1
 330 1123 l 1
 330 0 l 1
 160 0 l 1
EndSplineSet
Validated: 1
EndChar

StartChar: afii10098
Encoding: 1169 1169 372
Width: 1024
VWidth: 0
Flags: H
LayerCount: 2
Fore
SplineSet
160 0 m 1
 160 1024 l 1
 726 1024 l 1
 726 1280 l 1
 896 1280 l 1
 896 867 l 1
 330 867 l 1
 330 0 l 1
 160 0 l 1
EndSplineSet
Validated: 1
EndChar

StartChar: uni0492
Encoding: 1170 1170 373
Width: 1024
VWidth: 0
Flags: H
LayerCount: 2
Fore
SplineSet
160 1280 m 1
 896 1280 l 1
 896 1123 l 1
 330 1123 l 1
 330 719 l 1
 672 719 l 1
 672 561 l 1
 330 561 l 1
 330 0 l 1
 160 0 l 1
 160 561 l 1
 0 561 l 1
 0 719 l 1
 160 719 l 1
 160 1280 l 1
EndSplineSet
Validated: 1
EndChar

StartChar: uni0493
Encoding: 1171 1171 374
Width: 1024
VWidth: 0
Flags: H
LayerCount: 2
Fore
SplineSet
160 1024 m 1
 896 1024 l 1
 896 867 l 1
 330 867 l 1
 330 591 l 1
 672 591 l 1
 672 433 l 1
 330 433 l 1
 330 0 l 1
 160 0 l 1
 160 433 l 1
 0 433 l 1
 0 591 l 1
 160 591 l 1
 160 1024 l 1
EndSplineSet
Validated: 1
EndChar

StartChar: uni0494
Encoding: 1172 1172 375
Width: 1024
VWidth: 0
Flags: H
LayerCount: 2
Fore
SplineSet
128 1280 m 1
 832 1280 l 1
 832 1123 l 1
 298 1123 l 1
 298 760 l 1
 298 760 379 776 512 776 c 0
 779 776 944 609 944 340 c 0
 944 -33 787 -264 533 -264 c 0
 441 -264 384 -248 384 -248 c 1
 384 -99 l 1
 533 -99 l 2
 682 -99 774 69 774 340 c 0
 774 507 674 611 512 611 c 2
 298 611 l 1
 298 99 l 1
 128 99 l 1
 128 1280 l 1
EndSplineSet
Validated: 1
EndChar

StartChar: uni0495
Encoding: 1173 1173 376
Width: 1024
VWidth: 0
Flags: H
LayerCount: 2
Fore
SplineSet
128 1024 m 1
 832 1024 l 1
 832 867 l 1
 298 867 l 1
 298 583 l 1
 298 583 379 599 512 599 c 0
 759 599 912 458 912 230 c 0
 912 -75 763 -264 521 -264 c 0
 436 -264 384 -248 384 -248 c 1
 384 -99 l 1
 521 -99 l 2
 658 -99 742 27 742 230 c 0
 742 355 654 433 512 433 c 2
 298 433 l 1
 298 99 l 1
 128 99 l 1
 128 1024 l 1
EndSplineSet
Validated: 1
EndChar

StartChar: uni0496
Encoding: 1174 1174 377
Width: 1024
VWidth: 0
Flags: H
LayerCount: 2
Fore
SplineSet
0 1280 m 1
 160 1280 l 1
 433 672 l 1
 433 1280 l 1
 591 1280 l 1
 591 672 l 1
 864 1280 l 1
 1024 1280 l 1
 743 655 l 1
 957 157 l 1
 1024 157 l 1
 1024 -256 l 1
 867 -256 l 1
 865 0 l 1
 591 640 l 1
 591 0 l 1
 433 0 l 1
 433 640 l 1
 156 0 l 1
 0 0 l 1
 281 655 l 1
 0 1280 l 1
EndSplineSet
Validated: 1
EndChar

StartChar: uni0497
Encoding: 1175 1175 378
Width: 1024
VWidth: 0
Flags: H
LayerCount: 2
Fore
SplineSet
0 1024 m 1
 156 1024 l 1
 439 528 l 1
 439 1024 l 1
 585 1024 l 1
 585 528 l 1
 868 1024 l 1
 1024 1024 l 1
 736 519 l 1
 937 157 l 1
 1024 157 l 1
 1024 -256 l 1
 869 -256 l 1
 869 0 l 1
 585 512 l 1
 585 0 l 1
 439 0 l 1
 439 512 l 1
 155 0 l 1
 0 0 l 1
 288 519 l 1
 0 1024 l 1
EndSplineSet
Validated: 1
EndChar

StartChar: uni049A
Encoding: 1178 1178 380
Width: 1024
VWidth: 0
Flags: H
LayerCount: 2
Fore
SplineSet
732 1280 m 1
 928 1280 l 1
 477 681 l 1
 849 157 l 1
 1024 157 l 1
 1024 -256 l 1
 854 -256 l 1
 854 0 l 1
 752 0 l 1
 298 640 l 1
 298 0 l 1
 128 0 l 1
 128 1280 l 1
 298 1280 l 1
 298 704 l 1
 732 1280 l 1
EndSplineSet
Validated: 1
EndChar

StartChar: uni049B
Encoding: 1179 1179 381
Width: 1024
VWidth: 0
Flags: H
LayerCount: 2
Fore
SplineSet
756 1024 m 1
 960 1024 l 1
 490 531 l 1
 821 157 l 1
 1024 157 l 1
 1024 -256 l 1
 854 -256 l 1
 854 0 l 1
 750 0 l 1
 298 512 l 1
 298 0 l 1
 128 0 l 1
 128 1024 l 1
 298 1024 l 1
 298 544 l 1
 756 1024 l 1
EndSplineSet
Validated: 1
EndChar

StartChar: uni049C
Encoding: 1180 1180 382
Width: 1024
VWidth: 0
Flags: H
LayerCount: 2
Fore
SplineSet
128 1280 m 1
 298 1280 l 1
 298 768 l 1
 384 768 l 1
 384 1024 l 1
 512 1024 l 1
 512 768 l 1
 754 1280 l 1
 928 1280 l 1
 649 690 l 1
 960 0 l 1
 788 0 l 1
 512 611 l 1
 512 355 l 1
 384 355 l 1
 384 611 l 1
 298 611 l 1
 298 0 l 1
 128 0 l 1
 128 1280 l 1
EndSplineSet
Validated: 1
EndChar

StartChar: uni049D
Encoding: 1181 1181 383
Width: 1024
VWidth: 0
Flags: H
LayerCount: 2
Fore
SplineSet
128 1024 m 1
 298 1024 l 1
 298 585 l 1
 384 585 l 1
 384 768 l 1
 512 768 l 1
 512 585 l 1
 788 1024 l 1
 960 1024 l 1
 639 512 l 1
 960 0 l 1
 788 0 l 1
 512 439 l 1
 512 256 l 1
 384 256 l 1
 384 439 l 1
 298 439 l 1
 298 0 l 1
 128 0 l 1
 128 1024 l 1
EndSplineSet
Validated: 1
EndChar

StartChar: uni049E
Encoding: 1182 1182 384
Width: 1024
VWidth: 0
Flags: H
LayerCount: 2
Fore
SplineSet
128 1280 m 1
 298 1280 l 1
 298 1181 l 1
 512 1181 l 1
 512 1024 l 1
 298 1024 l 1
 298 704 l 1
 732 1280 l 1
 928 1280 l 1
 477 681 l 1
 960 0 l 1
 752 0 l 1
 298 640 l 1
 298 0 l 1
 128 0 l 1
 128 1024 l 1
 0 1024 l 1
 0 1181 l 1
 128 1181 l 1
 128 1280 l 1
EndSplineSet
Validated: 1
EndChar

StartChar: uni049F
Encoding: 1183 1183 385
Width: 1024
VWidth: 0
Flags: H
LayerCount: 2
Fore
SplineSet
128 1280 m 1
 298 1280 l 1
 298 1103 l 1
 576 1103 l 1
 576 945 l 1
 298 945 l 1
 298 400 l 1
 697 768 l 1
 928 768 l 1
 515 387 l 1
 960 0 l 1
 721 0 l 1
 298 368 l 1
 298 0 l 1
 128 0 l 1
 128 945 l 1
 0 945 l 1
 0 1103 l 1
 128 1103 l 1
 128 1280 l 1
EndSplineSet
Validated: 1
EndChar

StartChar: uni04A0
Encoding: 1184 1184 386
Width: 1024
VWidth: 0
Flags: H
LayerCount: 2
Fore
SplineSet
0 1280 m 1
 362 1280 l 1
 362 704 l 1
 796 1280 l 1
 992 1280 l 1
 541 681 l 1
 1024 0 l 1
 816 0 l 1
 362 640 l 1
 362 0 l 1
 192 0 l 1
 192 1123 l 1
 0 1123 l 1
 0 1280 l 1
EndSplineSet
Validated: 1
EndChar

StartChar: uni04A1
Encoding: 1185 1185 387
Width: 1024
VWidth: 0
Flags: H
LayerCount: 2
Fore
SplineSet
820 1024 m 1
 1024 1024 l 1
 554 531 l 1
 1024 0 l 1
 814 0 l 1
 362 512 l 1
 362 0 l 1
 192 0 l 1
 192 867 l 1
 0 867 l 1
 0 1024 l 1
 362 1024 l 1
 362 544 l 1
 820 1024 l 1
EndSplineSet
Validated: 1
EndChar

StartChar: uni04A2
Encoding: 1186 1186 388
Width: 1024
VWidth: 0
Flags: H
LayerCount: 2
Fore
SplineSet
96 1280 m 1
 266 1280 l 1
 266 768 l 1
 758 768 l 1
 758 1280 l 1
 928 1280 l 1
 928 157 l 1
 1024 157 l 1
 1024 -256 l 1
 854 -256 l 1
 854 0 l 1
 758 0 l 1
 758 611 l 1
 266 611 l 1
 266 0 l 1
 96 0 l 1
 96 1280 l 1
EndSplineSet
Validated: 1
EndChar

StartChar: uni04A3
Encoding: 1187 1187 389
Width: 1024
VWidth: 0
Flags: H
LayerCount: 2
Fore
SplineSet
128 1024 m 1
 298 1024 l 1
 298 590 l 1
 726 590 l 1
 726 1024 l 1
 896 1024 l 1
 896 157 l 1
 1024 157 l 1
 1024 -256 l 1
 854 -256 l 1
 854 0 l 1
 726 0 l 1
 726 433 l 1
 298 433 l 1
 298 0 l 1
 128 0 l 1
 128 1024 l 1
EndSplineSet
Validated: 1
EndChar

StartChar: uni04A4
Encoding: 1188 1188 390
Width: 1024
VWidth: 0
Flags: H
LayerCount: 2
Fore
SplineSet
64 1280 m 1
 234 1280 l 1
 234 768 l 1
 662 768 l 1
 662 1280 l 1
 1024 1280 l 1
 1024 1123 l 1
 832 1123 l 1
 832 0 l 1
 662 0 l 1
 662 611 l 1
 234 611 l 1
 234 0 l 1
 64 0 l 1
 64 1280 l 1
EndSplineSet
Validated: 1
EndChar

StartChar: uni04A5
Encoding: 1189 1189 391
Width: 1024
VWidth: 0
Flags: H
LayerCount: 2
Fore
SplineSet
64 1024 m 1
 234 1024 l 1
 234 590 l 1
 662 590 l 1
 662 1024 l 1
 1024 1024 l 1
 1024 867 l 1
 832 867 l 1
 832 0 l 1
 662 0 l 1
 662 433 l 1
 234 433 l 1
 234 0 l 1
 64 0 l 1
 64 1024 l 1
EndSplineSet
Validated: 1
EndChar

StartChar: uni04A6
Encoding: 1190 1190 392
Width: 1024
VWidth: 0
Flags: H
LayerCount: 2
Fore
SplineSet
64 1280 m 1
 597 1280 l 1
 597 768 l 1
 821 768 960 665 960 387 c 2
 960 172 l 2
 960 -155 858 -264 671 -264 c 0
 625 -264 597 -248 597 -248 c 1
 597 -99 l 1
 671 -99 l 2
 745 -99 790 -31 790 172 c 2
 790 387 l 2
 790 547 716 611 597 611 c 1
 597 0 l 1
 427 0 l 1
 427 1123 l 1
 234 1123 l 1
 234 0 l 1
 64 0 l 1
 64 1280 l 1
EndSplineSet
Validated: 1
EndChar

StartChar: uni04A7
Encoding: 1191 1191 393
Width: 1024
VWidth: 0
Flags: H
LayerCount: 2
Fore
SplineSet
64 1024 m 1
 597 1024 l 1
 597 591 l 1
 821 591 960 485 960 167 c 0
 960 -151 850 -264 671 -264 c 0
 625 -264 597 -248 597 -248 c 1
 597 -99 l 1
 671 -99 l 2
 745 -99 790 -33 790 167 c 0
 790 367 716 433 597 433 c 1
 597 0 l 1
 427 0 l 1
 427 867 l 1
 234 867 l 1
 234 0 l 1
 64 0 l 1
 64 1024 l 1
EndSplineSet
Validated: 1
EndChar

StartChar: uni04A8
Encoding: 1192 1192 394
Width: 1024
VWidth: 0
Flags: H
LayerCount: 2
Fore
SplineSet
474 1288 m 0
 572 1288 633 1272 633 1272 c 1
 633 1123 l 1
 474 1123 l 2
 316 1123 218 1002 218 640 c 0
 218 295 320 162 487 150 c 1
 452 244 433 363 433 512 c 0
 433 822 537 925 705 925 c 0
 873 925 976 822 976 512 c 0
 976 299 898 140 762 57 c 1
 824 17 902 0 992 0 c 1
 992 -157 l 1
 816 -157 674 -113 577 -4 c 1
 556 -6 534 -8 512 -8 c 0
 225 -8 48 154 48 640 c 0
 48 1126 211 1288 474 1288 c 0
705 768 m 0
 635 768 591 704 591 512 c 0
 591 368 612 261 652 182 c 1
 755 236 819 352 819 512 c 0
 819 704 775 768 705 768 c 0
EndSplineSet
Validated: 1
EndChar

StartChar: uni04A9
Encoding: 1193 1193 395
Width: 1024
VWidth: 0
Flags: H
LayerCount: 2
Fore
SplineSet
474 1032 m 0
 572 1032 633 1016 633 1016 c 1
 633 867 l 1
 474 867 l 2
 316 867 218 778 218 512 c 0
 218 265 315 163 475 150 c 1
 447 218 433 297 433 384 c 0
 433 678 537 776 705 776 c 0
 873 776 976 678 976 384 c 0
 976 229 903 112 776 48 c 1
 836 17 909 0 992 0 c 1
 992 -157 l 1
 816 -157 674 -103 577 -5 c 1
 556 -7 534 -8 512 -8 c 0
 225 -8 48 122 48 512 c 0
 48 902 211 1032 474 1032 c 0
705 619 m 0
 635 619 591 560 591 384 c 0
 591 300 610 227 646 168 c 1
 752 202 819 278 819 384 c 0
 819 560 775 619 705 619 c 0
EndSplineSet
Validated: 1
EndChar

StartChar: uni04AC
Encoding: 1196 1196 396
Width: 1024
VWidth: 0
Flags: H
LayerCount: 2
Fore
SplineSet
64 1280 m 1
 960 1280 l 1
 960 1123 l 1
 597 1123 l 1
 597 157 l 1
 725 157 l 1
 725 -256 l 1
 555 -256 l 1
 555 0 l 1
 427 0 l 1
 427 1123 l 1
 64 1123 l 1
 64 1280 l 1
EndSplineSet
Validated: 1
EndChar

StartChar: uni04AD
Encoding: 1197 1197 397
Width: 1024
VWidth: 0
Flags: H
LayerCount: 2
Fore
SplineSet
96 1024 m 1
 928 1024 l 1
 928 867 l 1
 597 867 l 1
 597 157 l 1
 725 157 l 1
 725 -256 l 1
 555 -256 l 1
 555 0 l 1
 427 0 l 1
 427 867 l 1
 96 867 l 1
 96 1024 l 1
EndSplineSet
Validated: 1
EndChar

StartChar: uni04AF
Encoding: 1199 1199 399
Width: 1024
VWidth: 0
Flags: H
LayerCount: 2
Fore
SplineSet
64 1024 m 1
 252 1024 l 1
 512 474 l 1
 772 1024 l 1
 960 1024 l 1
 597 256 l 1
 597 -256 l 1
 427 -256 l 1
 427 256 l 1
 64 1024 l 1
EndSplineSet
Validated: 1
EndChar

StartChar: uni04B0
Encoding: 1200 1200 400
Width: 1024
VWidth: 0
Flags: H
LayerCount: 2
Fore
SplineSet
32 1280 m 1
 223 1280 l 1
 512 700 l 1
 801 1280 l 1
 992 1280 l 1
 597 512 l 1
 832 512 l 1
 832 355 l 1
 597 355 l 1
 597 0 l 1
 427 0 l 1
 427 355 l 1
 192 355 l 1
 192 512 l 1
 427 512 l 1
 32 1280 l 1
EndSplineSet
Validated: 1
EndChar

StartChar: uni04B1
Encoding: 1201 1201 401
Width: 1024
VWidth: 0
Flags: H
LayerCount: 2
Fore
SplineSet
64 1024 m 1
 252 1024 l 1
 512 474 l 1
 772 1024 l 1
 960 1024 l 1
 597 256 l 1
 832 256 l 1
 832 99 l 1
 597 99 l 1
 597 -256 l 1
 427 -256 l 1
 427 99 l 1
 192 99 l 1
 192 256 l 1
 427 256 l 1
 64 1024 l 1
EndSplineSet
Validated: 1
EndChar

StartChar: uni04B2
Encoding: 1202 1202 402
Width: 1024
VWidth: 0
Flags: H
LayerCount: 2
Fore
SplineSet
32 1280 m 1
 230 1280 l 1
 512 790 l 1
 794 1280 l 1
 992 1280 l 1
 611 640 l 1
 899 157 l 1
 1024 157 l 1
 1024 -256 l 1
 854 -256 l 1
 854 0 l 1
 794 0 l 1
 512 490 l 1
 230 0 l 1
 32 0 l 1
 413 640 l 1
 32 1280 l 1
EndSplineSet
Validated: 1
EndChar

StartChar: uni04B3
Encoding: 1203 1203 403
Width: 1024
VWidth: 0
Flags: H
LayerCount: 2
Fore
SplineSet
64 1024 m 1
 269 1024 l 1
 512 640 l 1
 755 1024 l 1
 960 1024 l 1
 615 512 l 1
 854 157 l 1
 1024 157 l 1
 1024 -256 l 1
 854 -256 l 1
 854 0 l 1
 755 0 l 1
 512 384 l 1
 269 0 l 1
 64 0 l 1
 409 512 l 1
 64 1024 l 1
EndSplineSet
Validated: 1
EndChar

StartChar: uni04B4
Encoding: 1204 1204 404
Width: 1024
VWidth: 0
Flags: H
LayerCount: 2
Fore
SplineSet
171 0 m 1
 171 1123 l 1
 0 1123 l 1
 0 1280 l 1
 512 1280 l 1
 512 1123 l 1
 341 1123 l 1
 341 157 l 1
 726 157 l 1
 726 1280 l 1
 896 1280 l 1
 896 157 l 1
 1024 157 l 1
 1024 -256 l 1
 854 -256 l 1
 854 0 l 1
 171 0 l 1
EndSplineSet
Validated: 1
EndChar

StartChar: uni04B5
Encoding: 1205 1205 405
Width: 1024
VWidth: 0
Flags: H
LayerCount: 2
Fore
SplineSet
0 1024 m 1
 512 1024 l 1
 512 867 l 1
 341 867 l 1
 341 157 l 1
 726 157 l 1
 726 1024 l 1
 896 1024 l 1
 896 157 l 1
 1024 157 l 1
 1024 -256 l 1
 854 -256 l 1
 854 0 l 1
 171 0 l 1
 171 867 l 1
 0 867 l 1
 0 1024 l 1
EndSplineSet
Validated: 1
EndChar

StartChar: uni04B6
Encoding: 1206 1206 406
Width: 1024
VWidth: 0
Flags: H
LayerCount: 2
Fore
SplineSet
1024 -256 m 1
 854 -256 l 1
 854 0 l 1
 726 0 l 1
 726 520 l 1
 726 520 644 504 512 504 c 0
 275 504 128 603 128 902 c 2
 128 1280 l 1
 298 1280 l 1
 298 902 l 2
 298 727 380 669 512 669 c 2
 726 669 l 1
 726 1280 l 1
 896 1280 l 1
 896 157 l 1
 1024 157 l 1
 1024 -256 l 1
EndSplineSet
Validated: 1
EndChar

StartChar: uni04B7
Encoding: 1207 1207 407
Width: 1024
VWidth: 0
Flags: H
LayerCount: 2
Fore
SplineSet
1024 -256 m 1
 854 -256 l 1
 854 0 l 1
 726 0 l 1
 726 441 l 1
 726 441 644 425 512 425 c 0
 275 425 128 508 128 756 c 2
 128 1024 l 1
 298 1024 l 1
 298 756 l 2
 298 632 380 590 512 590 c 2
 726 590 l 1
 726 1024 l 1
 896 1024 l 1
 896 157 l 1
 1024 157 l 1
 1024 -256 l 1
EndSplineSet
Validated: 1
EndChar

StartChar: uni04B8
Encoding: 1208 1208 408
Width: 1024
VWidth: 0
Flags: H
LayerCount: 2
Fore
SplineSet
128 1280 m 1
 298 1280 l 1
 298 902 l 2
 298 757 354 693 448 675 c 1
 448 843 l 1
 576 843 l 1
 576 669 l 1
 726 669 l 1
 726 1280 l 1
 896 1280 l 1
 896 0 l 1
 726 0 l 1
 726 520 l 1
 726 520 670 509 576 505 c 1
 576 331 l 1
 448 331 l 1
 448 507 l 1
 249 525 128 631 128 902 c 2
 128 1280 l 1
EndSplineSet
Validated: 1
EndChar

StartChar: uni04B9
Encoding: 1209 1209 409
Width: 1024
VWidth: 0
Flags: H
LayerCount: 2
Fore
SplineSet
128 1024 m 1
 298 1024 l 1
 298 756 l 2
 298 654 354 607 448 594 c 1
 448 768 l 1
 576 768 l 1
 576 590 l 1
 726 590 l 1
 726 1024 l 1
 896 1024 l 1
 896 0 l 1
 726 0 l 1
 726 441 l 1
 726 441 670 430 576 426 c 1
 576 256 l 1
 448 256 l 1
 448 427 l 1
 249 442 128 531 128 756 c 2
 128 1024 l 1
EndSplineSet
Validated: 1
EndChar

StartChar: uni04BC
Encoding: 1212 1212 412
Width: 1024
VWidth: 0
Flags: H
LayerCount: 2
Fore
SplineSet
600 1296 m 0
 827 1296 968 1125 968 849 c 0
 968 641 952 512 952 512 c 1
 402 512 l 1
 402 512 402 157 688 157 c 2
 864 157 l 1
 864 8 l 1
 864 8 797 -8 688 -8 c 0
 425 -8 255 174 228 512 c 1
 192 512 l 2
 78 512 8 602 8 749 c 0
 8 840 16 896 16 896 c 1
 144 896 l 1
 144 756 144 669 192 669 c 2
 225 669 l 1
 237 1077 379 1296 600 1296 c 0
600 1139 m 0
 402 1139 402 669 402 669 c 1
 798 669 l 1
 798 849 l 2
 798 1028 722 1139 600 1139 c 0
EndSplineSet
Validated: 1
EndChar

StartChar: uni04BD
Encoding: 1213 1213 413
Width: 1024
VWidth: 0
Flags: H
LayerCount: 2
Fore
SplineSet
600 1040 m 0
 827 1040 968 911 968 702 c 0
 968 536 952 433 952 433 c 1
 402 433 l 1
 402 433 402 157 688 157 c 2
 864 157 l 1
 864 8 l 1
 864 8 797 -8 688 -8 c 0
 434 -8 256 159 228 433 c 1
 192 433 l 2
 78 433 8 512 8 640 c 0
 8 719 16 768 16 768 c 1
 144 768 l 1
 144 659 144 591 192 591 c 2
 227 591 l 1
 249 870 387 1040 600 1040 c 0
600 883 m 0
 402 883 402 591 402 591 c 1
 798 591 l 1
 798 702 l 2
 798 814 722 883 600 883 c 0
EndSplineSet
Validated: 1
EndChar

StartChar: uni04BE
Encoding: 1214 1214 414
Width: 1024
VWidth: 0
Flags: H
LayerCount: 2
Fore
SplineSet
600 1296 m 0
 827 1296 968 1125 968 849 c 0
 968 641 952 512 952 512 c 1
 402 512 l 1
 402 512 402 157 688 157 c 2
 864 157 l 1
 864 8 l 1
 864 8 797 -8 688 -8 c 2
 682 -8 l 1
 682 -256 l 1
 512 -256 l 1
 512 24 l 1
 350 90 248 257 228 512 c 1
 192 512 l 2
 78 512 8 602 8 749 c 0
 8 840 16 896 16 896 c 1
 144 896 l 1
 144 756 144 669 192 669 c 2
 225 669 l 1
 237 1077 379 1296 600 1296 c 0
600 1139 m 0
 402 1139 402 669 402 669 c 1
 798 669 l 1
 798 849 l 2
 798 1028 722 1139 600 1139 c 0
EndSplineSet
Validated: 1
EndChar

StartChar: uni04BF
Encoding: 1215 1215 415
Width: 1024
VWidth: 0
Flags: H
LayerCount: 2
Fore
SplineSet
600 1040 m 0
 827 1040 968 911 968 702 c 0
 968 536 952 433 952 433 c 1
 402 433 l 1
 402 433 402 157 688 157 c 2
 864 157 l 1
 864 8 l 1
 864 8 797 -8 688 -8 c 2
 682 -8 l 1
 682 -256 l 1
 512 -256 l 1
 512 23 l 1
 354 83 249 228 228 433 c 1
 192 433 l 2
 78 433 8 512 8 640 c 0
 8 719 16 768 16 768 c 1
 144 768 l 1
 144 659 144 591 192 591 c 2
 227 591 l 1
 249 870 387 1040 600 1040 c 0
600 883 m 0
 402 883 402 591 402 591 c 1
 798 591 l 1
 798 702 l 2
 798 814 722 883 600 883 c 0
EndSplineSet
Validated: 1
EndChar

StartChar: uni048A
Encoding: 1162 1162 416
Width: 1024
VWidth: 0
Flags: H
LayerCount: 2
Fore
SplineSet
256 1664 m 1
 358 1664 l 1
 358 1569 417 1510 512 1510 c 0
 607 1510 666 1569 666 1664 c 1
 768 1664 l 1
 768 1506 670 1408 512 1408 c 0
 354 1408 256 1506 256 1664 c 1
96 1280 m 1
 266 1280 l 1
 266 512 l 1
 262 256 l 1
 373 512 l 1
 724 1280 l 1
 928 1280 l 1
 928 157 l 1
 1024 157 l 1
 925 -256 l 1
 768 -256 l 1
 831 0 l 1
 758 0 l 1
 758 768 l 1
 762 1024 l 1
 651 768 l 1
 301 0 l 1
 96 0 l 1
 96 1280 l 1
EndSplineSet
Validated: 1
EndChar

StartChar: uni048B
Encoding: 1163 1163 417
Width: 1024
VWidth: 0
Flags: H
LayerCount: 2
Fore
SplineSet
256 1408 m 1
 358 1408 l 1
 358 1313 417 1254 512 1254 c 0
 607 1254 666 1313 666 1408 c 1
 768 1408 l 1
 768 1250 670 1152 512 1152 c 0
 354 1152 256 1250 256 1408 c 1
128 1024 m 1
 298 1024 l 1
 298 290 l 1
 726 1024 l 1
 895 1024 l 1
 895 157 l 1
 1024 157 l 1
 925 -256 l 1
 768 -256 l 1
 829 0 l 1
 726 0 l 1
 726 734 l 1
 298 0 l 1
 128 0 l 1
 128 1024 l 1
EndSplineSet
Validated: 1
EndChar

StartChar: uni02BE
Encoding: 702 702 421
Width: 1024
VWidth: 0
Flags: H
LayerCount: 2
Fore
SplineSet
480 1370 m 1
 480 1472 l 1
 606 1472 684 1399 684 1280 c 0
 684 1161 606 1088 480 1088 c 1
 480 1190 l 1
 543 1190 582 1224 582 1280 c 0
 582 1336 543 1370 480 1370 c 1
EndSplineSet
Validated: 1
EndChar

StartChar: afii57929
Encoding: 700 700 422
Width: 1024
VWidth: 0
Flags: H
LayerCount: 2
Fore
SplineSet
384 1280 m 1
 640 1280 l 1
 640 1084 l 1
 448 768 l 1
 256 768 l 1
 448 1084 l 1
 384 1084 l 1
 384 1280 l 1
EndSplineSet
Validated: 1
EndChar

StartChar: afii64937
Encoding: 701 701 424
Width: 1024
VWidth: 0
Flags: H
LayerCount: 2
Fore
SplineSet
640 1280 m 1
 640 1084 l 1
 576 1084 l 1
 768 768 l 1
 576 768 l 1
 384 1084 l 1
 384 1280 l 1
 640 1280 l 1
EndSplineSet
Validated: 1
EndChar

StartChar: circumflex
Encoding: 710 710 428
Width: 1024
VWidth: 0
Flags: H
LayerCount: 2
Fore
SplineSet
640 1152 m 1
 512 1280 l 1
 384 1152 l 1
 256 1152 l 1
 512 1408 l 1
 768 1152 l 1
 640 1152 l 1
EndSplineSet
Validated: 1
EndChar

StartChar: breve
Encoding: 728 728 430
Width: 1024
VWidth: 0
Flags: H
LayerCount: 2
Fore
SplineSet
666 1408 m 1
 768 1408 l 1
 768 1250 670 1152 512 1152 c 0
 354 1152 256 1250 256 1408 c 1
 358 1408 l 1
 358 1313 417 1254 512 1254 c 0
 607 1254 666 1313 666 1408 c 1
EndSplineSet
Validated: 1
EndChar

StartChar: dotaccent
Encoding: 729 729 431
Width: 1024
VWidth: 0
Flags: H
LayerCount: 2
Fore
SplineSet
512 1392 m 0
 574 1392 624 1342 624 1280 c 0
 624 1218 574 1168 512 1168 c 0
 450 1168 400 1218 400 1280 c 0
 400 1342 450 1392 512 1392 c 0
EndSplineSet
Validated: 1
EndChar

StartChar: ring
Encoding: 730 730 432
Width: 1024
VWidth: 0
Flags: H
LayerCount: 2
Fore
SplineSet
512 1408 m 0
 631 1408 704 1351 704 1280 c 0
 704 1209 631 1152 512 1152 c 0
 393 1152 320 1209 320 1280 c 0
 320 1351 393 1408 512 1408 c 0
512 1344 m 0
 446 1344 405 1315 405 1280 c 0
 405 1245 446 1216 512 1216 c 0
 578 1216 619 1245 619 1280 c 0
 619 1315 578 1344 512 1344 c 0
EndSplineSet
Validated: 1
EndChar

StartChar: ogonek
Encoding: 731 731 433
Width: 1024
VWidth: 0
Flags: H
LayerCount: 2
Fore
SplineSet
960 -256 m 1
 960 -384 l 1
 756 -384 l 1
 708 -256 l 1
 738 -64 l 1
 864 -64 l 1
 834 -256 l 1
 960 -256 l 1
EndSplineSet
Validated: 1
EndChar

StartChar: tilde
Encoding: 732 732 434
Width: 1024
VWidth: 0
Flags: H
LayerCount: 2
Fore
SplineSet
800 1310 m 1
 800 1310 754 1168 617 1168 c 0
 512 1168 486 1280 407 1280 c 0
 342 1280 320 1196 320 1196 c 1
 224 1250 l 1
 224 1250 270 1392 407 1392 c 0
 512 1392 538 1280 617 1280 c 0
 682 1280 704 1364 704 1364 c 1
 800 1310 l 1
EndSplineSet
Validated: 1
EndChar

StartChar: hungarumlaut
Encoding: 733 733 435
Width: 1024
VWidth: 0
Flags: H
LayerCount: 2
Fore
SplineSet
348 1408 m 1
 512 1408 l 1
 512 1376 l 1
 292 1152 l 1
 128 1152 l 1
 128 1184 l 1
 348 1408 l 1
732 1408 m 1
 896 1408 l 1
 896 1376 l 1
 676 1152 l 1
 512 1152 l 1
 512 1184 l 1
 732 1408 l 1
EndSplineSet
Validated: 1
EndChar

StartChar: uni02E5
Encoding: 741 741 436
Width: 1024
VWidth: 0
Flags: H
LayerCount: 2
Fore
SplineSet
256 1280 m 1
 768 1280 l 1
 768 0 l 1
 598 0 l 1
 598 1123 l 1
 256 1123 l 1
 256 1280 l 1
EndSplineSet
Validated: 1
EndChar

StartChar: uni02E6
Encoding: 742 742 437
Width: 1024
VWidth: 0
Flags: H
LayerCount: 2
Fore
SplineSet
598 1280 m 1
 768 1280 l 1
 768 0 l 1
 598 0 l 1
 598 867 l 1
 256 867 l 1
 256 1024 l 1
 598 1024 l 1
 598 1280 l 1
EndSplineSet
Validated: 1
EndChar

StartChar: uni02E7
Encoding: 743 743 438
Width: 1024
VWidth: 0
Flags: H
LayerCount: 2
Fore
SplineSet
598 1280 m 1
 768 1280 l 1
 768 0 l 1
 598 0 l 1
 598 561 l 1
 256 561 l 1
 256 719 l 1
 598 719 l 1
 598 1280 l 1
EndSplineSet
Validated: 1
EndChar

StartChar: uni02E8
Encoding: 744 744 439
Width: 1024
VWidth: 0
Flags: H
LayerCount: 2
Fore
SplineSet
598 0 m 1
 598 256 l 1
 256 256 l 1
 256 413 l 1
 598 413 l 1
 598 1280 l 1
 768 1280 l 1
 768 0 l 1
 598 0 l 1
EndSplineSet
Validated: 1
EndChar

StartChar: uni02E9
Encoding: 745 745 440
Width: 1024
VWidth: 0
Flags: H
LayerCount: 2
Fore
SplineSet
256 0 m 1
 256 157 l 1
 598 157 l 1
 598 1280 l 1
 768 1280 l 1
 768 0 l 1
 256 0 l 1
EndSplineSet
Validated: 1
EndChar

StartChar: uni02EE
Encoding: 750 750 441
Width: 1024
VWidth: 0
Flags: H
LayerCount: 2
Fore
SplineSet
192 1280 m 1
 448 1280 l 1
 448 1084 l 1
 256 768 l 1
 64 768 l 1
 256 1084 l 1
 192 1084 l 1
 192 1280 l 1
640 1280 m 1
 896 1280 l 1
 896 1084 l 1
 704 768 l 1
 512 768 l 1
 704 1084 l 1
 640 1084 l 1
 640 1280 l 1
EndSplineSet
Validated: 1
EndChar

StartChar: gravecomb
Encoding: 768 768 442
Width: 1024
VWidth: 0
Flags: H
LayerCount: 2
Fore
SplineSet
288 1408 m 1
 458 1408 l 1
 682 1184 l 1
 682 1152 l 1
 512 1152 l 1
 288 1376 l 1
 288 1408 l 1
EndSplineSet
Validated: 1
EndChar

StartChar: acutecomb
Encoding: 769 769 443
Width: 1024
VWidth: 0
Flags: H
LayerCount: 2
Fore
SplineSet
736 1408 m 1
 736 1376 l 1
 512 1152 l 1
 342 1152 l 1
 342 1184 l 1
 566 1408 l 1
 736 1408 l 1
EndSplineSet
Validated: 1
EndChar

StartChar: hookabovecomb
Encoding: 777 777 444
Width: 1024
VWidth: 0
Flags: H
LayerCount: 2
Fore
SplineSet
320 1306 m 1
 320 1408 l 1
 429 1408 l 2
 559 1408 640 1347 640 1247 c 0
 640 1188 589 1152 589 1152 c 1
 448 1152 l 1
 448 1152 538 1188 538 1247 c 0
 538 1283 496 1306 429 1306 c 2
 320 1306 l 1
EndSplineSet
Validated: 1
EndChar

StartChar: uni0315
Encoding: 789 789 453
Width: 1024
VWidth: 0
Flags: HW
LayerCount: 2
Fore
SplineSet
878 1408 m 1
 1024 1408 l 1
 1024 1376 l 1
 896 1152 l 1
 768 1152 l 1
 768 1184 l 1
 878 1408 l 1
EndSplineSet
Validated: 1
EndChar

StartChar: uni0313
Encoding: 787 787 455
Width: 1024
VWidth: 0
Flags: H
LayerCount: 2
Fore
SplineSet
494 1408 m 1
 640 1408 l 1
 640 1376 l 1
 512 1152 l 1
 384 1152 l 1
 384 1184 l 1
 494 1408 l 1
EndSplineSet
Validated: 1
EndChar

StartChar: uni0314
Encoding: 788 788 456
Width: 1024
VWidth: 0
Flags: H
LayerCount: 2
Fore
SplineSet
530 1408 m 1
 640 1184 l 1
 640 1152 l 1
 512 1152 l 1
 384 1376 l 1
 384 1408 l 1
 530 1408 l 1
EndSplineSet
Validated: 1
EndChar

StartChar: afii10193
Encoding: 1119 1119 480
Width: 1024
VWidth: 0
Flags: H
LayerCount: 2
Fore
SplineSet
128 1024 m 1
 298 1024 l 1
 298 157 l 1
 726 157 l 1
 726 1024 l 1
 896 1024 l 1
 896 0 l 1
 597 0 l 1
 597 -256 l 1
 427 -256 l 1
 427 0 l 1
 128 0 l 1
 128 1024 l 1
EndSplineSet
Validated: 1
EndChar

StartChar: uni030F
Encoding: 783 783 487
Width: 1024
VWidth: 0
Flags: H
LayerCount: 2
Fore
SplineSet
676 1408 m 1
 896 1184 l 1
 896 1152 l 1
 732 1152 l 1
 512 1376 l 1
 512 1408 l 1
 676 1408 l 1
292 1408 m 1
 512 1184 l 1
 512 1152 l 1
 348 1152 l 1
 128 1376 l 1
 128 1408 l 1
 292 1408 l 1
EndSplineSet
Validated: 1
EndChar

StartChar: uni04C3
Encoding: 1219 1219 492
Width: 1024
VWidth: 0
Flags: H
LayerCount: 2
Fore
SplineSet
726 1280 m 1
 928 1280 l 1
 512 768 l 1
 779 768 944 609 944 340 c 0
 944 -33 787 -264 533 -264 c 0
 441 -264 384 -248 384 -248 c 1
 384 -99 l 1
 533 -99 l 2
 682 -99 774 69 774 340 c 0
 774 507 674 611 512 611 c 2
 298 611 l 1
 298 99 l 1
 128 99 l 1
 128 1280 l 1
 298 1280 l 1
 298 752 l 1
 726 1280 l 1
EndSplineSet
Validated: 1
EndChar

StartChar: uni04C4
Encoding: 1220 1220 493
Width: 1024
VWidth: 0
Flags: H
LayerCount: 2
Fore
SplineSet
128 1024 m 1
 298 1024 l 1
 298 570 l 1
 701 1024 l 1
 896 1024 l 1
 512 591 l 1
 759 591 912 458 912 230 c 0
 912 -75 763 -264 521 -264 c 0
 436 -264 384 -248 384 -248 c 1
 384 -99 l 1
 521 -99 l 2
 658 -99 742 27 742 230 c 0
 742 355 654 433 512 433 c 2
 298 433 l 1
 298 99 l 1
 128 99 l 1
 128 1024 l 1
EndSplineSet
Validated: 1
EndChar

StartChar: uni04C5
Encoding: 1221 1221 494
Width: 1024
VWidth: 0
Flags: H
LayerCount: 2
Fore
SplineSet
192 1280 m 1
 896 1280 l 1
 896 157 l 1
 1024 157 l 1
 925 -256 l 1
 768 -256 l 1
 829 0 l 1
 726 0 l 1
 726 1123 l 1
 362 1123 l 1
 362 512 l 2
 362 122 288 -8 64 -8 c 1
 64 149 l 1
 160 149 192 239 192 512 c 2
 192 1280 l 1
EndSplineSet
Validated: 1
EndChar

StartChar: uni04C6
Encoding: 1222 1222 495
Width: 1024
VWidth: 0
Flags: H
LayerCount: 2
Fore
SplineSet
256 1024 m 1
 896 1024 l 1
 896 157 l 1
 1024 157 l 1
 925 -256 l 1
 768 -256 l 1
 829 0 l 1
 726 0 l 1
 726 867 l 1
 426 867 l 1
 426 512 l 2
 426 122 336 -8 64 -8 c 1
 64 149 l 1
 208 149 256 239 256 512 c 2
 256 1024 l 1
EndSplineSet
Validated: 1
EndChar

StartChar: uni04C7
Encoding: 1223 1223 496
Width: 1024
VWidth: 0
Flags: H
LayerCount: 2
Fore
SplineSet
96 1280 m 1
 266 1280 l 1
 266 768 l 1
 758 768 l 1
 758 1280 l 1
 928 1280 l 1
 928 340 l 2
 928 -113 775 -264 527 -264 c 0
 435 -264 384 -248 384 -248 c 1
 384 -99 l 1
 527 -99 l 2
 670 -99 758 11 758 340 c 2
 758 611 l 1
 266 611 l 1
 266 99 l 1
 96 99 l 1
 96 1280 l 1
EndSplineSet
Validated: 1
EndChar

StartChar: uni04C8
Encoding: 1224 1224 497
Width: 1024
VWidth: 0
Flags: H
LayerCount: 2
Fore
SplineSet
128 1024 m 1
 298 1024 l 1
 298 590 l 1
 726 590 l 1
 726 1024 l 1
 896 1024 l 1
 896 230 l 2
 896 -141 750 -264 515 -264 c 0
 430 -264 384 -248 384 -248 c 1
 384 -99 l 1
 515 -99 l 2
 645 -99 726 -17 726 230 c 2
 726 433 l 1
 298 433 l 1
 298 99 l 1
 128 99 l 1
 128 1024 l 1
EndSplineSet
Validated: 1
EndChar

StartChar: uni04C9
Encoding: 1225 1225 498
Width: 1024
VWidth: 0
Flags: H
LayerCount: 2
Fore
SplineSet
96 1280 m 1
 266 1280 l 1
 266 768 l 1
 758 768 l 1
 758 1280 l 1
 928 1280 l 1
 928 157 l 1
 1024 157 l 1
 925 -256 l 1
 768 -256 l 1
 829 0 l 1
 758 0 l 1
 758 611 l 1
 266 611 l 1
 266 0 l 1
 96 0 l 1
 96 1280 l 1
EndSplineSet
Validated: 1
EndChar

StartChar: uni04CA
Encoding: 1226 1226 499
Width: 1024
VWidth: 0
Flags: H
LayerCount: 2
Fore
SplineSet
298 590 m 1
 726 590 l 1
 726 1024 l 1
 896 1024 l 1
 896 157 l 1
 1024 157 l 1
 925 -256 l 1
 768 -256 l 1
 829 0 l 1
 726 0 l 1
 726 433 l 1
 298 433 l 1
 298 0 l 1
 128 0 l 1
 128 1024 l 1
 298 1024 l 1
 298 590 l 1
EndSplineSet
Validated: 1
EndChar

StartChar: uni04CB
Encoding: 1227 1227 500
Width: 1024
VWidth: 0
Flags: H
LayerCount: 2
Fore
SplineSet
896 0 m 1
 726 0 l 1
 726 -256 l 1
 556 -256 l 1
 556 157 l 1
 726 157 l 1
 726 520 l 1
 726 520 644 504 512 504 c 0
 275 504 128 603 128 902 c 2
 128 1280 l 1
 298 1280 l 1
 298 902 l 2
 298 727 380 669 512 669 c 2
 726 669 l 1
 726 1280 l 1
 896 1280 l 1
 896 0 l 1
EndSplineSet
Validated: 1
EndChar

StartChar: uni04CC
Encoding: 1228 1228 501
Width: 1024
VWidth: 0
Flags: H
LayerCount: 2
Fore
SplineSet
896 0 m 1
 726 0 l 1
 726 -256 l 1
 556 -256 l 1
 556 157 l 1
 726 157 l 1
 726 441 l 1
 726 441 644 425 512 425 c 0
 275 425 128 508 128 756 c 2
 128 1024 l 1
 298 1024 l 1
 298 756 l 2
 298 632 380 590 512 590 c 2
 726 590 l 1
 726 1024 l 1
 896 1024 l 1
 896 0 l 1
EndSplineSet
Validated: 1
EndChar

StartChar: uni04CD
Encoding: 1229 1229 502
Width: 1024
VWidth: 0
Flags: H
LayerCount: 2
Fore
SplineSet
64 1280 m 1
 221 1280 l 1
 512 728 l 1
 803 1280 l 1
 960 1280 l 1
 960 157 l 1
 1088 157 l 1
 989 -256 l 1
 832 -256 l 1
 893 0 l 1
 803 0 l 1
 803 768 l 1
 817 1024 l 1
 698 768 l 1
 563 512 l 1
 461 512 l 1
 326 768 l 1
 207 1024 l 1
 221 768 l 1
 221 0 l 1
 64 0 l 1
 64 1280 l 1
EndSplineSet
Validated: 1
EndChar

StartChar: uni04CE
Encoding: 1230 1230 503
Width: 1024
VWidth: 0
Flags: H
LayerCount: 2
Fore
SplineSet
64 1024 m 1
 221 1024 l 1
 512 512 l 1
 803 1024 l 1
 960 1024 l 1
 960 157 l 1
 1088 157 l 1
 989 -256 l 1
 832 -256 l 1
 893 0 l 1
 803 0 l 1
 803 749 l 1
 561 327 l 1
 461 327 l 1
 221 749 l 1
 221 0 l 1
 64 0 l 1
 64 1024 l 1
EndSplineSet
Validated: 1
EndChar

StartChar: uni04F6
Encoding: 1270 1270 505
Width: 1024
VWidth: 0
Flags: H
LayerCount: 2
Fore
SplineSet
160 0 m 1
 160 1280 l 1
 896 1280 l 1
 896 1123 l 1
 330 1123 l 1
 330 157 l 1
 500 157 l 1
 500 -256 l 1
 330 -256 l 1
 330 0 l 1
 160 0 l 1
EndSplineSet
Validated: 1
EndChar

StartChar: uni04F7
Encoding: 1271 1271 506
Width: 1024
VWidth: 0
Flags: H
LayerCount: 2
Fore
SplineSet
160 0 m 1
 160 1024 l 1
 896 1024 l 1
 896 867 l 1
 330 867 l 1
 330 157 l 1
 500 157 l 1
 500 -256 l 1
 330 -256 l 1
 330 0 l 1
 160 0 l 1
EndSplineSet
Validated: 1
EndChar

StartChar: uni04FA
Encoding: 1274 1274 507
Width: 1024
VWidth: 0
Flags: H
LayerCount: 2
Fore
SplineSet
160 1280 m 1
 896 1280 l 1
 896 1123 l 1
 330 1123 l 1
 330 719 l 1
 672 719 l 1
 672 561 l 1
 330 561 l 1
 330 157 l 1
 500 157 l 1
 500 0 l 2
 500 -337 426 -421 204 -421 c 0
 157 -421 128 -405 128 -405 c 1
 128 -256 l 1
 204 -256 l 2
 298 -256 330 -192 330 0 c 1
 160 0 l 1
 160 561 l 1
 0 561 l 1
 0 719 l 1
 160 719 l 1
 160 1280 l 1
EndSplineSet
Validated: 1
EndChar

StartChar: uni04FB
Encoding: 1275 1275 508
Width: 1024
VWidth: 0
Flags: H
LayerCount: 2
Fore
SplineSet
160 1024 m 1
 896 1024 l 1
 896 867 l 1
 330 867 l 1
 330 591 l 1
 672 591 l 1
 672 433 l 1
 330 433 l 1
 330 157 l 1
 500 157 l 1
 500 0 l 2
 500 -337 426 -421 204 -421 c 0
 157 -421 128 -405 128 -405 c 1
 128 -256 l 1
 204 -256 l 2
 298 -256 330 -192 330 0 c 1
 160 0 l 1
 160 433 l 1
 0 433 l 1
 0 591 l 1
 160 591 l 1
 160 1024 l 1
EndSplineSet
Validated: 1
EndChar

StartChar: uni04FC
Encoding: 1276 1276 509
Width: 1024
VWidth: 0
Flags: H
LayerCount: 2
Fore
SplineSet
32 1280 m 1
 230 1280 l 1
 512 790 l 1
 794 1280 l 1
 992 1280 l 1
 611 640 l 1
 899 157 l 1
 1024 157 l 1
 1024 0 l 2
 1024 -337 950 -421 728 -421 c 0
 681 -421 652 -405 652 -405 c 1
 652 -256 l 1
 728 -256 l 2
 822 -256 854 -192 854 0 c 1
 794 0 l 1
 512 490 l 1
 230 0 l 1
 32 0 l 1
 413 640 l 1
 32 1280 l 1
EndSplineSet
Validated: 1
EndChar

StartChar: uni04FD
Encoding: 1277 1277 510
Width: 1024
VWidth: 0
Flags: H
LayerCount: 2
Fore
SplineSet
64 1024 m 1
 269 1024 l 1
 512 640 l 1
 755 1024 l 1
 960 1024 l 1
 615 512 l 1
 854 157 l 1
 1024 157 l 1
 1024 0 l 2
 1024 -337 950 -421 728 -421 c 0
 681 -421 652 -405 652 -405 c 1
 652 -256 l 1
 728 -256 l 2
 822 -256 854 -192 854 0 c 1
 755 0 l 1
 512 384 l 1
 269 0 l 1
 64 0 l 1
 409 512 l 1
 64 1024 l 1
EndSplineSet
Validated: 1
EndChar

StartChar: uni04FE
Encoding: 1278 1278 511
Width: 1024
VWidth: 0
Flags: H
LayerCount: 2
Fore
SplineSet
32 1280 m 1
 230 1280 l 1
 512 790 l 1
 794 1280 l 1
 992 1280 l 1
 687 768 l 1
 960 768 l 1
 960 611 l 1
 628 611 l 1
 992 0 l 1
 794 0 l 1
 512 490 l 1
 230 0 l 1
 32 0 l 1
 396 611 l 1
 64 611 l 1
 64 768 l 1
 337 768 l 1
 32 1280 l 1
EndSplineSet
Validated: 1
EndChar

StartChar: uni04FF
Encoding: 1279 1279 512
Width: 1024
VWidth: 0
Flags: H
LayerCount: 2
Fore
SplineSet
64 1024 m 1
 269 1024 l 1
 512 640 l 1
 755 1024 l 1
 960 1024 l 1
 668 591 l 1
 960 591 l 1
 960 433 l 1
 668 433 l 1
 960 0 l 1
 755 0 l 1
 512 384 l 1
 269 0 l 1
 64 0 l 1
 356 433 l 1
 64 433 l 1
 64 591 l 1
 356 591 l 1
 64 1024 l 1
EndSplineSet
Validated: 1
EndChar

StartChar: uni0500
Encoding: 1280 1280 513
Width: 1024
VWidth: 0
Flags: H
LayerCount: 2
Fore
SplineSet
896 1280 m 1
 896 0 l 1
 432 0 l 2
 214 0 80 126 80 330 c 0
 80 601 257 768 544 768 c 2
 726 768 l 1
 726 1280 l 1
 896 1280 l 1
726 611 m 1
 544 611 l 2
 362 611 250 504 250 330 c 0
 250 223 320 157 432 157 c 2
 726 157 l 1
 726 611 l 1
EndSplineSet
Validated: 1
EndChar

StartChar: uni0502
Encoding: 1282 1282 514
Width: 1024
VWidth: 0
Flags: H
LayerCount: 2
Fore
SplineSet
470 1280 m 1
 640 1280 l 1
 640 385 l 2
 640 208 669 149 715 149 c 0
 761 149 790 208 790 385 c 2
 790 768 l 1
 960 768 l 1
 960 385 l 2
 960 90 866 -8 715 -8 c 0
 595 -8 555 89 555 89 c 1
 555 89 513 -8 386 -8 c 0
 197 -8 80 89 80 380 c 0
 80 671 197 768 386 768 c 2
 470 768 l 1
 470 1280 l 1
386 611 m 2
 302 611 250 553 250 380 c 0
 250 207 302 149 386 149 c 0
 441 149 470 208 470 385 c 2
 470 611 l 1
 386 611 l 2
EndSplineSet
Validated: 1
EndChar

StartChar: uni0503
Encoding: 1283 1283 515
Width: 1024
VWidth: 0
Flags: H
LayerCount: 2
Fore
SplineSet
470 1280 m 1
 640 1280 l 1
 640 337 l 2
 640 196 669 149 715 149 c 0
 761 149 790 196 790 337 c 2
 790 640 l 1
 960 640 l 1
 960 337 l 2
 960 78 866 -8 715 -8 c 0
 595 -8 555 89 555 89 c 1
 555 89 500 -8 334 -8 c 0
 178 -8 80 144 80 390 c 0
 80 721 197 925 386 925 c 2
 470 925 l 1
 470 1280 l 1
386 768 m 2
 302 768 250 624 250 390 c 0
 250 241 282 149 334 149 c 0
 409 149 470 196 470 337 c 2
 470 768 l 1
 386 768 l 2
EndSplineSet
Validated: 1
EndChar

StartChar: uni0504
Encoding: 1284 1284 516
Width: 1024
VWidth: 0
Flags: H
LayerCount: 2
Fore
SplineSet
251 1288 m 0
 472 1288 608 1203 608 946 c 0
 608 757 470 690 470 690 c 1
 470 690 641 632 640 384 c 0
 639 208 669 149 715 149 c 0
 761 149 790 208 790 385 c 2
 790 768 l 1
 960 768 l 1
 960 385 l 2
 960 90 866 -8 715 -8 c 0
 564 -8 470 90 470 384 c 0
 470 553 402 611 291 611 c 2
 128 611 l 1
 128 768 l 1
 291 768 l 2
 382 768 438 813 438 946 c 0
 438 1079 367 1123 251 1123 c 2
 64 1123 l 1
 64 1272 l 1
 64 1272 135 1288 251 1288 c 0
EndSplineSet
Validated: 33
EndChar

StartChar: uni0505
Encoding: 1285 1285 517
Width: 1024
VWidth: 0
Flags: H
LayerCount: 2
Fore
SplineSet
251 1032 m 0
 472 1032 608 956 608 729 c 0
 608 555 470 512 470 512 c 1
 470 512 640 468 640 291 c 0
 640 184 669 149 715 149 c 0
 761 149 790 196 790 337 c 2
 790 640 l 1
 960 640 l 1
 960 337 l 2
 960 78 866 -8 715 -8 c 0
 564 -8 470 67 470 291 c 0
 470 398 416 433 291 433 c 2
 128 433 l 1
 128 591 l 1
 291 591 l 2
 382 591 438 625 438 729 c 0
 438 833 367 867 251 867 c 2
 64 867 l 1
 64 1016 l 1
 64 1016 135 1032 251 1032 c 0
EndSplineSet
Validated: 1
EndChar

StartChar: uni0506
Encoding: 1286 1286 518
Width: 1024
VWidth: 0
Flags: H
LayerCount: 2
Fore
SplineSet
128 1272 m 1
 128 1272 221 1288 371 1288 c 0
 626 1288 784 1203 784 946 c 0
 784 757 614 708 614 708 c 1
 614 708 816 643 816 384 c 2
 816 157 l 1
 960 157 l 1
 960 -256 l 1
 790 -256 l 1
 790 0 l 1
 646 0 l 1
 646 384 l 2
 646 554 539 611 365 611 c 2
 192 611 l 1
 192 768 l 1
 353 768 l 2
 514 768 614 813 614 946 c 0
 614 1079 521 1123 371 1123 c 2
 128 1123 l 1
 128 1272 l 1
EndSplineSet
Validated: 1
EndChar

StartChar: uni0507
Encoding: 1287 1287 519
Width: 1024
VWidth: 0
Flags: H
LayerCount: 2
Fore
SplineSet
128 1016 m 1
 128 1016 221 1032 371 1032 c 0
 626 1032 784 956 784 729 c 0
 784 571 630 531 630 531 c 1
 630 531 816 484 816 295 c 2
 816 157 l 1
 960 157 l 1
 960 -256 l 1
 790 -256 l 1
 790 0 l 1
 646 0 l 1
 646 295 l 2
 646 399 565 433 435 433 c 2
 224 433 l 1
 224 591 l 1
 435 591 l 2
 546 591 614 625 614 729 c 0
 614 833 521 867 371 867 c 2
 128 867 l 1
 128 1016 l 1
EndSplineSet
Validated: 1
EndChar

StartChar: uni0508
Encoding: 1288 1288 520
Width: 1024
VWidth: 0
Flags: H
LayerCount: 2
Fore
SplineSet
128 1280 m 1
 640 1280 l 1
 640 385 l 2
 640 208 669 149 715 149 c 0
 761 149 790 208 790 385 c 2
 790 768 l 1
 960 768 l 1
 960 385 l 2
 960 90 866 -8 715 -8 c 0
 564 -8 470 90 470 385 c 2
 470 1123 l 1
 298 1123 l 1
 298 512 l 2
 298 122 224 -8 0 -8 c 1
 0 149 l 1
 96 149 128 239 128 512 c 2
 128 1280 l 1
EndSplineSet
Validated: 1
EndChar

StartChar: uni0509
Encoding: 1289 1289 521
Width: 1024
VWidth: 0
Flags: H
LayerCount: 2
Fore
SplineSet
128 1024 m 1
 640 1024 l 1
 640 337 l 2
 640 196 669 149 715 149 c 0
 761 149 790 196 790 337 c 2
 790 640 l 1
 960 640 l 1
 960 337 l 2
 960 78 866 -8 715 -8 c 0
 564 -8 470 78 470 337 c 2
 470 867 l 1
 298 867 l 1
 298 512 l 2
 298 122 224 -8 0 -8 c 1
 0 149 l 1
 96 149 128 239 128 512 c 2
 128 1024 l 1
EndSplineSet
Validated: 1
EndChar

StartChar: uni050A
Encoding: 1290 1290 522
Width: 1024
VWidth: 0
Flags: H
LayerCount: 2
Fore
SplineSet
64 1280 m 1
 234 1280 l 1
 234 768 l 1
 470 768 l 1
 470 1280 l 1
 640 1280 l 1
 640 385 l 2
 640 208 669 149 715 149 c 0
 761 149 790 208 790 385 c 2
 790 768 l 1
 960 768 l 1
 960 385 l 2
 960 90 866 -8 715 -8 c 0
 564 -8 470 90 470 385 c 2
 470 611 l 1
 234 611 l 1
 234 0 l 1
 64 0 l 1
 64 1280 l 1
EndSplineSet
Validated: 1
EndChar

StartChar: uni050B
Encoding: 1291 1291 523
Width: 1024
VWidth: 0
Flags: H
LayerCount: 2
Fore
SplineSet
64 1024 m 1
 234 1024 l 1
 234 591 l 1
 470 591 l 1
 470 1024 l 1
 640 1024 l 1
 640 337 l 2
 640 196 669 149 715 149 c 0
 761 149 790 196 790 337 c 2
 790 640 l 1
 960 640 l 1
 960 337 l 2
 960 78 866 -8 715 -8 c 0
 564 -8 470 78 470 337 c 2
 470 433 l 1
 234 433 l 1
 234 0 l 1
 64 0 l 1
 64 1024 l 1
EndSplineSet
Validated: 1
EndChar

StartChar: uni050C
Encoding: 1292 1292 524
Width: 1024
VWidth: 0
Flags: H
LayerCount: 2
Fore
SplineSet
652 1288 m 0
 803 1288 896 1272 896 1272 c 1
 896 1123 l 1
 652 1123 l 2
 408 1123 258 939 258 640 c 0
 258 332 376 141 567 141 c 0
 710 141 758 198 758 370 c 2
 758 433 l 1
 512 433 l 1
 512 591 l 1
 928 591 l 1
 928 370 l 2
 928 80 838 -16 567 -16 c 0
 266 -16 80 235 80 640 c 0
 80 1040 298 1288 652 1288 c 0
EndSplineSet
Validated: 1
EndChar

StartChar: uni050E
Encoding: 1294 1294 525
Width: 1024
VWidth: 0
Flags: H
LayerCount: 2
Fore
SplineSet
64 1280 m 1
 896 1280 l 1
 896 1123 l 1
 554 1123 l 1
 554 385 l 2
 554 208 599 149 672 149 c 0
 745 149 790 208 790 385 c 2
 790 768 l 1
 960 768 l 1
 960 385 l 2
 960 90 850 -8 672 -8 c 0
 494 -8 384 90 384 385 c 2
 384 1123 l 1
 64 1123 l 1
 64 1280 l 1
EndSplineSet
Validated: 1
EndChar

StartChar: uni050F
Encoding: 1295 1295 526
Width: 1024
VWidth: 0
Flags: H
LayerCount: 2
Fore
SplineSet
64 1024 m 1
 790 1024 l 1
 790 867 l 1
 512 867 l 1
 512 337 l 2
 512 196 565 149 651 149 c 0
 737 149 790 196 790 337 c 2
 790 640 l 1
 960 640 l 1
 960 337 l 2
 960 78 842 -8 651 -8 c 0
 460 -8 342 78 342 337 c 2
 342 867 l 1
 64 867 l 1
 64 1024 l 1
EndSplineSet
Validated: 1
EndChar

StartChar: uni0512
Encoding: 1298 1298 527
Width: 1024
VWidth: 0
Flags: H
LayerCount: 2
Fore
SplineSet
192 1280 m 1
 896 1280 l 1
 896 157 l 1
 1024 157 l 1
 1024 0 l 2
 1024 -337 950 -421 728 -421 c 0
 681 -421 652 -405 652 -405 c 1
 652 -256 l 1
 728 -256 l 2
 822 -256 854 -192 854 0 c 1
 726 0 l 1
 726 1123 l 1
 362 1123 l 1
 362 512 l 2
 362 122 288 -8 64 -8 c 1
 64 149 l 1
 160 149 192 239 192 512 c 2
 192 1280 l 1
EndSplineSet
Validated: 1
EndChar

StartChar: uni0513
Encoding: 1299 1299 528
Width: 1024
VWidth: 0
Flags: H
LayerCount: 2
Fore
SplineSet
256 1024 m 1
 896 1024 l 1
 896 157 l 1
 1024 157 l 1
 1024 0 l 2
 1024 -337 950 -421 728 -421 c 0
 681 -421 652 -405 652 -405 c 1
 652 -256 l 1
 728 -256 l 2
 822 -256 854 -192 854 0 c 1
 726 0 l 1
 726 867 l 1
 426 867 l 1
 426 512 l 2
 426 122 336 -8 64 -8 c 1
 64 149 l 1
 208 149 256 239 256 512 c 2
 256 1024 l 1
EndSplineSet
Validated: 1
EndChar

StartChar: dotlessi
Encoding: 305 305 722
Width: 1024
VWidth: 0
Flags: H
LayerCount: 2
Fore
SplineSet
160 925 m 1
 597 925 l 1
 597 157 l 1
 896 157 l 1
 896 0 l 1
 128 0 l 1
 128 157 l 1
 427 157 l 1
 427 768 l 1
 160 768 l 1
 160 925 l 1
EndSplineSet
Validated: 1
EndChar

StartChar: AE
Encoding: 198 198 736
Width: 1024
VWidth: 0
Flags: H
LayerCount: 2
Fore
SplineSet
448 1280 m 2
 992 1280 l 1
 992 1123 l 1
 682 1123 l 1
 682 768 l 1
 960 768 l 1
 960 611 l 1
 682 611 l 1
 682 157 l 1
 992 157 l 1
 992 0 l 1
 512 0 l 1
 512 355 l 1
 252 355 l 1
 220 158 202 0 202 0 c 1
 32 0 l 1
 32 0 160 1280 448 1280 c 2
512 1123 m 1
 415 1123 334 808 279 512 c 1
 512 512 l 1
 512 1123 l 1
EndSplineSet
Validated: 1
EndChar

StartChar: Eth
Encoding: 208 208 737
Width: 1024
VWidth: 0
Flags: H
LayerCount: 2
Fore
SplineSet
128 1280 m 1
 384 1280 l 2
 730 1280 944 1120 944 640 c 0
 944 160 730 0 384 0 c 2
 128 0 l 1
 128 611 l 1
 0 611 l 1
 0 768 l 1
 128 768 l 1
 128 1280 l 1
298 1123 m 1
 298 768 l 1
 512 768 l 1
 512 611 l 1
 298 611 l 1
 298 157 l 1
 384 157 l 2
 620 157 766 278 766 640 c 0
 766 1002 620 1123 384 1123 c 2
 298 1123 l 1
EndSplineSet
Validated: 1
EndChar

StartChar: multiply
Encoding: 215 215 738
Width: 1024
VWidth: 0
Flags: H
LayerCount: 2
Fore
SplineSet
96 945 m 1
 207 1056 l 1
 512 751 l 1
 817 1056 l 1
 928 945 l 1
 623 640 l 1
 928 335 l 1
 817 224 l 1
 512 529 l 1
 207 224 l 1
 96 335 l 1
 401 640 l 1
 96 945 l 1
EndSplineSet
Validated: 1
EndChar

StartChar: Oslash
Encoding: 216 216 739
Width: 1024
VWidth: 0
Flags: H
LayerCount: 2
Fore
SplineSet
817 1408 m 1
 960 1408 l 1
 832 1147 l 1
 904 1044 944 882 944 640 c 0
 944 148 779 -16 512 -16 c 0
 427 -16 351 1 289 40 c 1
 207 -128 l 1
 64 -128 l 1
 192 133 l 1
 120 236 80 398 80 640 c 0
 80 1132 245 1296 512 1296 c 0
 597 1296 673 1279 735 1240 c 1
 817 1408 l 1
512 1139 m 0
 355 1139 258 1014 258 640 c 0
 258 510 269 411 291 336 c 1
 658 1083 l 1
 619 1122 569 1139 512 1139 c 0
733 944 m 1
 366 197 l 1
 405 158 455 141 512 141 c 0
 669 141 766 266 766 640 c 0
 766 770 755 869 733 944 c 1
EndSplineSet
Validated: 1
EndChar

StartChar: Thorn
Encoding: 222 222 740
Width: 1024
VWidth: 0
Flags: H
LayerCount: 2
Fore
SplineSet
128 1280 m 1
 298 1280 l 1
 298 1103 l 1
 480 1103 l 2
 767 1103 944 926 944 640 c 0
 944 354 767 177 480 177 c 2
 298 177 l 1
 298 0 l 1
 128 0 l 1
 128 1280 l 1
298 946 m 1
 298 334 l 1
 480 334 l 2
 662 334 774 451 774 640 c 0
 774 829 662 946 480 946 c 2
 298 946 l 1
EndSplineSet
Validated: 1
EndChar

StartChar: germandbls
Encoding: 223 223 741
Width: 1024
VWidth: 0
Flags: H
LayerCount: 2
Fore
SplineSet
512 1288 m 0
 720 1288 848 1189 848 1024 c 0
 848 823 650 823 650 699 c 0
 650 547 944 547 944 256 c 0
 944 93 817 -8 611 -8 c 0
 510 -8 448 8 448 8 c 1
 448 157 l 1
 611 157 l 2
 712 157 774 195 774 256 c 0
 774 477 480 477 480 699 c 0
 480 896 691 896 691 1024 c 0
 691 1098 623 1131 512 1131 c 0
 380 1131 298 1040 298 768 c 2
 298 0 l 1
 128 0 l 1
 128 768 l 2
 128 1158 275 1288 512 1288 c 0
EndSplineSet
Validated: 1
EndChar

StartChar: ae
Encoding: 230 230 742
Width: 1024
VWidth: 0
Flags: H
LayerCount: 2
Fore
SplineSet
225 1032 m 0
 354 1032 454 990 517 916 c 1
 565 994 633 1032 716 1032 c 0
 890 1032 996 905 996 700 c 0
 996 539 988 439 988 439 c 1
 591 439 l 1
 591 439 591 146 819 146 c 2
 960 146 l 1
 960 8 l 1
 960 8 906 -8 819 -8 c 0
 707 -8 615 23 549 96 c 1
 515 30 452 -8 337 -8 c 0
 144 -8 24 120 24 327 c 0
 24 486 121 585 277 585 c 2
 433 585 l 1
 433 696 l 2
 433 808 354 878 225 878 c 2
 96 878 l 1
 96 1016 l 1
 96 1016 138 1032 225 1032 c 0
716 886 m 0
 591 886 591 585 591 585 c 1
 835 585 l 1
 835 700 l 2
 835 815 790 886 716 886 c 0
277 439 m 2
 218 439 181 396 181 327 c 0
 181 210 241 138 337 138 c 0
 433 138 433 253 433 439 c 1
 277 439 l 2
EndSplineSet
Validated: 1
EndChar

StartChar: eth
Encoding: 240 240 743
Width: 1024
VWidth: 0
Flags: H
LayerCount: 2
Fore
SplineSet
224 1280 m 1
 429 1280 l 1
 429 1280 508 1225 601 1122 c 1
 864 1162 l 1
 864 1024 l 1
 700 999 l 1
 810 846 912 635 912 380 c 0
 912 135 759 -16 512 -16 c 0
 265 -16 112 135 112 380 c 0
 112 625 265 776 512 776 c 0
 607 776 666 744 666 744 c 1
 636 815 599 879 559 937 c 1
 224 886 l 1
 224 1024 l 1
 464 1061 l 1
 341 1202 224 1280 224 1280 c 1
512 619 m 0
 370 619 282 528 282 380 c 0
 282 232 370 141 512 141 c 0
 654 141 742 232 742 380 c 0
 742 490 724 558 724 558 c 1
 724 558 643 619 512 619 c 0
EndSplineSet
Validated: 1
EndChar

StartChar: divide
Encoding: 247 247 744
Width: 1024
VWidth: 0
Flags: H
LayerCount: 2
Fore
SplineSet
384 1152 m 1
 640 1152 l 1
 640 896 l 1
 384 896 l 1
 384 1152 l 1
96 719 m 1
 928 719 l 1
 928 562 l 1
 96 562 l 1
 96 719 l 1
384 384 m 1
 640 384 l 1
 640 128 l 1
 384 128 l 1
 384 384 l 1
EndSplineSet
Validated: 1
EndChar

StartChar: oslash
Encoding: 248 248 745
Width: 1024
VWidth: 0
Flags: H
LayerCount: 2
Fore
SplineSet
783 1152 m 1
 928 1152 l 1
 814 939 l 1
 898 858 944 722 944 512 c 0
 944 116 779 -16 512 -16 c 0
 440 -16 374 -6 318 16 c 1
 241 -128 l 1
 96 -128 l 1
 210 85 l 1
 126 166 80 302 80 512 c 0
 80 908 245 1040 512 1040 c 0
 584 1040 650 1030 706 1008 c 1
 783 1152 l 1
512 883 m 0
 350 883 250 790 250 512 c 0
 250 395 267 311 300 253 c 1
 627 862 l 1
 593 877 555 883 512 883 c 0
724 771 m 1
 397 162 l 1
 431 147 469 141 512 141 c 0
 674 141 774 234 774 512 c 0
 774 629 757 713 724 771 c 1
EndSplineSet
Validated: 1
EndChar

StartChar: thorn
Encoding: 254 254 746
Width: 1024
VWidth: 0
Flags: H
LayerCount: 2
Fore
SplineSet
128 1280 m 1
 298 1280 l 1
 298 949 l 1
 298 949 383 1024 520 1024 c 0
 762 1024 912 898 912 694 c 0
 912 420 742 256 468 256 c 2
 298 256 l 1
 298 -256 l 1
 128 -256 l 1
 128 1280 l 1
520 867 m 0
 383 867 298 768 298 768 c 1
 298 413 l 1
 468 413 l 2
 637 413 742 520 742 694 c 0
 742 801 657 867 520 867 c 0
EndSplineSet
Validated: 1
EndChar

StartChar: dcaron
Encoding: 271 271 747
Width: 1024
VWidth: 0
Flags: H
LayerCount: 2
Fore
SplineSet
512 1280 m 1
 669 1280 l 1
 669 0 l 1
 330 0 l 2
 156 0 48 149 48 390 c 0
 48 721 182 925 400 925 c 2
 512 925 l 1
 512 1280 l 1
878 1280 m 1
 1024 1280 l 1
 1024 1248 l 1
 896 1024 l 1
 768 1024 l 1
 768 1056 l 1
 878 1280 l 1
400 768 m 2
 288 768 218 624 218 390 c 0
 218 246 261 157 330 157 c 2
 512 157 l 1
 512 768 l 1
 400 768 l 2
EndSplineSet
Validated: 1
EndChar

StartChar: dcroat
Encoding: 273 273 749
Width: 1024
VWidth: 0
Flags: H
LayerCount: 2
Fore
SplineSet
726 1280 m 1
 896 1280 l 1
 896 1103 l 1
 1024 1103 l 1
 1024 945 l 1
 896 945 l 1
 896 0 l 1
 452 0 l 2
 242 0 112 147 112 384 c 0
 112 621 282 768 556 768 c 2
 726 768 l 1
 726 945 l 1
 448 945 l 1
 448 1103 l 1
 726 1103 l 1
 726 1280 l 1
556 611 m 2
 387 611 282 524 282 384 c 0
 282 244 347 157 452 157 c 2
 726 157 l 1
 726 611 l 1
 556 611 l 2
EndSplineSet
Validated: 1
EndChar

StartChar: Hbar
Encoding: 294 294 750
Width: 1024
VWidth: 0
Flags: H
LayerCount: 2
Fore
SplineSet
96 1280 m 1
 266 1280 l 1
 266 1103 l 1
 758 1103 l 1
 758 1280 l 1
 928 1280 l 1
 928 1103 l 1
 1024 1103 l 1
 1024 945 l 1
 928 945 l 1
 928 0 l 1
 758 0 l 1
 758 611 l 1
 266 611 l 1
 266 0 l 1
 96 0 l 1
 96 945 l 1
 0 945 l 1
 0 1103 l 1
 96 1103 l 1
 96 1280 l 1
266 945 m 1
 266 768 l 1
 758 768 l 1
 758 945 l 1
 266 945 l 1
EndSplineSet
Validated: 1
EndChar

StartChar: hbar
Encoding: 295 295 751
Width: 1024
VWidth: 0
Flags: H
LayerCount: 2
Fore
SplineSet
128 1280 m 1
 298 1280 l 1
 298 1103 l 1
 576 1103 l 1
 576 945 l 1
 298 945 l 1
 298 760 l 1
 298 760 380 776 512 776 c 0
 749 776 896 697 896 458 c 2
 896 0 l 1
 726 0 l 1
 726 458 l 2
 726 573 644 611 512 611 c 2
 298 611 l 1
 298 0 l 1
 128 0 l 1
 128 945 l 1
 0 945 l 1
 0 1103 l 1
 128 1103 l 1
 128 1280 l 1
EndSplineSet
Validated: 1
EndChar

StartChar: IJ
Encoding: 306 306 752
Width: 1024
VWidth: 0
Flags: H
LayerCount: 2
Fore
SplineSet
96 1280 m 1
 266 1280 l 1
 266 0 l 1
 96 0 l 1
 96 1280 l 1
758 1280 m 1
 928 1280 l 1
 928 526 l 2
 928 125 839 -8 570 -8 c 0
 498 -8 454 8 454 8 c 1
 454 157 l 1
 570 157 l 2
 711 157 758 249 758 526 c 2
 758 1280 l 1
EndSplineSet
Validated: 1
EndChar

StartChar: ij
Encoding: 307 307 753
Width: 1024
VWidth: 0
Flags: H
LayerCount: 2
Fore
SplineSet
128 1280 m 1
 298 1280 l 1
 298 1110 l 1
 128 1110 l 1
 128 1280 l 1
726 1280 m 1
 896 1280 l 1
 896 1110 l 1
 726 1110 l 1
 726 1280 l 1
128 925 m 1
 298 925 l 1
 298 0 l 1
 128 0 l 1
 128 925 l 1
726 925 m 1
 896 925 l 1
 896 120 l 2
 896 -168 755 -264 528 -264 c 0
 452 -264 405 -248 405 -248 c 1
 405 -99 l 1
 528 -99 l 2
 650 -99 726 -44 726 120 c 2
 726 925 l 1
EndSplineSet
Validated: 1
EndChar

StartChar: Lslash
Encoding: 321 321 754
Width: 1024
VWidth: 0
Flags: H
LayerCount: 2
Fore
SplineSet
160 1280 m 1
 330 1280 l 1
 330 852 l 1
 640 1024 l 1
 640 868 l 1
 330 696 l 1
 330 157 l 1
 896 157 l 1
 896 0 l 1
 160 0 l 1
 160 601 l 1
 0 512 l 1
 0 668 l 1
 160 757 l 1
 160 1280 l 1
EndSplineSet
Validated: 1
EndChar

StartChar: lslash
Encoding: 322 322 755
Width: 1024
VWidth: 0
Flags: H
LayerCount: 2
Fore
SplineSet
160 1280 m 1
 597 1280 l 1
 597 893 l 1
 832 1024 l 1
 832 868 l 1
 597 737 l 1
 597 157 l 1
 896 157 l 1
 896 0 l 1
 128 0 l 1
 128 157 l 1
 427 157 l 1
 427 643 l 1
 192 512 l 1
 192 668 l 1
 427 799 l 1
 427 1123 l 1
 160 1123 l 1
 160 1280 l 1
EndSplineSet
Validated: 1
EndChar

StartChar: Eng
Encoding: 330 330 756
Width: 1024
VWidth: 0
Flags: H
LayerCount: 2
Fore
SplineSet
512 1296 m 0
 769 1296 928 1201 928 914 c 2
 928 472 l 2
 928 112 816 -8 635 -8 c 0
 490 -8 400 144 400 144 c 1
 512 256 l 1
 512 256 559 157 635 157 c 0
 711 157 758 236 758 472 c 2
 758 914 l 2
 758 1083 664 1139 512 1139 c 0
 360 1139 266 1095 266 1095 c 1
 266 0 l 1
 96 0 l 1
 96 1192 l 1
 96 1192 255 1296 512 1296 c 0
EndSplineSet
Validated: 1
EndChar

StartChar: eng
Encoding: 331 331 757
Width: 1024
VWidth: 0
Flags: H
LayerCount: 2
Fore
SplineSet
512 1040 m 0
 749 1040 896 945 896 658 c 2
 896 157 l 2
 896 -159 781 -264 594 -264 c 0
 543 -264 512 -248 512 -248 c 1
 512 -99 l 1
 594 -99 l 2
 676 -99 726 -35 726 157 c 2
 726 658 l 2
 726 827 644 883 512 883 c 0
 380 883 298 839 298 839 c 1
 298 99 l 1
 128 99 l 1
 128 936 l 1
 128 936 275 1040 512 1040 c 0
EndSplineSet
Validated: 1
EndChar

StartChar: OE
Encoding: 338 338 758
Width: 1024
VWidth: 0
Flags: H
LayerCount: 2
Fore
SplineSet
408 1296 m 0
 512 1296 547 1208 547 1208 c 1
 576 1280 l 1
 992 1280 l 1
 992 1123 l 1
 682 1123 l 1
 682 768 l 1
 960 768 l 1
 960 611 l 1
 682 611 l 1
 682 157 l 1
 992 157 l 1
 992 0 l 1
 576 0 l 1
 547 72 l 1
 547 72 512 -16 408 -16 c 0
 166 -16 16 148 16 640 c 0
 16 1132 166 1296 408 1296 c 0
512 1139 m 1
 311 1139 186 1014 186 640 c 0
 186 266 311 141 512 141 c 1
 512 1139 l 1
EndSplineSet
Validated: 1
EndChar

StartChar: oe
Encoding: 339 339 759
Width: 1024
VWidth: 0
Flags: H
LayerCount: 2
Fore
SplineSet
307 1032 m 0
 393 1032 460 993 504 894 c 1
 553 986 626 1032 716 1032 c 0
 890 1032 996 905 996 700 c 0
 996 539 988 439 988 439 c 1
 591 439 l 1
 591 439 591 146 819 146 c 2
 960 146 l 1
 960 8 l 1
 960 8 906 -8 819 -8 c 0
 684 -8 578 38 512 147 c 1
 468 36 397 -8 307 -8 c 0
 132 -8 24 122 24 512 c 0
 24 902 132 1032 307 1032 c 0
307 886 m 0
 229 886 181 793 181 512 c 0
 181 231 229 138 307 138 c 0
 385 138 433 231 433 512 c 0
 433 793 385 886 307 886 c 0
716 886 m 0
 591 886 591 585 591 585 c 1
 835 585 l 1
 835 700 l 2
 835 815 790 886 716 886 c 0
EndSplineSet
Validated: 1
EndChar

StartChar: Tbar
Encoding: 358 358 760
Width: 1024
VWidth: 0
Flags: H
LayerCount: 2
Fore
SplineSet
64 1280 m 1
 960 1280 l 1
 960 1123 l 1
 597 1123 l 1
 597 768 l 1
 832 768 l 1
 832 611 l 1
 597 611 l 1
 597 0 l 1
 427 0 l 1
 427 611 l 1
 192 611 l 1
 192 768 l 1
 427 768 l 1
 427 1123 l 1
 64 1123 l 1
 64 1280 l 1
EndSplineSet
Validated: 1
EndChar

StartChar: tbar
Encoding: 359 359 761
Width: 1024
VWidth: 0
Flags: H
LayerCount: 2
Fore
SplineSet
342 1280 m 1
 512 1280 l 1
 512 925 l 1
 928 925 l 1
 928 768 l 1
 512 768 l 1
 512 591 l 1
 800 591 l 1
 800 433 l 1
 512 433 l 1
 512 314 l 2
 512 196 585 157 704 157 c 2
 864 157 l 1
 864 8 l 1
 864 8 803 -8 704 -8 c 0
 480 -8 342 72 342 314 c 2
 342 433 l 1
 160 433 l 1
 160 591 l 1
 342 591 l 1
 342 768 l 1
 64 768 l 1
 64 925 l 1
 342 925 l 1
 342 1280 l 1
EndSplineSet
Validated: 1
EndChar

StartChar: longs
Encoding: 383 383 762
Width: 1024
VWidth: 0
Flags: H
LayerCount: 2
Fore
SplineSet
426 0 m 1
 256 0 l 1
 256 768 l 2
 256 1158 417 1288 677 1288 c 0
 796 1288 832 1272 832 1272 c 1
 832 1123 l 1
 677 1123 l 2
 522 1123 426 1034 426 768 c 2
 426 0 l 1
EndSplineSet
Validated: 1
EndChar

StartChar: uni0237
Encoding: 567 567 764
Width: 1024
VWidth: 0
Flags: H
LayerCount: 2
Fore
SplineSet
192 925 m 1
 800 925 l 1
 800 120 l 2
 800 -168 617 -264 320 -264 c 0
 201 -264 128 -248 128 -248 c 1
 128 -99 l 1
 320 -99 l 2
 512 -99 630 -44 630 120 c 2
 630 768 l 1
 192 768 l 1
 192 925 l 1
EndSplineSet
Validated: 1
EndChar

StartChar: uni0180
Encoding: 384 384 765
Width: 1024
VWidth: 0
Flags: H
LayerCount: 2
Fore
SplineSet
128 1280 m 1
 298 1280 l 1
 298 1181 l 1
 576 1181 l 1
 576 1024 l 1
 298 1024 l 1
 298 925 l 1
 572 925 l 2
 782 925 912 776 912 535 c 0
 912 204 742 0 468 0 c 2
 128 0 l 1
 128 1024 l 1
 0 1024 l 1
 0 1181 l 1
 128 1181 l 1
 128 1280 l 1
298 768 m 1
 298 157 l 1
 468 157 l 2
 637 157 742 301 742 535 c 0
 742 679 677 768 572 768 c 2
 298 768 l 1
EndSplineSet
Validated: 1
EndChar

StartChar: uni0181
Encoding: 385 385 766
Width: 1024
VWidth: 0
Flags: H
LayerCount: 2
Fore
SplineSet
256 1280 m 2
 512 1280 l 2
 759 1280 912 1189 912 946 c 0
 912 756 742 708 742 708 c 1
 742 708 976 643 976 384 c 0
 976 96 799 0 512 0 c 2
 256 0 l 1
 256 1123 l 1
 152 1123 152 1036 152 896 c 1
 20 896 l 1
 20 896 12 952 12 1043 c 0
 12 1190 105 1280 256 1280 c 2
426 1123 m 1
 426 768 l 1
 512 768 l 2
 654 768 742 837 742 946 c 0
 742 1055 654 1123 512 1123 c 2
 426 1123 l 1
426 611 m 1
 426 157 l 1
 512 157 l 2
 694 157 806 198 806 384 c 0
 806 570 694 611 512 611 c 2
 426 611 l 1
EndSplineSet
Validated: 1
EndChar

StartChar: uni0183
Encoding: 387 387 768
Width: 1024
VWidth: 0
Flags: H
LayerCount: 2
Fore
SplineSet
128 1280 m 1
 768 1280 l 1
 768 1123 l 1
 298 1123 l 1
 298 925 l 1
 572 925 l 2
 782 925 912 776 912 535 c 0
 912 204 742 0 468 0 c 2
 128 0 l 1
 128 1280 l 1
298 768 m 1
 298 157 l 1
 468 157 l 2
 637 157 742 301 742 535 c 0
 742 679 677 768 572 768 c 2
 298 768 l 1
EndSplineSet
Validated: 1
EndChar

StartChar: uni0184
Encoding: 388 388 769
Width: 1024
VWidth: 0
Flags: H
LayerCount: 2
Fore
SplineSet
160 1024 m 1
 32 1106 l 1
 32 1138 l 1
 330 1280 l 1
 330 768 l 1
 604 768 l 2
 814 768 944 642 944 438 c 0
 944 167 774 0 500 0 c 2
 160 0 l 1
 160 1024 l 1
330 611 m 1
 330 157 l 1
 500 157 l 2
 669 157 774 264 774 438 c 0
 774 545 709 611 604 611 c 2
 330 611 l 1
EndSplineSet
Validated: 1
EndChar

StartChar: uni0185
Encoding: 389 389 770
Width: 1024
VWidth: 0
Flags: H
LayerCount: 2
Fore
SplineSet
330 1280 m 1
 330 925 l 1
 604 925 l 2
 814 925 944 776 944 535 c 0
 944 204 774 0 500 0 c 2
 160 0 l 1
 160 1024 l 1
 32 1106 l 1
 32 1138 l 1
 330 1280 l 1
604 768 m 2
 330 768 l 1
 330 157 l 1
 500 157 l 2
 669 157 774 301 774 535 c 0
 774 679 709 768 604 768 c 2
EndSplineSet
Validated: 1
EndChar

StartChar: uni0187
Encoding: 391 391 775
Width: 1024
VWidth: 0
Flags: H
LayerCount: 2
Fore
SplineSet
665 1288 m 2
 760 1288 l 1
 760 1444 822 1540 923 1540 c 0
 985 1540 1024 1532 1024 1532 c 1
 1024 1404 l 1
 945 1404 896 1404 896 1280 c 2
 896 1123 l 1
 665 1123 l 2
 433 1123 290 939 290 640 c 0
 290 278 433 157 665 157 c 2
 896 157 l 1
 896 8 l 1
 896 8 808 -8 665 -8 c 0
 323 -8 112 154 112 640 c 0
 112 1040 323 1288 665 1288 c 2
EndSplineSet
Validated: 1
EndChar

StartChar: uni0188
Encoding: 392 392 776
Width: 1024
VWidth: 0
Flags: H
LayerCount: 2
Fore
SplineSet
891 1284 m 0
 953 1284 992 1276 992 1276 c 1
 992 1148 l 1
 913 1148 864 1148 864 1024 c 2
 864 867 l 1
 642 867 l 2
 420 867 282 731 282 512 c 0
 282 246 420 157 642 157 c 2
 864 157 l 1
 864 8 l 1
 864 8 779 -8 642 -8 c 0
 326 -8 112 122 112 512 c 0
 112 833 326 1032 642 1032 c 2
 728 1032 l 1
 728 1188 790 1284 891 1284 c 0
EndSplineSet
Validated: 1
EndChar

StartChar: uni018A
Encoding: 394 394 778
Width: 1024
VWidth: 0
Flags: H
LayerCount: 2
Fore
SplineSet
256 1280 m 2
 512 1280 l 2
 799 1280 976 1120 976 640 c 0
 976 160 799 0 512 0 c 2
 256 0 l 1
 256 1123 l 1
 152 1123 152 1036 152 896 c 1
 20 896 l 1
 20 896 12 952 12 1043 c 0
 12 1190 105 1280 256 1280 c 2
426 1123 m 1
 426 157 l 1
 512 157 l 2
 694 157 806 278 806 640 c 0
 806 1002 694 1123 512 1123 c 2
 426 1123 l 1
EndSplineSet
Validated: 1
EndChar

StartChar: uni018B
Encoding: 395 395 779
Width: 1024
VWidth: 0
Flags: H
LayerCount: 2
Fore
SplineSet
896 1280 m 1
 896 0 l 1
 432 0 l 2
 214 0 80 126 80 330 c 0
 80 601 257 768 544 768 c 2
 726 768 l 1
 726 1123 l 1
 160 1123 l 1
 160 1280 l 1
 896 1280 l 1
726 611 m 1
 544 611 l 2
 362 611 250 504 250 330 c 0
 250 223 320 157 432 157 c 2
 726 157 l 1
 726 611 l 1
EndSplineSet
Validated: 1
EndChar

StartChar: uni018C
Encoding: 396 396 780
Width: 1024
VWidth: 0
Flags: H
LayerCount: 2
Fore
SplineSet
896 0 m 1
 452 0 l 2
 242 0 112 149 112 390 c 0
 112 721 282 925 556 925 c 2
 726 925 l 1
 726 1123 l 1
 256 1123 l 1
 256 1280 l 1
 896 1280 l 1
 896 0 l 1
726 157 m 1
 726 768 l 1
 556 768 l 2
 387 768 282 624 282 390 c 0
 282 246 347 157 452 157 c 2
 726 157 l 1
EndSplineSet
Validated: 1
EndChar

StartChar: uni018E
Encoding: 398 398 781
Width: 1024
VWidth: 0
Flags: H
LayerCount: 2
Fore
SplineSet
864 1280 m 1
 864 0 l 1
 128 0 l 1
 128 157 l 1
 694 157 l 1
 694 611 l 1
 192 611 l 1
 192 768 l 1
 694 768 l 1
 694 1123 l 1
 128 1123 l 1
 128 1280 l 1
 864 1280 l 1
EndSplineSet
Validated: 1
EndChar

StartChar: uni018F
Encoding: 399 399 782
Width: 1024
VWidth: 0
Flags: HW
LayerCount: 2
Fore
SplineSet
406 1288 m 0
 734 1288 936 1071 936 671 c 0
 936 224 771 -16 504 -16 c 0
 237 -16 80 155 80 431 c 0
 80 639 96 768 96 768 c 2
 758 768 l 1
 758 768 758 1123 406 1123 c 2
 184 1123 l 1
 184 1272 l 1
 184 1272 269 1288 406 1288 c 0
250 611 m 1
 250 431 l 2
 250 252 347 141 504 141 c 0
 758 141 758 611 758 611 c 1
 250 611 l 1
EndSplineSet
Validated: 1
EndChar

StartChar: uni019F
Encoding: 415 415 783
Width: 1024
VWidth: 0
Flags: HW
LayerCount: 2
Fore
SplineSet
512 1296 m 0
 799 1296 976 1132 976 640 c 0
 976 148 799 -16 512 -16 c 0
 225 -16 48 148 48 640 c 0
 48 1132 225 1296 512 1296 c 0
512 1139 m 0
 348 1139 243 1032 228 719 c 1
 796 719 l 1
 781 1032 676 1139 512 1139 c 0
228 562 m 1
 243 248 348 141 512 141 c 0
 676 141 781 248 796 562 c 1
 228 562 l 1
EndSplineSet
Validated: 1
EndChar

StartChar: uni0190
Encoding: 400 400 786
Width: 1024
VWidth: 0
Flags: H
LayerCount: 2
Fore
SplineSet
864 1272 m 1
 864 1123 l 1
 589 1123 l 1
 419 1128 314 1079 314 946 c 0
 314 813 436 768 634 768 c 2
 800 768 l 1
 800 611 l 1
 622 611 l 2
 412 611 282 554 282 384 c 0
 282 214 399 157 589 157 c 2
 896 157 l 1
 896 8 l 1
 896 8 779 -8 589 -8 c 0
 294 -8 112 90 112 384 c 0
 112 643 314 708 314 708 c 1
 314 708 144 757 144 946 c 0
 144 1203 314 1288 589 1288 c 0
 759 1288 864 1272 864 1272 c 1
EndSplineSet
Validated: 33
EndChar

StartChar: uni0191
Encoding: 401 401 787
Width: 1024
VWidth: 0
Flags: H
LayerCount: 2
Fore
SplineSet
160 1280 m 1
 896 1280 l 1
 896 1123 l 1
 330 1123 l 1
 330 768 l 1
 864 768 l 1
 864 611 l 1
 330 611 l 1
 330 157 l 2
 330 -159 220 -264 41 -264 c 0
 -4 -264 -32 -248 -32 -248 c 1
 -32 -99 l 1
 41 -99 l 2
 115 -99 160 -35 160 157 c 2
 160 1280 l 1
EndSplineSet
Validated: 1
EndChar

StartChar: florin
Encoding: 402 402 788
Width: 1024
VWidth: 0
Flags: H
LayerCount: 2
Fore
SplineSet
821 1445 m 0
 907 1445 960 1429 960 1429 c 1
 960 1280 l 1
 821 1280 l 2
 653 1280 597 1216 597 1024 c 1
 960 1024 l 1
 960 867 l 1
 597 867 l 1
 597 157 l 2
 597 -159 477 -264 282 -264 c 0
 226 -264 192 -248 192 -248 c 1
 192 -99 l 1
 282 -99 l 2
 372 -99 427 -35 427 157 c 2
 427 867 l 1
 128 867 l 1
 128 1024 l 1
 427 1024 l 1
 427 1340 525 1445 821 1445 c 0
EndSplineSet
Validated: 1
EndChar

StartChar: uni0193
Encoding: 403 403 789
Width: 1024
VWidth: 0
Flags: H
LayerCount: 2
Fore
SplineSet
923 1540 m 0
 985 1540 1024 1532 1024 1532 c 1
 1024 1404 l 1
 945 1404 896 1404 896 1280 c 2
 896 1123 l 1
 640 1123 l 2
 384 1123 258 939 258 640 c 0
 258 272 376 149 567 149 c 0
 685 149 758 176 758 256 c 2
 758 611 l 1
 512 611 l 1
 512 768 l 1
 928 768 l 1
 928 256 l 2
 928 58 790 -8 567 -8 c 0
 266 -8 80 154 80 640 c 0
 80 1040 274 1288 640 1288 c 2
 760 1288 l 1
 760 1444 822 1540 923 1540 c 0
EndSplineSet
Validated: 1
EndChar

StartChar: uni0194
Encoding: 404 404 790
Width: 1024
VWidth: 0
Flags: H
LayerCount: 2
Fore
SplineSet
32 1280 m 1
 222 1280 l 1
 512 702 l 1
 802 1280 l 1
 992 1280 l 1
 607 512 l 1
 896 0 l 1
 128 0 l 1
 417 512 l 1
 32 1280 l 1
512 382 m 1
 379 146 l 1
 645 146 l 1
 512 382 l 1
EndSplineSet
Validated: 1
EndChar

StartChar: uni0195
Encoding: 405 405 791
Width: 1024
VWidth: 0
Flags: H
LayerCount: 2
Fore
SplineSet
64 1280 m 1
 234 1280 l 1
 234 917 l 1
 234 917 271 933 330 933 c 0
 495 933 597 844 597 576 c 2
 597 385 l 2
 597 208 634 149 694 149 c 0
 754 149 790 208 790 385 c 2
 790 925 l 1
 960 925 l 1
 960 385 l 2
 960 90 859 -8 694 -8 c 0
 529 -8 427 90 427 385 c 2
 427 576 l 2
 427 720 390 768 330 768 c 2
 234 768 l 1
 234 0 l 1
 64 0 l 1
 64 1280 l 1
EndSplineSet
Validated: 1
EndChar

StartChar: uni0196
Encoding: 406 406 792
Width: 1024
VWidth: 0
Flags: H
LayerCount: 2
Fore
SplineSet
896 8 m 1
 896 8 852 -8 782 -8 c 0
 563 -8 427 73 427 316 c 2
 427 1280 l 1
 597 1280 l 1
 597 316 l 2
 597 197 668 157 782 157 c 2
 896 157 l 1
 896 8 l 1
EndSplineSet
Validated: 1
EndChar

StartChar: uni0197
Encoding: 407 407 793
Width: 1024
VWidth: 0
Flags: H
LayerCount: 2
Fore
SplineSet
160 1280 m 1
 864 1280 l 1
 864 1123 l 1
 597 1123 l 1
 597 768 l 1
 832 768 l 1
 832 611 l 1
 597 611 l 1
 597 157 l 1
 864 157 l 1
 864 0 l 1
 160 0 l 1
 160 157 l 1
 427 157 l 1
 427 611 l 1
 192 611 l 1
 192 768 l 1
 427 768 l 1
 427 1123 l 1
 160 1123 l 1
 160 1280 l 1
EndSplineSet
Validated: 1
EndChar

StartChar: uni0198
Encoding: 408 408 794
Width: 1024
VWidth: 0
Flags: H
LayerCount: 2
Fore
SplineSet
128 1280 m 1
 298 1280 l 1
 298 704 l 1
 610 1118 l 2
 689 1223 738 1288 826 1288 c 0
 909 1288 960 1272 960 1272 c 1
 960 1123 l 1
 809 1123 809 1123 735 1024 c 2
 477 681 l 1
 960 0 l 1
 752 0 l 1
 298 640 l 1
 298 0 l 1
 128 0 l 1
 128 1280 l 1
EndSplineSet
Validated: 1
EndChar

StartChar: uni0199
Encoding: 409 409 795
Width: 1024
VWidth: 0
Flags: H
LayerCount: 2
Fore
SplineSet
430 1288 m 0
 481 1288 512 1272 512 1272 c 1
 512 1123 l 1
 430 1123 l 2
 348 1123 298 1059 298 867 c 2
 298 656 l 1
 790 1024 l 1
 896 918 l 1
 497 620 l 1
 960 0 l 1
 764 0 l 1
 298 624 l 1
 298 0 l 1
 128 0 l 1
 128 867 l 2
 128 1183 243 1288 430 1288 c 0
EndSplineSet
Validated: 1
EndChar

StartChar: uni019A
Encoding: 410 410 796
Width: 1024
VWidth: 0
Flags: H
LayerCount: 2
Fore
SplineSet
160 1280 m 1
 597 1280 l 1
 597 768 l 1
 832 768 l 1
 832 611 l 1
 597 611 l 1
 597 157 l 1
 896 157 l 1
 896 0 l 1
 128 0 l 1
 128 157 l 1
 427 157 l 1
 427 611 l 1
 192 611 l 1
 192 768 l 1
 427 768 l 1
 427 1123 l 1
 160 1123 l 1
 160 1280 l 1
EndSplineSet
Validated: 1
EndChar

StartChar: uni019B
Encoding: 411 411 797
Width: 1024
VWidth: 0
Flags: H
LayerCount: 2
Fore
SplineSet
253 1288 m 0
 366 1288 400 1214 455 1095 c 2
 488 1024 l 1
 768 1180 l 1
 768 1024 l 1
 545 900 l 1
 960 0 l 1
 773 0 l 1
 512 565 l 1
 251 0 l 1
 64 0 l 1
 418 768 l 1
 395 817 l 1
 128 668 l 1
 128 824 l 1
 337 940 l 1
 300 1019 l 2
 251 1123 251 1123 128 1123 c 1
 128 1272 l 1
 128 1272 176 1288 253 1288 c 0
EndSplineSet
Validated: 1
EndChar

StartChar: uni019C
Encoding: 412 412 798
Width: 1024
VWidth: 0
Flags: H
LayerCount: 2
Fore
SplineSet
697 -8 m 0
 552 -8 504 61 504 61 c 1
 504 61 436 -8 327 -8 c 0
 164 -8 64 88 64 256 c 2
 64 1280 l 1
 221 1280 l 1
 221 256 l 2
 221 178 261 130 327 130 c 0
 393 130 433 178 433 178 c 1
 433 1280 l 1
 591 1280 l 1
 591 256 l 2
 590 178 631 130 697 130 c 0
 763 130 803 178 803 178 c 1
 803 1280 l 1
 960 1280 l 1
 960 88 l 1
 960 88 860 -8 697 -8 c 0
EndSplineSet
Validated: 33
EndChar

StartChar: uni019D
Encoding: 413 413 799
Width: 1024
VWidth: 0
Flags: H
LayerCount: 2
Fore
SplineSet
96 1280 m 1
 300 1280 l 1
 651 512 l 1
 762 256 l 1
 758 512 l 1
 758 1280 l 1
 928 1280 l 1
 928 0 l 1
 723 0 l 1
 373 768 l 1
 262 1024 l 1
 266 768 l 1
 266 157 l 2
 266 -159 163 -264 -3 -264 c 0
 -40 -264 -64 -248 -64 -248 c 1
 -64 -99 l 1
 -3 -99 l 2
 58 -99 96 -35 96 157 c 2
 96 1280 l 1
EndSplineSet
Validated: 1
EndChar

StartChar: Ohorn
Encoding: 416 416 803
Width: 1024
VWidth: 0
Flags: H
LayerCount: 2
Fore
SplineSet
854 1408 m 1
 1024 1408 l 1
 1024 1220 963 1124 900 1075 c 1
 950 973 976 831 976 640 c 0
 976 148 799 -16 512 -16 c 0
 225 -16 48 148 48 640 c 0
 48 1132 225 1296 512 1296 c 0
 634 1296 736 1266 813 1194 c 1
 834 1226 854 1288 854 1408 c 1
512 1139 m 0
 335 1139 226 1014 226 640 c 0
 226 266 335 141 512 141 c 0
 689 141 798 266 798 640 c 0
 798 1014 689 1139 512 1139 c 0
EndSplineSet
Validated: 1
EndChar

StartChar: ohorn
Encoding: 417 417 804
Width: 1024
VWidth: 0
Flags: H
LayerCount: 2
Fore
SplineSet
854 1152 m 1
 1024 1152 l 1
 1024 959 959 863 895 815 c 1
 927 738 944 639 944 512 c 0
 944 116 779 -16 512 -16 c 0
 245 -16 80 116 80 512 c 0
 80 908 245 1040 512 1040 c 0
 637 1040 740 1011 814 939 c 1
 835 971 854 1033 854 1152 c 1
512 883 m 0
 350 883 250 790 250 512 c 0
 250 234 350 141 512 141 c 0
 674 141 774 234 774 512 c 0
 774 790 674 883 512 883 c 0
EndSplineSet
Validated: 1
EndChar

StartChar: uni01A2
Encoding: 418 418 805
Width: 1024
VWidth: 0
Flags: H
LayerCount: 2
Fore
SplineSet
360 1288 m 0
 457 1288 534 1249 578 1179 c 1
 790 1280 l 1
 960 1280 l 1
 960 0 l 1
 790 0 l 1
 790 1106 l 1
 618 1024 l 1
 618 256 l 2
 618 88 512 -8 360 -8 c 0
 141 -8 48 154 48 640 c 0
 48 1126 141 1288 360 1288 c 0
360 1131 m 0
 268 1131 218 1008 218 640 c 0
 218 272 268 149 360 149 c 0
 414 149 448 185 448 256 c 2
 448 1024 l 2
 448 1095 414 1131 360 1131 c 0
EndSplineSet
Validated: 1
EndChar

StartChar: uni01A3
Encoding: 419 419 806
Width: 1024
VWidth: 0
Flags: H
LayerCount: 2
Fore
SplineSet
372 1032 m 0
 467 1032 539 993 580 924 c 1
 790 1024 l 1
 960 1024 l 1
 960 0 l 1
 790 0 l 1
 790 850 l 1
 618 768 l 1
 618 256 l 2
 618 88 524 -8 372 -8 c 0
 153 -8 80 122 80 512 c 0
 80 902 153 1032 372 1032 c 0
372 875 m 0
 280 875 250 784 250 512 c 0
 250 240 280 149 372 149 c 0
 419 149 448 185 448 256 c 2
 448 768 l 2
 448 839 419 875 372 875 c 0
EndSplineSet
Validated: 1
EndChar

StartChar: uni01A4
Encoding: 420 420 807
Width: 1024
VWidth: 0
Flags: H
LayerCount: 2
Fore
SplineSet
256 1280 m 2
 641 1280 l 2
 828 1280 944 1133 944 896 c 0
 944 659 797 512 559 512 c 2
 426 512 l 1
 426 0 l 1
 256 0 l 1
 256 1123 l 1
 152 1123 152 1036 152 896 c 1
 20 896 l 1
 20 896 12 952 12 1043 c 0
 12 1190 105 1280 256 1280 c 2
426 1123 m 1
 426 669 l 1
 559 669 l 2
 692 669 774 756 774 896 c 0
 774 1036 723 1123 641 1123 c 2
 426 1123 l 1
EndSplineSet
Validated: 1
EndChar

StartChar: uni01A5
Encoding: 421 421 808
Width: 1024
VWidth: 0
Flags: H
LayerCount: 2
Fore
SplineSet
430 1445 m 0
 481 1445 512 1429 512 1429 c 1
 512 1280 l 1
 430 1280 l 2
 348 1280 298 1216 298 1024 c 1
 572 1024 l 2
 782 1024 912 898 912 694 c 0
 912 420 742 256 468 256 c 2
 298 256 l 1
 298 -256 l 1
 128 -256 l 1
 128 1024 l 2
 128 1340 243 1445 430 1445 c 0
298 867 m 1
 298 413 l 1
 468 413 l 2
 637 413 742 520 742 694 c 0
 742 801 677 867 572 867 c 2
 298 867 l 1
EndSplineSet
Validated: 1
EndChar

StartChar: uni01A6
Encoding: 422 422 809
Width: 1024
VWidth: 0
Flags: H
LayerCount: 2
Fore
SplineSet
128 1280 m 1
 298 1280 l 1
 298 1024 l 1
 572 1024 l 2
 782 1024 912 941 912 690 c 0
 912 515 829 421 686 380 c 1
 960 -256 l 1
 775 -256 l 1
 512 355 l 1
 298 355 l 1
 298 0 l 1
 128 0 l 1
 128 1280 l 1
298 867 m 1
 298 512 l 1
 468 512 l 2
 637 512 742 557 742 690 c 0
 742 823 677 867 572 867 c 2
 298 867 l 1
EndSplineSet
Validated: 1
EndChar

StartChar: uni01A7
Encoding: 423 423 810
Width: 1024
VWidth: 0
Flags: H
LayerCount: 2
Fore
SplineSet
372 1288 m 0
 706 1288 912 1201 912 939 c 0
 912 512 258 640 258 341 c 0
 258 203 361 157 672 157 c 2
 928 157 l 1
 928 8 l 1
 928 8 830 -8 672 -8 c 0
 228 -8 80 79 80 341 c 0
 80 768 734 640 734 939 c 0
 734 1077 596 1123 372 1123 c 2
 128 1123 l 1
 128 1272 l 1
 128 1272 221 1288 372 1288 c 0
EndSplineSet
Validated: 1
EndChar

StartChar: uni01A8
Encoding: 424 424 811
Width: 1024
VWidth: 0
Flags: H
LayerCount: 2
Fore
SplineSet
390 1032 m 0
 693 1032 880 957 880 731 c 0
 880 384 314 512 314 292 c 0
 314 190 444 157 654 157 c 2
 864 157 l 1
 864 8 l 1
 864 8 784 -8 654 -8 c 0
 339 -8 144 66 144 292 c 0
 144 640 710 512 710 731 c 0
 710 833 588 867 390 867 c 2
 192 867 l 1
 192 1016 l 1
 192 1016 268 1032 390 1032 c 0
EndSplineSet
Validated: 1
EndChar

StartChar: uni01AA
Encoding: 426 426 813
Width: 1024
VWidth: 0
Flags: H
LayerCount: 2
Fore
SplineSet
341 1408 m 0
 482 1408 597 1293 597 1152 c 2
 597 157 l 2
 597 -35 668 -99 782 -99 c 2
 896 -99 l 1
 896 -248 l 1
 896 -248 852 -264 782 -264 c 0
 563 -264 427 -159 427 157 c 2
 427 911 l 1
 400 901 371 896 341 896 c 0
 200 896 85 1011 85 1152 c 0
 85 1293 200 1408 341 1408 c 0
341 1272 m 0
 275 1272 221 1218 221 1152 c 0
 221 1086 275 1032 341 1032 c 0
 407 1032 461 1086 461 1152 c 0
 461 1218 407 1272 341 1272 c 0
EndSplineSet
Validated: 1
EndChar

StartChar: uni01AB
Encoding: 427 427 814
Width: 1024
VWidth: 0
Flags: H
LayerCount: 2
Fore
SplineSet
342 1280 m 1
 512 1280 l 1
 512 925 l 1
 928 925 l 1
 928 768 l 1
 512 768 l 1
 512 314 l 2
 512 196 585 157 704 157 c 2
 864 157 l 1
 864 0 l 2
 864 -337 790 -421 568 -421 c 0
 521 -421 492 -405 492 -405 c 1
 492 -256 l 1
 568 -256 l 2
 661 -256 694 -192 694 0 c 1
 476 0 342 78 342 314 c 2
 342 768 l 1
 64 768 l 1
 64 925 l 1
 342 925 l 1
 342 1280 l 1
EndSplineSet
Validated: 1
EndChar

StartChar: uni01AC
Encoding: 428 428 815
Width: 1024
VWidth: 0
Flags: H
LayerCount: 2
Fore
SplineSet
256 1280 m 2
 960 1280 l 1
 960 1123 l 1
 597 1123 l 1
 597 0 l 1
 427 0 l 1
 427 1123 l 1
 256 1123 l 2
 152 1123 152 1036 152 896 c 1
 20 896 l 1
 20 896 12 952 12 1043 c 0
 12 1190 105 1280 256 1280 c 2
EndSplineSet
Validated: 1
EndChar

StartChar: uni01AD
Encoding: 429 429 816
Width: 1024
VWidth: 0
Flags: H
LayerCount: 2
Fore
SplineSet
644 1288 m 0
 695 1288 726 1272 726 1272 c 1
 726 1123 l 1
 644 1123 l 2
 562 1123 512 1074 512 925 c 1
 928 925 l 1
 928 768 l 1
 512 768 l 1
 512 314 l 2
 512 196 585 157 704 157 c 2
 864 157 l 1
 864 8 l 1
 864 8 803 -8 704 -8 c 0
 480 -8 342 72 342 314 c 2
 342 768 l 1
 64 768 l 1
 64 925 l 1
 342 925 l 1
 342 1197 457 1288 644 1288 c 0
EndSplineSet
Validated: 1
EndChar

StartChar: uni01AE
Encoding: 430 430 817
Width: 1024
VWidth: 0
Flags: H
LayerCount: 2
Fore
SplineSet
64 1280 m 1
 960 1280 l 1
 960 1123 l 1
 597 1123 l 1
 597 60 l 2
 597 -59 668 -99 782 -99 c 2
 896 -99 l 1
 896 -248 l 1
 896 -248 852 -264 782 -264 c 0
 563 -264 427 -183 427 60 c 2
 427 1123 l 1
 64 1123 l 1
 64 1280 l 1
EndSplineSet
Validated: 1
EndChar

StartChar: Uhorn
Encoding: 431 431 818
Width: 1024
VWidth: 0
Flags: H
LayerCount: 2
Fore
SplineSet
918 1408 m 1
 1088 1408 l 1
 1088 1123 947 1050 874 1031 c 1
 874 576 l 2
 874 132 719 -16 469 -16 c 0
 219 -16 64 132 64 576 c 2
 64 1280 l 1
 234 1280 l 1
 234 576 l 1
 219 250 324 141 469 141 c 0
 614 141 704 250 704 576 c 2
 704 1280 l 1
 874 1280 l 1
 874 1190 l 1
 896 1221 918 1282 918 1408 c 1
EndSplineSet
Validated: 33
EndChar

StartChar: uhorn
Encoding: 432 432 819
Width: 1024
VWidth: 0
Flags: H
LayerCount: 2
Fore
SplineSet
918 1152 m 1
 1088 1152 l 1
 1088 867 947 794 874 775 c 1
 874 88 l 1
 874 88 732 -16 501 -16 c 0
 270 -16 128 79 128 366 c 2
 128 1024 l 1
 298 1024 l 1
 298 366 l 2
 298 197 376 141 501 141 c 0
 626 141 704 185 704 185 c 1
 704 1024 l 1
 874 1024 l 1
 874 934 l 1
 896 965 918 1026 918 1152 c 1
EndSplineSet
Validated: 1
EndChar

StartChar: uni01B2
Encoding: 434 434 821
Width: 1024
VWidth: 0
Flags: H
LayerCount: 2
Fore
SplineSet
606 1288 m 0
 805 1288 928 1183 928 867 c 2
 928 576 l 2
 928 132 824 -16 512 -16 c 0
 200 -16 96 132 96 576 c 2
 96 1280 l 1
 266 1280 l 1
 266 576 l 2
 266 250 327 141 512 141 c 0
 697 141 758 250 758 576 c 2
 758 867 l 2
 758 1059 700 1123 606 1123 c 2
 512 1123 l 1
 512 1272 l 1
 512 1272 548 1288 606 1288 c 0
EndSplineSet
Validated: 1
EndChar

StartChar: uni01B3
Encoding: 435 435 822
Width: 1024
VWidth: 0
Flags: H
LayerCount: 2
Fore
SplineSet
32 1280 m 1
 223 1280 l 1
 512 700 l 1
 712 1101 l 2
 770 1216 805 1288 905 1288 c 0
 979 1288 1024 1272 1024 1272 c 1
 1024 1123 l 1
 911 1123 911 1123 860 1024 c 2
 597 512 l 1
 597 0 l 1
 427 0 l 1
 427 512 l 1
 32 1280 l 1
EndSplineSet
Validated: 1
EndChar

StartChar: uni01B4
Encoding: 436 436 823
Width: 1024
VWidth: 0
Flags: H
LayerCount: 2
Fore
SplineSet
1015 1284 m 0
 1058 1284 1088 1276 1088 1276 c 1
 1088 1123 l 1
 1015 1123 l 2
 941 1123 896 1059 896 867 c 2
 896 120 l 2
 896 -168 713 -264 416 -264 c 0
 297 -264 224 -248 224 -248 c 1
 224 -99 l 1
 416 -99 l 2
 608 -99 726 -44 726 120 c 2
 726 264 l 1
 726 264 644 248 512 248 c 0
 275 248 128 369 128 566 c 2
 128 1024 l 1
 298 1024 l 1
 298 566 l 2
 298 471 380 413 512 413 c 2
 726 413 l 1
 726 867 l 2
 726 1183 836 1284 1015 1284 c 0
EndSplineSet
Validated: 1
EndChar

StartChar: uni01B5
Encoding: 437 437 824
Width: 1024
VWidth: 0
Flags: H
LayerCount: 2
Fore
SplineSet
128 1280 m 1
 896 1280 l 1
 896 1123 l 1
 671 768 l 1
 864 768 l 1
 864 611 l 1
 571 611 l 1
 283 157 l 1
 928 157 l 1
 928 0 l 1
 96 0 l 1
 96 157 l 1
 384 611 l 1
 160 611 l 1
 160 768 l 1
 484 768 l 1
 709 1123 l 1
 128 1123 l 1
 128 1280 l 1
EndSplineSet
Validated: 1
EndChar

StartChar: uni01B6
Encoding: 438 438 825
Width: 1024
VWidth: 0
Flags: H
LayerCount: 2
Fore
SplineSet
160 1024 m 1
 896 1024 l 1
 896 867 l 1
 676 591 l 1
 864 591 l 1
 864 433 l 1
 549 433 l 1
 329 157 l 1
 896 157 l 1
 896 0 l 1
 128 0 l 1
 128 157 l 1
 348 433 l 1
 160 433 l 1
 160 591 l 1
 475 591 l 1
 695 867 l 1
 160 867 l 1
 160 1024 l 1
EndSplineSet
Validated: 1
EndChar

StartChar: uni01B7
Encoding: 439 439 826
Width: 1024
VWidth: 0
Flags: H
LayerCount: 2
Fore
SplineSet
896 1280 m 1
 896 1123 l 1
 512 768 l 1
 779 768 944 642 944 438 c 0
 944 103 719 -8 355 -8 c 0
 195 -8 96 8 96 8 c 1
 96 157 l 1
 355 157 l 2
 614 157 774 227 774 438 c 0
 774 545 658 611 469 611 c 2
 280 611 l 1
 280 768 l 1
 664 1123 l 1
 128 1123 l 1
 128 1280 l 1
 896 1280 l 1
EndSplineSet
Validated: 1
EndChar

StartChar: uni01B8
Encoding: 440 440 828
Width: 1024
VWidth: 0
Flags: H
LayerCount: 2
Fore
SplineSet
128 1280 m 1
 896 1280 l 1
 896 1123 l 1
 360 1123 l 1
 744 768 l 1
 744 611 l 1
 555 611 l 2
 366 611 250 545 250 438 c 0
 250 227 410 157 669 157 c 2
 928 157 l 1
 928 8 l 1
 928 8 829 -8 669 -8 c 0
 305 -8 80 103 80 438 c 0
 80 642 245 768 512 768 c 1
 128 1123 l 1
 128 1280 l 1
EndSplineSet
Validated: 1
EndChar

StartChar: uni01BA
Encoding: 442 442 829
Width: 1024
VWidth: 0
Flags: H
LayerCount: 2
Fore
SplineSet
160 1024 m 1
 864 1024 l 1
 864 867 l 1
 576 669 l 1
 784 669 912 560 912 384 c 0
 912 170 759 99 512 99 c 0
 370 99 282 61 282 0 c 0
 282 -74 337 -99 504 -99 c 2
 864 -99 l 1
 864 -256 l 1
 504 -256 l 2
 210 -256 112 -192 112 0 c 0
 112 158 265 256 512 256 c 0
 654 256 742 288 742 384 c 0
 742 481 642 512 481 512 c 2
 320 512 l 1
 320 669 l 1
 608 867 l 1
 160 867 l 1
 160 1024 l 1
EndSplineSet
Validated: 1
EndChar

StartChar: uni01BB
Encoding: 443 443 830
Width: 1024
VWidth: 0
Flags: H
LayerCount: 2
Fore
SplineSet
512 1296 m 0
 739 1296 880 1182 880 997 c 0
 880 924 880 873 811 768 c 1
 896 768 l 1
 896 611 l 1
 692 611 l 1
 329 157 l 1
 896 157 l 1
 896 0 l 1
 128 0 l 1
 128 157 l 1
 491 611 l 1
 192 611 l 1
 192 768 l 1
 616 768 l 1
 710 886 710 928 710 997 c 0
 710 1085 634 1139 512 1139 c 0
 390 1139 314 1085 314 997 c 1
 144 1024 l 1
 144 1192 285 1296 512 1296 c 0
EndSplineSet
Validated: 1
EndChar

StartChar: uni01BC
Encoding: 444 444 831
Width: 1024
VWidth: 0
Flags: H
LayerCount: 2
Fore
SplineSet
64 1280 m 1
 864 1280 l 1
 864 1123 l 1
 429 1123 l 1
 362 768 l 1
 512 768 l 2
 759 768 912 642 912 438 c 0
 912 159 702 -8 363 -8 c 0
 218 -8 128 8 128 8 c 1
 128 157 l 1
 363 157 l 2
 597 157 742 248 742 438 c 0
 742 545 654 611 512 611 c 2
 160 611 l 1
 256 1123 l 1
 64 1123 l 1
 64 1280 l 1
EndSplineSet
Validated: 1
EndChar

StartChar: uni01BD
Encoding: 445 445 832
Width: 1024
VWidth: 0
Flags: H
LayerCount: 2
Fore
SplineSet
128 1024 m 1
 864 1024 l 1
 864 867 l 1
 449 867 l 1
 388 591 l 1
 512 591 l 2
 759 591 912 517 912 295 c 0
 912 112 710 -8 382 -8 c 0
 245 -8 160 8 160 8 c 1
 160 157 l 1
 382 157 l 2
 604 157 742 210 742 295 c 0
 742 399 654 433 512 433 c 2
 192 433 l 1
 288 867 l 1
 128 867 l 1
 128 1024 l 1
EndSplineSet
Validated: 1
EndChar

StartChar: uni01BE
Encoding: 446 446 833
Width: 1024
VWidth: 0
Flags: H
LayerCount: 2
Fore
SplineSet
128 1024 m 1
 342 1024 l 1
 342 1280 l 1
 512 1280 l 1
 512 1024 l 1
 768 1024 l 1
 768 867 l 1
 512 867 l 1
 512 669 l 1
 759 669 912 586 912 335 c 0
 912 123 732 -8 442 -8 c 0
 327 -8 256 8 256 8 c 1
 256 157 l 1
 442 157 l 2
 627 157 742 225 742 335 c 0
 742 468 654 512 512 512 c 2
 342 512 l 1
 342 867 l 1
 128 867 l 1
 128 1024 l 1
EndSplineSet
Validated: 1
EndChar

StartChar: uni01BF
Encoding: 447 447 834
Width: 1024
VWidth: 0
Flags: H
LayerCount: 2
Fore
SplineSet
384 1024 m 2
 572 1024 l 2
 782 1024 912 874 912 634 c 0
 912 99 298 99 298 99 c 1
 298 -256 l 1
 128 -256 l 1
 128 768 l 2
 128 960 192 1024 384 1024 c 2
384 867 m 2
 331 867 298 829 298 768 c 2
 298 256 l 1
 298 256 742 256 742 634 c 0
 742 778 677 867 572 867 c 2
 384 867 l 2
EndSplineSet
Validated: 1
EndChar

StartChar: uni01B9
Encoding: 441 441 835
Width: 1024
VWidth: 0
Flags: H
LayerCount: 2
Fore
SplineSet
160 1024 m 1
 864 1024 l 1
 864 867 l 1
 382 867 l 1
 734 512 l 1
 734 355 l 1
 551 355 l 2
 381 355 282 268 282 128 c 0
 282 -12 399 -99 589 -99 c 2
 896 -99 l 1
 896 -248 l 1
 896 -248 779 -264 589 -264 c 0
 294 -264 112 -114 112 128 c 0
 112 365 265 512 512 512 c 1
 160 867 l 1
 160 1024 l 1
EndSplineSet
Validated: 1
EndChar

StartChar: uni0292
Encoding: 658 658 836
Width: 1024
VWidth: 0
Flags: H
LayerCount: 2
Fore
SplineSet
864 1024 m 1
 864 867 l 1
 512 512 l 1
 759 512 912 365 912 128 c 0
 912 -114 730 -264 435 -264 c 0
 245 -264 128 -248 128 -248 c 1
 128 -99 l 1
 435 -99 l 2
 625 -99 742 -12 742 128 c 0
 742 268 643 355 473 355 c 2
 290 355 l 1
 290 512 l 1
 642 867 l 1
 160 867 l 1
 160 1024 l 1
 864 1024 l 1
EndSplineSet
Validated: 1
EndChar

StartChar: uni0262
Encoding: 610 610 838
Width: 1024
VWidth: 0
Flags: H
LayerCount: 2
Fore
SplineSet
645 1032 m 0
 780 1032 864 1016 864 1016 c 1
 864 867 l 1
 645 867 l 2
 426 867 282 734 282 512 c 0
 282 290 394 149 576 149 c 0
 688 149 758 193 758 325 c 2
 758 433 l 1
 512 433 l 1
 512 591 l 1
 928 591 l 1
 928 325 l 2
 928 75 794 -8 576 -8 c 0
 289 -8 112 191 112 512 c 0
 112 833 316 1032 645 1032 c 0
EndSplineSet
Validated: 1
EndChar

StartChar: uni01F1
Encoding: 497 497 848
Width: 1024
VWidth: 0
Flags: H
LayerCount: 2
Fore
SplineSet
32 1280 m 1
 189 1280 l 2
 408 1280 544 1036 544 640 c 0
 544 244 408 0 189 0 c 2
 32 0 l 1
 32 1280 l 1
544 1280 m 1
 992 1280 l 1
 992 1123 l 1
 697 157 l 1
 992 157 l 1
 992 0 l 1
 544 0 l 1
 544 157 l 1
 839 1123 l 1
 544 1123 l 1
 544 1280 l 1
189 1123 m 1
 189 157 l 1
 311 157 386 341 386 640 c 0
 386 939 311 1123 189 1123 c 1
EndSplineSet
Validated: 1
EndChar

StartChar: uni01F2
Encoding: 498 498 849
Width: 1024
VWidth: 0
Flags: H
LayerCount: 2
Fore
SplineSet
32 1280 m 1
 189 1280 l 2
 408 1280 544 1036 544 640 c 0
 544 244 408 0 189 0 c 2
 32 0 l 1
 32 1280 l 1
189 1123 m 1
 189 157 l 1
 311 157 386 341 386 640 c 0
 386 939 311 1123 189 1123 c 1
544 1024 m 1
 992 1024 l 1
 992 867 l 1
 692 157 l 1
 992 157 l 1
 992 0 l 1
 544 0 l 1
 544 157 l 1
 844 867 l 1
 544 867 l 1
 544 1024 l 1
EndSplineSet
Validated: 1
EndChar

StartChar: uni01F3
Encoding: 499 499 850
Width: 1024
VWidth: 0
Flags: H
LayerCount: 2
Fore
SplineSet
355 1280 m 1
 512 1280 l 1
 512 0 l 1
 355 0 l 2
 150 0 24 97 24 390 c 0
 24 791 150 925 355 925 c 1
 355 1280 l 1
544 1024 m 1
 992 1024 l 1
 992 867 l 1
 692 157 l 1
 992 157 l 1
 992 0 l 1
 544 0 l 1
 544 157 l 1
 844 867 l 1
 544 867 l 1
 544 1024 l 1
355 768 m 1
 247 768 181 674 181 390 c 0
 181 215 247 157 355 157 c 1
 355 768 l 1
EndSplineSet
Validated: 1
EndChar

StartChar: uni01C7
Encoding: 455 455 851
Width: 1024
VWidth: 0
Flags: H
LayerCount: 2
Fore
SplineSet
64 1280 m 1
 234 1280 l 1
 234 157 l 1
 448 157 l 1
 448 0 l 1
 64 0 l 1
 64 1280 l 1
512 1280 m 1
 960 1280 l 1
 960 399 l 2
 960 97 845 -4 658 -4 c 0
 607 -4 576 4 576 4 c 1
 576 157 l 1
 658 157 l 2
 740 157 790 217 790 399 c 2
 790 1123 l 1
 512 1123 l 1
 512 1280 l 1
EndSplineSet
Validated: 1
EndChar

StartChar: uni01C8
Encoding: 456 456 852
Width: 1024
VWidth: 0
Flags: H
LayerCount: 2
Fore
SplineSet
736 1365 m 1
 960 1365 l 1
 960 1195 l 1
 736 1195 l 1
 736 1365 l 1
64 1280 m 1
 234 1280 l 1
 234 157 l 1
 512 157 l 1
 512 0 l 1
 64 0 l 1
 64 1280 l 1
512 925 m 1
 960 925 l 1
 960 143 l 2
 960 -159 829 -260 618 -260 c 0
 552 -260 512 -252 512 -252 c 1
 512 -99 l 1
 618 -99 l 2
 724 -99 790 -39 790 143 c 2
 790 768 l 1
 512 768 l 1
 512 925 l 1
EndSplineSet
Validated: 1
EndChar

StartChar: uni01C9
Encoding: 457 457 853
Width: 1024
VWidth: 0
Flags: H
LayerCount: 2
Fore
SplineSet
736 1365 m 1
 960 1365 l 1
 960 1195 l 1
 736 1195 l 1
 736 1365 l 1
32 1280 m 1
 341 1280 l 1
 341 157 l 1
 512 157 l 1
 512 0 l 1
 0 0 l 1
 0 157 l 1
 171 157 l 1
 171 1123 l 1
 32 1123 l 1
 32 1280 l 1
512 925 m 1
 960 925 l 1
 960 143 l 2
 960 -159 829 -260 618 -260 c 0
 552 -260 512 -252 512 -252 c 1
 512 -99 l 1
 618 -99 l 2
 724 -99 790 -39 790 143 c 2
 790 768 l 1
 512 768 l 1
 512 925 l 1
EndSplineSet
Validated: 1
EndChar

StartChar: uni01CA
Encoding: 458 458 854
Width: 1024
VWidth: 0
Flags: H
LayerCount: 2
Fore
SplineSet
32 1280 m 1
 189 1280 l 1
 419 768 l 1
 419 1280 l 1
 576 1280 l 1
 576 0 l 1
 419 0 l 1
 419 456 l 1
 189 968 l 1
 189 0 l 1
 32 0 l 1
 32 1280 l 1
640 1280 m 1
 992 1280 l 1
 992 399 l 2
 992 97 886 -4 714 -4 c 0
 668 -4 640 4 640 4 c 1
 640 157 l 1
 714 157 l 2
 789 157 835 217 835 399 c 2
 835 1123 l 1
 640 1123 l 1
 640 1280 l 1
EndSplineSet
Validated: 1
EndChar

StartChar: uni01CB
Encoding: 459 459 855
Width: 1024
VWidth: 0
Flags: H
LayerCount: 2
Fore
SplineSet
736 1365 m 1
 960 1365 l 1
 960 1195 l 1
 736 1195 l 1
 736 1365 l 1
32 1280 m 1
 189 1280 l 1
 419 768 l 1
 419 1280 l 1
 576 1280 l 1
 576 0 l 1
 419 0 l 1
 419 456 l 1
 189 968 l 1
 189 0 l 1
 32 0 l 1
 32 1280 l 1
640 925 m 1
 960 925 l 1
 960 143 l 2
 960 -159 831 -260 623 -260 c 0
 554 -260 512 -252 512 -252 c 1
 512 -99 l 1
 623 -99 l 2
 734 -99 803 -39 803 143 c 2
 803 768 l 1
 640 768 l 1
 640 925 l 1
EndSplineSet
Validated: 1
EndChar

StartChar: uni01CC
Encoding: 460 460 856
Width: 1024
VWidth: 0
Flags: H
LayerCount: 2
Fore
SplineSet
736 1365 m 1
 960 1365 l 1
 960 1195 l 1
 736 1195 l 1
 736 1365 l 1
304 1040 m 0
 472 1040 576 945 576 658 c 2
 576 0 l 1
 419 0 l 1
 419 658 l 2
 419 827 375 883 304 883 c 0
 233 883 189 839 189 839 c 1
 189 0 l 1
 32 0 l 1
 32 936 l 1
 32 936 136 1040 304 1040 c 0
640 925 m 1
 960 925 l 1
 960 143 l 2
 960 -159 831 -260 623 -260 c 0
 554 -260 512 -252 512 -252 c 1
 512 -99 l 1
 623 -99 l 2
 734 -99 803 -39 803 143 c 2
 803 768 l 1
 640 768 l 1
 640 925 l 1
EndSplineSet
Validated: 1
EndChar

StartChar: uni01E4
Encoding: 484 484 857
Width: 1024
VWidth: 0
Flags: H
LayerCount: 2
Fore
SplineSet
640 1288 m 0
 791 1288 896 1272 896 1272 c 1
 896 1123 l 1
 640 1123 l 2
 384 1123 258 939 258 640 c 0
 258 272 376 149 567 149 c 0
 685 149 758 176 758 256 c 2
 758 355 l 1
 512 355 l 1
 512 512 l 1
 758 512 l 1
 758 611 l 1
 512 611 l 1
 512 768 l 1
 928 768 l 1
 928 512 l 1
 1024 512 l 1
 1024 355 l 1
 928 355 l 1
 928 256 l 2
 928 58 790 -8 567 -8 c 0
 266 -8 80 154 80 640 c 0
 80 1040 274 1288 640 1288 c 0
EndSplineSet
Validated: 1
EndChar

StartChar: uni01E5
Encoding: 485 485 858
Width: 1024
VWidth: 0
Flags: H
LayerCount: 2
Fore
SplineSet
556 1024 m 2
 640 1024 l 2
 832 1024 896 960 896 768 c 2
 896 157 l 1
 1024 157 l 1
 1024 0 l 1
 883 0 l 1
 836 -192 666 -264 416 -264 c 0
 297 -264 224 -248 224 -248 c 1
 224 -99 l 1
 416 -99 l 2
 550 -99 648 -72 695 0 c 1
 448 0 l 1
 448 157 l 1
 726 157 l 1
 726 256 l 1
 452 256 l 2
 242 256 112 380 112 581 c 0
 112 855 282 1024 556 1024 c 2
556 867 m 2
 387 867 282 758 282 581 c 0
 282 477 347 413 452 413 c 2
 726 413 l 1
 726 768 l 2
 726 829 693 867 640 867 c 2
 556 867 l 2
EndSplineSet
Validated: 1
EndChar

StartChar: uni01F6
Encoding: 502 502 859
Width: 1024
VWidth: 0
Flags: H
LayerCount: 2
Fore
SplineSet
64 1280 m 1
 234 1280 l 1
 234 768 l 1
 470 768 l 1
 470 1280 l 1
 640 1280 l 1
 640 385 l 2
 640 208 669 149 715 149 c 0
 761 149 790 208 790 385 c 2
 790 925 l 1
 960 925 l 1
 960 385 l 2
 960 90 866 -8 715 -8 c 0
 564 -8 470 90 470 385 c 2
 470 611 l 1
 234 611 l 1
 234 0 l 1
 64 0 l 1
 64 1280 l 1
EndSplineSet
Validated: 1
EndChar

StartChar: uni01F7
Encoding: 503 503 860
Width: 1024
VWidth: 0
Flags: H
LayerCount: 2
Fore
SplineSet
128 1280 m 1
 592 1280 l 2
 810 1280 944 1117 944 852 c 0
 944 256 298 256 298 256 c 1
 298 0 l 1
 128 0 l 1
 128 1280 l 1
298 1123 m 1
 298 413 l 1
 298 413 774 413 774 852 c 0
 774 1019 704 1123 592 1123 c 2
 298 1123 l 1
EndSplineSet
Validated: 1
EndChar

StartChar: uni0220
Encoding: 544 544 863
Width: 1024
VWidth: 0
Flags: H
LayerCount: 2
Fore
SplineSet
512 1296 m 0
 769 1296 928 1201 928 914 c 2
 928 -256 l 1
 758 -256 l 1
 758 914 l 2
 758 1083 664 1139 512 1139 c 0
 360 1139 266 1095 266 1095 c 1
 266 99 l 1
 96 99 l 1
 96 1192 l 1
 96 1192 255 1296 512 1296 c 0
EndSplineSet
Validated: 1
EndChar

StartChar: uni0221
Encoding: 545 545 864
Width: 1024
VWidth: 0
Flags: H
LayerCount: 2
Fore
SplineSet
512 1280 m 1
 682 1280 l 1
 682 241 l 1
 709 251 738 256 768 256 c 0
 909 256 1024 141 1024 0 c 0
 1024 -141 909 -256 768 -256 c 0
 627 -256 512 -141 512 0 c 1
 330 0 l 2
 156 0 48 149 48 390 c 0
 48 721 182 925 400 925 c 2
 512 925 l 1
 512 1280 l 1
400 768 m 2
 288 768 218 624 218 390 c 0
 218 246 261 157 330 157 c 2
 512 157 l 1
 512 768 l 1
 400 768 l 2
768 120 m 0
 702 120 648 66 648 0 c 0
 648 -66 702 -120 768 -120 c 0
 834 -120 888 -66 888 0 c 0
 888 66 834 120 768 120 c 0
EndSplineSet
Validated: 1
EndChar

StartChar: uni0222
Encoding: 546 546 865
Width: 1024
VWidth: 0
Flags: H
LayerCount: 2
Fore
SplineSet
864 1280 m 1
 864 1280 912 1205 912 1084 c 0
 912 847 674 700 674 700 c 1
 674 700 944 571 944 363 c 0
 944 129 779 -16 512 -16 c 0
 245 -16 80 129 80 363 c 0
 80 571 350 700 350 700 c 1
 350 700 112 847 112 1084 c 0
 112 1205 160 1280 160 1280 c 1
 330 1280 l 1
 330 1280 282 1205 282 1084 c 0
 282 889 512 768 512 768 c 1
 512 768 742 889 742 1084 c 0
 742 1205 694 1280 694 1280 c 1
 864 1280 l 1
512 632 m 1
 512 632 250 529 250 363 c 0
 250 236 350 157 512 157 c 0
 674 157 774 236 774 363 c 0
 774 529 512 632 512 632 c 1
EndSplineSet
Validated: 1
EndChar

StartChar: uni0223
Encoding: 547 547 866
Width: 1024
VWidth: 0
Flags: H
LayerCount: 2
Fore
SplineSet
896 1280 m 1
 896 1280 912 1225 912 1136 c 0
 912 951 674 836 674 836 c 1
 674 836 944 666 944 390 c 0
 944 139 779 -16 512 -16 c 0
 245 -16 80 139 80 390 c 0
 80 666 350 836 350 836 c 1
 350 836 112 951 112 1136 c 0
 112 1225 128 1280 128 1280 c 1
 298 1280 l 1
 298 1280 282 1225 282 1136 c 0
 282 993 512 904 512 904 c 1
 512 904 742 993 742 1136 c 0
 742 1225 726 1280 726 1280 c 1
 896 1280 l 1
512 768 m 1
 512 768 250 624 250 390 c 0
 250 246 350 157 512 157 c 0
 674 157 774 246 774 390 c 0
 774 624 512 768 512 768 c 1
EndSplineSet
Validated: 1
EndChar

